<?xml version="1.0" standalone="no"?>
<!DOCTYPE svg PUBLIC "-//W3C//DTD SVG 1.1//EN" "http://www.w3.org/Graphics/SVG/1.1/DTD/svg11.dtd" >
<svg xmlns="http://www.w3.org/2000/svg" xmlns:xlink="http://www.w3.org/1999/xlink" version="1.1">
<metadata>
Created by FontForge 20170910 at Thu Jul 13 11:46:26 2017
 By Jimmy Wärting
Copyright (c) 2017 by Misti's Fonts. All rights reserved.
</metadata>
<defs>
<font id="KissMeorNot" horiz-adv-x="396" >
  <font-face 
    font-family="Kiss Me or Not"
    font-weight="400"
    font-stretch="normal"
    units-per-em="1000"
    panose-1="0 0 0 0 0 0 0 0 0 0"
    ascent="800"
    descent="-200"
    x-height="330.5"
    cap-height="700"
    bbox="-233.667 -279 1334.85 891.389"
    underline-thickness="50"
    underline-position="-100"
    unicode-range="U+000D-E000"
  />
<missing-glyph horiz-adv-x="250" 
 />
    <glyph glyph-name="t_t" unicode="tt" horiz-adv-x="420" 
d="M446 325q8 -3 11.5 -10t0.5 -15q0 -1 -4.5 -14t-12.5 -33.5t-18.5 -46.5t-22.5 -53q-14 -32 -28 -57.5t-27 -44.5q-37 -52 -70 -52h-2q-13 1 -22 9t-15 21t-9.5 28.5t-5.5 30.5q-4 22 -6.5 50.5t-3.5 63.5l-21 -49q-14 -32 -28 -57.5t-27 -44.5q-37 -52 -70 -52h-2
q-13 1 -22 9t-15 21t-9.5 28.5t-5.5 30.5q-5 31 -7.5 74t-3.5 98q-1 63 0.5 130t4.5 125l-18 -3q-17 -4 -24 -8t-9 -8q-6 -10 -18 -10q-6 0 -9 2q-8 4 -10.5 11.5t2.5 15.5q11 20 34.5 28.5t52.5 12.5q1 26 2 51.5t3 51.5q1 18 14 30.5t28 15.5t27 -5t12 -29
q0 -23 -2.5 -52.5t-2.5 -56.5q2 0 14 1l30 2.5t39.5 4t44.5 4.5q1 41 6 85q1 18 14 30.5t28 15.5t27 -5t12 -29q0 -19 -2 -42.5t-3 -46.5q16 2 26 3t12 2q8 2 11 3.5l5 2.5q1 1 1 2q0 8 6 14t14 6t14 -6t6 -14q0 -12 -9 -25.5t-38 -21.5q-3 -1 -16 -3t-33 -4l-1 -19
q-2 -51 -3.5 -109t-1.5 -116q0 -101 4 -163.5t12 -67.5q3 -2 8.5 6.5t13.5 23.5t17.5 34t18.5 39q12 26 22 52t18 46q9 24 16 45q7 18 26 13zM154 169q10 24 19.5 47t16.5 42t12 32.5t7 18.5q-1 56 0 111.5t4 112.5q-23 -2 -44.5 -4t-39 -3.5t-29.5 -2.5t-15 -1
q-2 -51 -3.5 -109t-1.5 -116q0 -101 4 -163.5t12 -67.5q3 -2 8.5 6.5t13.5 23.5t17.5 34t18.5 39z" />
    <glyph glyph-name=".notdef" horiz-adv-x="250" 
 />
    <glyph glyph-name="NULL" horiz-adv-x="0" 
 />
    <glyph glyph-name="NULL" horiz-adv-x="0" 
 />
    <glyph glyph-name="nonmarkingreturn" unicode="&#xd;" horiz-adv-x="250" 
 />
    <glyph glyph-name="space" unicode=" " horiz-adv-x="250" 
 />
    <glyph glyph-name="e" unicode="e" horiz-adv-x="228" 
d="M253 325q8 -3 12 -10t1 -15q0 -1 -4.5 -14t-12.5 -33t-18.5 -46t-22.5 -53q-15 -32 -28.5 -57.5t-26.5 -44.5q-38 -53 -71 -53q-8 0 -18 3t-19.5 12t-19.5 24.5t-18 40.5q-11 30 -16.5 67t-5.5 73q0 18 2 41.5t10 43.5q11 31 26.5 38.5t25.5 7.5q43 0 59 -44
q14 -42 -6 -98q-10 -31 -32 -59q10 -50 19.5 -68.5t21.5 -12.5t26.5 33t34.5 70q12 26 22 51.5t18 45.5q9 23 16 44q3 8 10 11.5t15 1.5zM65 222q13 39 11 59.5t-7.5 21t-9.5 -20.5t4 -64z" />
    <glyph glyph-name="f" unicode="f" horiz-adv-x="224" 
d="M249 324q8 -2 11.5 -9.5t0.5 -15.5q0 -2 -5.5 -17t-14.5 -39t-21.5 -54.5t-27.5 -62.5q-18 -38 -35 -67.5t-34 -50.5l-15 -17q1 0 1 -2q17 -32 26 -71t9 -74q0 -41 -13 -66q-19 -33 -54 -33q-9 0 -20 5.5t-22 24.5q-12 23 -21 61q-5 25 -9.5 56t-6.5 69q-28 9 -39 25
t-11 33q0 22 19 38q9 9 26 14q-2 96 3 199t16 192q7 53 15 95t18 73q4 13 9.5 27t13 26t17.5 20t22 9q35 2 49.5 -12.5t18.5 -27.5q11 -32 -3 -87t-53 -139q-9 -19 -18.5 -37t-17.5 -33q-3 -34 -5 -69.5t-3 -71.5q-2 -51 -2.5 -99t0.5 -93l14 -16q14 18 31 46t37 70
q15 31 27.5 61t21.5 54t14.5 39l5.5 15q2 8 9.5 11.5t15.5 0.5zM132 592q3 13 6 27t4.5 26t1 19t-4.5 7q-5 0 -9.5 -13t-9.5 -34t-9.5 -49t-9.5 -59l-4 -21q13 28 21.5 52.5t13.5 44.5zM104 -156q0 28 -7 59.5t-19 59.5v-6.5t1 -6.5q2 -26 6 -55t7.5 -48.5t7 -23t4.5 20.5z
M-12 18q0 -6 7 -12q0 5 -0.5 10t-0.5 10v2q-6 -5 -6 -10z" />
    <glyph glyph-name="g" unicode="g" horiz-adv-x="414" 
d="M440 324q8 -2 11.5 -9.5t1.5 -15.5q-17 -50 -38.5 -87t-45.5 -64.5t-50.5 -48.5t-51.5 -39q0 -6 -0.5 -11.5t-0.5 -11.5q-5 -60 -12 -107t-16 -82q-26 -98 -76 -103h-4q-35 0 -60 35q-21 29 -22.5 69.5t16.5 83.5q17 40 41 67.5t53 50.5l2 20q2 31 3 60.5t2 55.5
q-4 -8 -7 -16t-7 -16q-27 -65 -51 -102q-36 -54 -70 -54q-15 0 -34 12.5t-34 53.5q-10 25 -15 56.5t-5 63.5q0 23 4 52.5t16 56.5q10 24 29 40t47 16q15 0 34.5 -9t36.5 -39q10 -18 16 -39t10 -41q7 18 13 34.5t10 28.5q4 14 8 26q2 7 14.5 12.5t26.5 6.5t26 -4.5t12 -19.5
v-16v-42.5t-0.5 -61.5t-2.5 -74q21 16 41.5 34.5t39 42t34.5 54t29 69.5q3 8 10.5 11.5t15.5 0.5zM130 142q1 7 0 25.5t-5 41.5q-11 61 -33 88q-7 10 -13.5 2t-12.5 -23t-9.5 -31.5t-4.5 -21.5q-3 -26 -1.5 -53.5t6.5 -53.5q7 -35 14 -46.5t15 -5.5t18.5 26.5t24.5 49.5
q1 1 1 2zM135 -202q3 0 11 14t15.5 39.5t14 62t6.5 80.5q-17 -16 -30 -34.5t-24 -42.5q-10 -24 -12 -45.5t1 -38t8.5 -26t9.5 -9.5z" />
    <glyph glyph-name="h" unicode="h" horiz-adv-x="370" 
d="M395 324q8 -2 11.5 -9.5t1.5 -15.5q0 -1 -4.5 -14t-12.5 -33.5t-18.5 -47t-22.5 -53.5q-36 -78 -67.5 -114.5t-62.5 -36.5q-22 0 -30.5 18t-10.5 41q-2 19 -1 42t3 48q0 5 1 24.5t1 41t-1.5 38.5t-7.5 19q-5 1 -15 -13.5t-25 -52.5q-18 -44 -28 -83.5t-26 -88.5
q-4 -11 -18 -20.5t-29.5 -13.5t-27.5 0t-10 19l-0.5 25.5t0 67.5t1.5 96t4 112q6 138 21 226q10 60 22 96.5t29 53.5q10 10 19 13t16 3q23 0 36 -9.5t18 -19.5q20 -33 2 -104q-7 -26 -18 -57t-28 -68q-8 -20 -17 -38l-17 -34l-4 -58q-2 -45 -3 -87t-1 -79q10 33 21 61
t23 48.5t25.5 32.5t29.5 13q19 3 32 -6.5t21.5 -26.5t13.5 -39t7.5 -43.5t3 -40.5t1.5 -30q0 -5 1 -15t1.5 -19t1.5 -15.5t3 -4.5q26 34 53 95q12 26 22 52t18 46q9 24 16 45q3 8 10.5 12t15.5 1zM101 546q-2 -11 -3.5 -21.5t-3.5 -22.5q25 61 34.5 103.5t8.5 54.5t-11 -13
t-25 -101z" />
    <glyph glyph-name="i" unicode="i" horiz-adv-x="208" 
d="M233 325q8 -3 11.5 -10t1.5 -15q0 -1 -4.5 -14t-12.5 -33t-18.5 -46t-22.5 -53q-15 -32 -28.5 -57.5t-27.5 -44.5q-37 -53 -71 -53q-5 0 -12 2t-14 10q-4 4 -9 12t-9.5 23t-9 38.5t-7.5 59.5q-4 54 -3 95.5t0 57.5q-1 18 11.5 29t28 12.5t28 -6.5t12.5 -27
q-1 -32 -1.5 -73.5t0.5 -78.5t4.5 -62.5t11.5 -25.5q3 0 9 9t14 23.5t17.5 33.5t18.5 39q12 26 22 52t18 46q9 24 17 44q2 8 9.5 11.5t15.5 1.5zM28 355q-9 0 -16.5 5.5t-12.5 11.5q-6 6 -11.5 13.5t-11.5 16.5q-3 4 -7.5 11.5t-10 17.5t-10 20.5t-5.5 19.5q-3 17 4.5 25
t15.5 10q15 3 27.5 -7t23.5 -24l4 -5q22 20 42 14q4 -2 9.5 -7t7.5 -17q1 -9 0 -21q-3 -23 -13 -48q-5 -11 -12.5 -22.5t-21.5 -13.5h-2zM17 416q-1 0 -1.5 0.5t-1.5 0.5l11 -15q2 4 4 9t4 11v3q-5 -9 -16 -9z" />
    <glyph glyph-name="j" unicode="j" horiz-adv-x="221" 
d="M247 324q8 -2 11.5 -9.5t1.5 -15.5q-17 -50 -38.5 -87t-45.5 -64.5t-50.5 -48.5t-51.5 -39q0 -6 -0.5 -11.5t-0.5 -11.5q-5 -60 -12 -107t-16 -82q-26 -98 -76 -103h-4q-35 0 -60 35q-21 29 -22.5 69.5t16.5 83.5q17 40 41 67.5t53 50.5l2 20q3 45 4 88t1 77v54.5v20.5
q0 9 12 14t26.5 4t27 -9.5t14.5 -27.5v-13.5v-37.5t-0.5 -57t-2.5 -72q21 16 41.5 34.5t39 42t34.5 54t29 69.5q3 8 10.5 11.5t15.5 0.5zM34 355q-9 0 -16.5 5.5t-12.5 11.5q-6 6 -11.5 13.5t-11.5 16.5q-3 4 -7.5 11.5t-10 17.5t-10 20.5t-5.5 19.5q-3 17 4.5 25t15.5 10
q15 3 27.5 -7t23.5 -24l4 -5q22 20 42 14q4 -2 9.5 -7t7.5 -17q1 -9 0 -21q-3 -23 -13 -48q-5 -11 -12.5 -22.5t-21.5 -13.5h-2zM-58 -202q17 0 27 51t20 145q-17 -16 -30 -34.5t-24 -42.5q-6 -15 -9 -35t-2.5 -39t5 -32t13.5 -13zM23 416q-1 0 -1.5 0.5t-1.5 0.5l11 -15
q2 4 4 9t4 11v3q-5 -9 -16 -9z" />
    <glyph glyph-name="k" unicode="k" horiz-adv-x="348" 
d="M373 325q17 -7 12 -26q-8 -21 -17 -45q-8 -20 -18.5 -46.5t-22.5 -52.5q-24 -51 -42.5 -82t-32.5 -47t-25 -21.5t-20 -5.5h-2q-29 0 -57 13.5t-58 42.5l-16 15v-31q1 -14 -10 -24t-26 -13.5t-28 0t-15 17.5q0 70 0.5 140t3 136.5t7.5 130t15 120.5q10 60 22 96.5t29 53.5
q10 10 19 13t16 3q23 0 36 -9.5t18 -19.5q20 -33 2 -104q-7 -26 -18 -57t-28 -68q-8 -20 -17 -38l-17 -34l-4 -58q-1 -29 -2 -57.5t-1 -55.5l1 1q17 21 35 41t34 37q23 23 38 33t27 10q14 0 22 -10q5 -6 5 -14.5t-7 -13.5q-10 -10 -21 -3q-4 -2 -12.5 -9t-25.5 -24
q-15 -16 -31.5 -34.5t-33.5 -38.5q-5 -6 -9.5 -11.5t-8.5 -10.5q17 -11 34.5 -31.5t34.5 -38.5q26 -27 41.5 -37t28 -1t26.5 37.5t37 79.5q12 26 22 51t17.5 44.5t12 32l4.5 12.5q7 17 26 12zM101 546q-2 -11 -3.5 -21.5t-3.5 -22.5q25 61 34.5 104t8.5 55t-11 -13.5
t-25 -101.5z" />
    <glyph glyph-name="l" unicode="l" horiz-adv-x="217" 
d="M243 325q8 -3 11.5 -10t0.5 -15q0 -1 -4.5 -14t-12.5 -33.5t-18.5 -46.5t-22.5 -53q-7 -15 -19 -41t-27.5 -51t-35.5 -43.5t-43 -18.5h-2q-13 0 -22 8t-15.5 20.5t-10.5 27t-7 28.5q-6 32 -9.5 74t-5.5 93q-2 78 3 155.5t15 140.5q12 70 30 111q23 53 58 55q23 1 35 -7.5
t17 -17.5q20 -30 3 -103q-14 -53 -45 -126q-17 -39 -34 -74q0 -7 -0.5 -14t-0.5 -14q-2 -54 -1 -106t5 -95q5 -48 10.5 -67t14 -14.5t20.5 30t31 65.5q12 26 22 52t18 46q9 24 16 45q7 18 26 13zM93 507q25 59 32.5 101t5 55t-12 -10.5t-17.5 -95.5l-4 -24t-4 -26z" />
    <glyph glyph-name="m" unicode="m" horiz-adv-x="528" 
d="M553 324q8 -2 11.5 -9.5t1.5 -15.5q0 -1 -4.5 -14t-12.5 -33.5t-18.5 -47t-22.5 -53.5q-35 -78 -67 -114.5t-62 -36.5h-6q-11 1 -18.5 8t-11.5 16t-6 18t-3 15q-4 18 -5 41t-3 48q0 5 -1 25t-3.5 42t-7 40t-11.5 20q-10 2 -23.5 -17.5t-27.5 -51.5q6 -17 11 -35.5
t10 -36.5q8 -46 8 -74q-2 -17 -6 -29q-5 -11 -11.5 -15.5t-11.5 -6.5q-31 -8 -51 14q-23 26 -15 88q2 17 6 36t10 38q-5 12 -8.5 22.5t-8.5 20.5q-7 14 -12.5 24.5t-10.5 12.5t-9 -7t-8 -33q-5 -26 -6 -55.5t-2 -57.5q-1 -19 -1.5 -36t-2.5 -30q-1 -8 -2 -13.5t-3 -10.5
q-2 -8 -13 -14.5t-25.5 -9.5t-30 0t-26.5 15q-4 4 -9 12t-9.5 23t-8 38.5t-6.5 59.5q-2 24 -2.5 48.5t-0.5 46t0.5 38.5t0.5 27t12 19.5t26.5 12.5t27 -3t15.5 -28q1 -11 1 -28.5t-0.5 -39.5t-0.5 -46.5t2 -48.5q2 -35 5.5 -55t7.5 -31l3 56q1 29 2.5 61t5.5 59
q2 12 5.5 25.5t9 25t14 20t21.5 10.5q41 8 76 -61q13 23 31 41t41 20q11 4 26 -4t23 -16q15 -18 23 -46q8 -25 12.5 -56t8.5 -60q1 -11 1.5 -25t2.5 -24.5t6.5 -14.5t12.5 6q25 34 53 95q12 26 22 52t18 46q9 24 16 45q2 8 9.5 12t15.5 1zM225 96q-3 -31 4 -45q0 7 -1 18
t-3 27z" />
    <glyph glyph-name="n" unicode="n" horiz-adv-x="373" 
d="M399 324q8 -2 11.5 -9.5t1.5 -15.5q0 -1 -4.5 -14t-12.5 -33.5t-18.5 -47t-22.5 -53.5q-36 -78 -67.5 -114.5t-62.5 -36.5h-5q-12 1 -19 8.5t-10.5 17t-5 19t-1.5 14.5q-2 19 -1 42t3 48q2 23 2.5 44.5t-0.5 40.5q0 4 -0.5 12.5t-2.5 15t-5.5 8t-9.5 -9.5
q-10 -16 -19 -51q-8 -32 -13.5 -69t-9.5 -66q-2 -14 -3.5 -28.5t-5.5 -28.5q-2 -6 -13 -12t-25.5 -8.5t-29 0.5t-23.5 14q-4 4 -8.5 12t-9 23t-8.5 38.5t-7 59.5q-3 49 -4.5 86t0.5 57q1 17 14 29t27.5 15.5t27 -2.5t14.5 -24q1 -11 0.5 -28.5t-0.5 -39.5v-46.5t2 -48.5
q2 -29 5 -47.5t5 -30.5l3 15q6 47 13 89.5t17 74.5t24.5 51t35.5 19q30 0 46 -22t23 -52t8 -61.5t2 -50.5v-15t0.5 -19.5t1 -16.5t2.5 -7q3 0 9.5 9.5t14.5 24.5t16.5 32.5t15.5 32.5q12 26 22 52t18 46q9 24 16 45q3 8 10.5 12t15.5 1z" />
    <glyph glyph-name="o" unicode="o" horiz-adv-x="243" 
d="M269 324q8 -3 11 -10.5t0 -15.5q-15 -37 -42.5 -66.5t-63.5 -49.5v-12t-1 -12q-3 -62 -25 -104q-28 -53 -78 -53q-1 -1 -2 -1q-35 0 -60 28q-19 22 -30 62q-5 20 -8 44.5t-2 50.5q-23 18 -26 52q-2 29 11 60q18 38 47 59q36 25 78 19q27 -3 48 -27q8 -11 15.5 -23.5
t13.5 -29.5q5 -15 9.5 -32.5t6.5 -35.5q50 32 72 86q3 8 10.5 11t15.5 0zM74 310q3 -14 -9 -21q-3 -5 -8 -22.5t-8 -49.5q0 -5 -0.5 -11t-0.5 -11q14 -2 29.5 -1t32.5 6q13 3 23 7q-3 40 -16 74q-8 25 -20 39t-24 16q-14 2 -25.5 -1.5t-21.5 -9.5h28q15 0 20 -15zM134 165
l-14 -4q-36 -9 -71 -7q1 -28 8 -54q4 -13 9 -26t12 -19.5t15.5 -3.5t19.5 22q8 16 13.5 38.5t7.5 48.5v5z" />
    <glyph glyph-name="p" unicode="p" horiz-adv-x="377" 
d="M401 325q8 -2 12 -9.5t2 -15.5q0 -1 -4.5 -14t-12 -33.5t-18 -46.5t-24.5 -53q-80 -154 -174 -154q-50 0 -88 65q-11 18 -18 36q0 -15 -0.5 -30.5t-1.5 -30.5q-2 -18 -3 -35t-3 -33q43 5 86 -13q8 -3 11.5 -10.5t-0.5 -15.5q-3 -8 -10.5 -11t-15.5 0q-21 8 -40 10t-35 -1
q-3 -23 -6.5 -42.5t-7.5 -36.5q-25 -98 -75 -102h-6q-37 0 -51 30q-14 26 0 67q12 37 42 69q5 6 11.5 12t12.5 11q4 26 6.5 57t4.5 70q2 46 2.5 87t0 72t-1 49.5t-0.5 19.5q-1 19 11.5 28.5t28 11t28 -5.5t12.5 -21v-6v-8t1 -10q12 18 21 29q34 40 63 40q16 0 35.5 -14
t34.5 -58q10 -26 15 -59.5t6 -68.5q0 -17 -1.5 -40t-7.5 -45q23 20 42.5 48.5t34.5 56.5q13 26 23.5 51t18 45t11.5 32.5l4 12.5q2 8 9 11.5t15 1.5zM113 114q16 -34 28 -45.5t19.5 -4t10 32.5t1.5 65q-1 18 -4.5 43.5t-9.5 46.5t-13 32.5t-16 1.5q-24 -29 -43 -71
q0 -1 -1 -2v-2q1 -9 8 -37t20 -60zM-48 -191q5 8 10 22t10 35q-22 -32 -20 -57z" />
    <glyph glyph-name="q" unicode="q" horiz-adv-x="420" 
d="M445 324q8 -2 11.5 -9.5t0.5 -15.5q0 -2 -5.5 -17t-14.5 -39t-21.5 -54.5t-27.5 -62.5q-18 -38 -35.5 -67.5t-33.5 -50.5q-4 -5 -7.5 -8.5t-6.5 -8.5q17 -34 26 -73.5t9 -73.5q0 -41 -13 -66q-19 -33 -54 -33q-6 0 -14.5 2.5t-17.5 12.5q-20 22 -32 81q-5 24 -9 54t-7 66
q-27 9 -38 25t-11 33q0 22 19 38q9 9 26 14q-2 51 0 107q-2 -6 -4.5 -12t-5.5 -11q-27 -65 -51 -102q-36 -54 -70 -54q-15 0 -34 12.5t-34 53.5q-10 25 -15 56.5t-5 63.5q0 23 4 52.5t16 56.5q10 24 29 40t47 16q15 0 34.5 -9t36.5 -39q10 -18 16 -39t10 -41q6 15 9.5 23
t5.5 14t4.5 14t6.5 23t18.5 24t30 11t27 -4.5t10.5 -22.5q-5 -68 -6.5 -134.5t0.5 -126.5l14 -16q14 18 31 46t37 70q15 31 27.5 61t21.5 54t14.5 39l5.5 15q2 8 9.5 11.5t15.5 0.5zM130 142q1 7 0 25.5t-5 41.5q-11 61 -33 88q-7 10 -14 1.5t-12.5 -24t-9.5 -31.5t-4 -20
q-3 -26 -1.5 -53.5t6.5 -53.5q7 -35 14 -46.5t15 -5.5t18.5 26.5t24.5 49.5q1 1 1 2zM297 -186q2 0 2.5 11t0.5 19q0 29 -7 60.5t-20 59.5q2 -30 4.5 -57.5t5.5 -48t6.5 -32.5t7.5 -12zM184 18q0 -7 7 -11q-1 5 -1 10.5v10.5q-6 -5 -6 -10z" />
    <glyph glyph-name="r" unicode="r" horiz-adv-x="297" 
d="M322 325q8 -3 11.5 -10t1.5 -15q0 -1 -4.5 -14t-12.5 -33t-18.5 -46t-22.5 -53q-15 -32 -28.5 -57.5t-27.5 -44.5q-37 -53 -71 -53q-6 0 -14.5 3t-16.5 14q-8 10 -13.5 26.5t-8.5 35t-4.5 36t-1.5 31.5q-1 31 1.5 63t7.5 61q-46 -8 -81.5 8.5t-49.5 65.5q-18 51 -9 95
q6 29 24.5 44.5t47.5 15.5q20 0 31 -7t16 -15q16 -27 0 -81q-7 -20 -15.5 -39.5t-15.5 -35.5h-1q10 -17 31 -15.5t37 15.5q3 2 15.5 5.5t26.5 3.5t23.5 -6t6.5 -23q-7 -28 -12.5 -63t-8 -68t-0.5 -57t10.5 -29t23.5 14t40 74q12 26 22 51.5t18 45.5q9 23 17 44q2 8 9.5 11.5
t15.5 1.5zM41 407q12 39 9.5 47.5t-9.5 -1t-12 -31.5t1 -43z" />
    <glyph glyph-name="s" unicode="s" horiz-adv-x="237" 
d="M261 325q8 -2 12 -9.5t1 -15.5q0 -1 -4 -14t-11.5 -33.5t-18.5 -46.5t-25 -53q-80 -154 -174 -154q-17 0 -34 8t-29 22q-19 20 -27.5 51.5t-4.5 64.5q2 8 8.5 13.5t14.5 3.5q8 -1 13 -7.5t4 -14.5q-2 -13 -1 -28.5t5 -29t12.5 -23t22.5 -10.5q12 -1 22.5 5t18.5 16
t11.5 22.5t2.5 26.5q-2 19 -9.5 38.5t-18 37.5t-23.5 35.5t-25 32.5q-8 11 -15 20t-12 18q-11 16 -14 37.5t-0.5 43.5t10.5 43t20 37q8 10 22 19.5t29.5 12.5t29 -2t20.5 -23q12 -24 0.5 -59.5t-30.5 -75.5q-5 -13 -9 -20l25 -32q23 -31 47 -68t32 -79l10 18l10 18
q13 26 24 51t18 45t11 32.5l4 12.5q2 8 9.5 11.5t15.5 1.5zM54 411q7 21 6.5 30t-2.5 11q0 3 -5 3q-1 0 -4 -3t-6 -11q-6 -14 -8 -34t1 -40q5 11 9.5 22t8.5 22z" />
    <glyph glyph-name="t" unicode="t" horiz-adv-x="210" 
d="M236 325q8 -3 11.5 -10t0.5 -15q0 -1 -4.5 -14t-12.5 -33.5t-18.5 -46.5t-22.5 -53q-14 -32 -28 -57.5t-27 -44.5q-37 -52 -70 -52h-2q-13 1 -22 9t-15 21t-9.5 28.5t-5.5 30.5q-5 31 -7.5 74t-3.5 98q-1 63 0.5 130t4.5 125l-18 -3q-17 -4 -24 -8t-9 -8q-6 -10 -18 -10
q-6 0 -9 2q-8 4 -10.5 11.5t2.5 15.5q11 20 34.5 28.5t52.5 12.5q1 26 2 51.5t3 51.5q1 18 14 30.5t28 15.5t27 -5t12 -29q0 -23 -2.5 -52.5t-2.5 -56.5q22 2 35 6q8 2 11 3.5l5 2.5q1 1 1 2q0 8 6 14t14 6t14 -6t6 -14q0 -12 -9 -25.5t-38 -21.5q-10 -3 -22 -4.5t-25 -2.5
q-2 -51 -3.5 -109t-1.5 -116q0 -101 4 -163.5t12 -67.5q3 -2 8.5 6.5t13.5 23.5t17.5 34t18.5 39q12 26 22 52t18 46q9 24 16 45q7 18 26 13z" />
    <glyph glyph-name="u" unicode="u" horiz-adv-x="358" 
d="M384 325q8 -3 11.5 -10.5t0.5 -15.5q0 -1 -4.5 -13.5t-12.5 -33t-18.5 -46t-22.5 -52.5q-14 -32 -28 -57.5t-27 -44.5q-38 -53 -71 -53q-5 0 -12 2t-15 10q-7 7 -15 25.5t-15 63.5q-7 -26 -18 -46q-31 -55 -74 -55q-19 0 -34 15q-28 28 -32 121q-2 43 -2.5 88t4.5 84
q0 8 12 17.5t26.5 13t27 -3t14.5 -29.5q0 -40 -2.5 -83.5t0.5 -85.5q1 -18 2 -35t3.5 -27.5t7 -12.5t12.5 12q17 34 29 93q10 45 12 81.5t5 59.5q1 8 13.5 16t27.5 10t27 -3.5t12 -24.5v-74t1.5 -79.5t4.5 -63t9 -23.5q3 1 9 10t14 23.5t17.5 33t18.5 39.5q12 26 22 51.5
t18 45.5q9 23 16 44q7 18 26 13z" />
    <glyph glyph-name="v" unicode="v" horiz-adv-x="280" 
d="M305 325q19 -7 12 -26q-10 -30 -31 -55q-24 -29 -51 -40q-18 -8 -36 -9q-1 -8 -5 -19q-19 -70 -50 -117q-38 -60 -84 -60q-20 0 -35 15q-28 29 -32 121q-2 43 -2.5 84.5t5.5 83.5q1 9 14 18t28 12t27 -2.5t11 -25.5q-2 -38 -3.5 -83t0.5 -86q1 -20 2 -37.5t4 -28t8.5 -12
t15.5 10.5q12 16 22.5 37t20.5 47l14 47q-3 1 -5.5 2t-4.5 2q-22 9 -34.5 26.5t-14.5 40.5q-2 24 8.5 47t28.5 34q24 15 47 1q26 -17 26 -73q0 -23 -4 -43q8 2 12 4q20 8 36 27t25 45q2 8 9.5 11t15.5 1zM170 264q2 29 -1 41t-5 14h-2q-2 0 -3 -1q-8 -5 -14 -17.5t-4 -26.5
q1 -24 24 -33q1 0 2 -1q3 12 3 24z" />
    <glyph glyph-name="w" unicode="w" horiz-adv-x="415" 
d="M441 325q19 -7 12 -26q-11 -30 -34 -55.5t-52 -38.5q-5 -2 -11 -4t-12 -3q-6 -38 -18.5 -77.5t-35.5 -72.5q-20 -31 -40 -40t-34 -9q-36 0 -66 56q0 2 -2 4q-45 -60 -94 -60q-19 0 -34 15q-28 29 -32 121q-3 45 -1.5 81t3.5 75q0 13 13 24.5t28.5 16t27.5 -1t11 -25.5
q-2 -41 -3.5 -85t1.5 -87q4 -71 16.5 -76t44.5 46q-5 15 -9.5 31t-6.5 32q-5 24 -5 52.5t13 48.5q15 23 43 21q26 -2 37 -26q8 -16 8 -44q-1 -19 -6.5 -41t-14.5 -45q9 -17 17.5 -33t17 -27t16 -14t14.5 7q20 26 36 76q5 14 8 27.5t6 27.5q-7 2 -13.5 3.5t-13.5 4.5
q-43 18 -46 62q-2 25 9.5 49t31.5 36q27 16 50 2q29 -17 29 -85v-13.5t-1 -13.5q1 0 2 1q21 9 39 28.5t26 42.5q2 8 9.5 11.5t15.5 0.5zM310 259v12.5t-1.5 23t-5.5 19.5t-11 3q-9 -5 -16.5 -19.5t-5.5 -28.5q1 -19 22 -28q9 -4 17 -5q0 6 0.5 12t0.5 11zM169 219
q0 11 -1 16.5t-2 7.5q-5 -15 1 -42z" />
    <glyph glyph-name="x" unicode="x" horiz-adv-x="320" 
d="M345 325q8 -3 11.5 -10t1.5 -15q0 -1 -4.5 -14t-12.5 -33t-18.5 -46t-22.5 -53q-15 -32 -28.5 -57.5t-27.5 -44.5q-37 -53 -71 -53q-21 0 -52 28q-11 11 -23 24.5t-24 30.5q-14 -20 -22 -38t-8 -33q0 -8 -6 -14t-14 -6t-14 6t-6 14q0 26 13 52.5t33 54.5q-27 42 -40 81
q-12 34 -14 61t4 51q2 7 15.5 13t28.5 6t26 -8t8 -29q-7 -47 22 -110q15 18 29 36t25 35.5t17.5 33t6.5 29.5q0 8 6 14t14 6t14 -6t6 -14q0 -20 -7.5 -40t-20.5 -40.5t-29 -42t-34 -43.5l-6 -7q8 -14 16 -28.5t16.5 -25.5t18 -18t20.5 -7q17 1 32 27t39 79q12 26 22 51.5
t18 45.5q9 23 17 44q3 8 10 11.5t15 1.5z" />
    <glyph glyph-name="y" unicode="y" horiz-adv-x="370" 
d="M396 324q8 -2 11.5 -9.5t0.5 -15.5q-17 -53 -38.5 -91t-46 -66.5t-50 -49.5t-49.5 -40q-1 0 -1 -0.5t-1 -0.5q0 -9 -1 -14q-9 -121 -27 -189q-26 -98 -76 -103h-4q-30 0 -48 26q-19 27 -19 68q0 43 20 94q15 34 33.5 58.5t40.5 44.5l3 32l-7 -14q-31 -55 -74 -55
q-21 0 -34 15q-28 28 -32 121q-2 37 -1 75.5t2 71.5q1 7 0.5 13t0.5 12q2 16 14.5 21.5t27 2t26 -15t11.5 -29.5v-2v-3q-1 -33 -2 -71.5t1 -73.5q1 -17 2.5 -34.5t4 -28.5t7 -13t10.5 13q18 32 30 93q5 26 8.5 49.5t5 41.5t2 29l0.5 11q0 12 12.5 21.5t27.5 12t28 -3
t14 -21.5v-16.5v-44.5t-0.5 -64.5t-2.5 -76.5q20 16 40 35t38.5 43.5t35 55.5t30.5 73q3 8 10.5 12t15.5 1zM94 -197q13 0 22.5 46t18.5 121q-18 -22 -31 -53q-8 -19 -12.5 -39t-5.5 -36.5t1 -27.5t7 -11z" />
    <glyph glyph-name="z" unicode="z" horiz-adv-x="329" 
d="M355 324q8 -2 11.5 -9.5t0.5 -15.5q-20 -59 -45 -106.5t-51.5 -86t-53 -69t-50.5 -55.5q8 -26 8 -50.5t-2 -43.5q-4 -26 -12.5 -51.5t-20.5 -45.5q-26 -46 -61 -46q-17 0 -32.5 10t-23.5 27q-3 7 -5.5 19.5t-0.5 29t11 38t27 47.5q15 22 36 45q-15 70 -84 80
q-14 2 -16 17q-2 13 10 20q34 18 58 36.5t39 36.5t23 34.5t11 30.5q13 50 -15 90q-9 12 -19.5 15.5t-24.5 1.5q-29 -6 -37 -29q-3 -8 -10 -11.5t-15 -1.5q-18 7 -13 26q15 44 67 55q16 3 33.5 2.5t34 -4.5t30 -11.5t22.5 -16.5q39 -44 27 -111q-5 -24 -16 -48t-29 -46
q-28 -34 -68 -61q32 -15 50 -45q23 24 47.5 52.5t48 64t45 78.5t39.5 96q3 8 10.5 11.5t15.5 0.5zM87 -107q-10 -14 -17.5 -29.5t-11.5 -29t-2.5 -22.5t10.5 -10q5 -1 10 12t8.5 30.5t6 34.5t3.5 24q-2 -3 -3.5 -5.5t-3.5 -4.5z" />
    <glyph glyph-name="d" unicode="d" horiz-adv-x="371" 
d="M397 325q8 -3 11.5 -10t0.5 -15q0 -1 -4.5 -14t-12.5 -33.5t-18.5 -46.5t-22.5 -53q-14 -32 -28 -57.5t-27 -44.5q-12 -17 -28.5 -34.5t-41.5 -17.5h-2q-13 0 -22 8t-15.5 20.5t-10.5 27t-7 28.5l-3 16q-6 -14 -16 -31t-23 -32.5t-29 -26t-34 -10.5q-8 0 -16.5 2.5
t-17 9.5t-17 20t-15.5 33q-9 25 -13.5 55.5t-5.5 64.5q-1 30 2.5 57.5t10.5 49.5q12 36 28.5 47.5t30.5 11.5q16 1 39 -10t44 -48q13 -21 20 -41q-2 77 3 155t15 140q12 70 30 111q23 53 58 55q23 1 35 -7.5t17 -17.5q20 -30 3 -103q-14 -53 -45 -126q-17 -39 -34 -74
q0 -7 -0.5 -14t-0.5 -14q-2 -54 -1 -106t5 -95t9.5 -61t14.5 -14t21.5 27t30.5 62q12 26 22 52t18 46q9 24 16 45q7 18 26 13zM140 140q0 6 -3.5 25t-10.5 43q-5 17 -13.5 40t-18 35.5t-18 6.5t-13.5 -45q-4 -22 -4 -47t2 -50q2 -18 5 -36t7 -31.5t10 -19t14 2.5
q23 28 42 70q0 1 1 2v4zM247 507q19 54 28 93.5t9 52t-7.5 -8.5t-21.5 -87z" />
    <glyph glyph-name="A" unicode="A" horiz-adv-x="576" 
d="M602 325q8 -3 11.5 -10t0.5 -15q0 -1 -4.5 -14t-12.5 -33.5t-18.5 -46.5t-22.5 -53q-14 -32 -28 -57.5t-27 -44.5q-37 -52 -70 -52h-2q-5 0 -12 2.5t-14 10.5q-21 23 -30 98q-4 29 -5.5 67.5t-1.5 85.5q-1 45 0 90.5t3 88.5q-9 -30 -19 -62t-21 -64l-15 -43
q-1 -8 -2 -11.5t-3 -5.5l-3 -4q-35 -90 -68 -148q-9 -15 -20.5 -33.5t-26 -34t-32.5 -26.5t-39 -11q-11 0 -23.5 4t-25 15.5t-24.5 31t-22 50.5q-13 39 -19.5 92t-6.5 113q0 71 9 138t25 121q8 29 19 52t23 40q30 41 69 41q34 0 62 -22q24 -19 42 -52q13 -24 23 -52t17 -57
t11.5 -57.5t7.5 -52.5q1 -5 1.5 -10t0.5 -10q16 48 28.5 92.5t21.5 78.5t14 54.5l5 20.5q2 7 14.5 13t26.5 7.5t26 -4t12 -21.5q0 -9 -0.5 -22.5t-1.5 -30.5q-2 -27 -3.5 -62t-3 -75t-2 -82t-0.5 -83q0 -88 5 -135.5t10 -69.5q11 14 25.5 38.5t33.5 65.5q12 26 22 52t18 46
q9 24 16 45q7 18 26 13zM274 281q1 17 -1 57t-9 89q-10 70 -27 121.5t-40 79.5q-5 5 -15.5 14t-15.5 9q-16 0 -29.5 -19.5t-24 -52t-18 -76t-11.5 -91.5t-4 -98t4 -95q4 -36 10 -67t15 -54q7 -19 14 -32.5t18 -14.5q14 -1 29 18.5t35 54.5q17 30 34.5 69t35.5 88z" />
    <glyph glyph-name="B" unicode="B" horiz-adv-x="559" 
d="M584 325q8 -2 12 -9.5t1 -15.5q0 -1 -4 -14t-13 -34t-23 -47t-33 -54q-23 -33 -48.5 -59t-53.5 -45q-72 -48 -158 -48q-14 0 -30 1t-31 6q-43 11 -56 36q-5 7 -2.5 14.5t9.5 12.5q8 4 15.5 2t12.5 -10q4 -7 20.5 -15t40.5 -6q48 3 80.5 31.5t46.5 66.5q10 27 6.5 53
t-19.5 44q-34 38 -104 24q-19 -3 -24 14q-3 19 14 24q33 10 57.5 34t40.5 55.5t24 67t8 68.5q0 24 -3.5 47t-10 41t-16.5 29t-23 11q-23 -1 -67 -84q-21 -39 -42.5 -93.5t-44.5 -123.5q-20 -60 -36 -117.5t-28 -104t-18.5 -76.5t-7.5 -35q-2 -6 -13 -12t-25 -8t-26.5 3
t-15.5 20q0 1 -0.5 26.5t0 67.5t1.5 96t4 112q3 69 8 125t12 101q19 117 52 150q10 10 19 12.5t16 2.5q23 0 35.5 -9t18.5 -19q19 -34 1 -104q-6 -26 -17.5 -57.5t-27.5 -67.5l-35 -73l-3 -57q-2 -37 -3 -72.5t-1 -67.5q10 38 22.5 81t27.5 89q23 72 45.5 129t45.5 99
q59 112 119 112q47 0 79 -38q26 -34 34 -87q7 -44 0.5 -90t-24.5 -88q-20 -46 -51 -77q-3 -4 -11 -10q38 -9 64 -38q23 -27 29 -64t-8 -75l-5 -12q25 24 48 57q18 25 30.5 50t21 44.5t12.5 32l4 12.5q2 8 9.5 11.5t15.5 1.5zM102 547q-2 -11 -3.5 -22t-3.5 -23q23 62 31 104
t6.5 53.5t-10.5 -14t-20 -98.5z" />
    <glyph glyph-name="C" unicode="C" horiz-adv-x="369" 
d="M395 325q8 -3 11 -10.5t0 -15.5l-11 -31q-13 -35 -30.5 -80.5t-42.5 -86.5q-29 -46 -60 -71q-40 -31 -85 -31q-46 0 -82 37q-30 30 -53 87q-20 49 -30.5 113.5t-10.5 133.5q0 63 9.5 120t26.5 101q13 33 28.5 54t32 33t32 16.5t29.5 4.5q40 0 64 -27q39 -42 33 -134
q-2 -19 -21 -19q-8 1 -14 7.5t-5 14.5q2 35 -3.5 62.5t-18.5 41.5q-4 3 -7.5 6.5t-7.5 3.5q-14 0 -26 -10t-22.5 -28t-18.5 -42.5t-15 -51.5q-13 -55 -15.5 -120.5t6.5 -130.5q7 -51 19 -92t29 -71t36 -48t42 -14q21 4 38.5 25t35.5 50q23 38 40 81.5t29 77.5q4 9 6.5 17
t5.5 15q3 8 10.5 11.5t15.5 0.5z" />
    <glyph glyph-name="D" unicode="D" horiz-adv-x="567" 
d="M591 325q8 -2 12 -9.5t2 -15.5q0 -1 -4.5 -14t-13.5 -34t-23.5 -47t-33.5 -54q-45 -66 -103 -104q-22 -15 -49 -26.5t-56 -17.5t-58 -5.5t-56 8.5q-44 11 -57 36q-4 7 -2 14.5t10 12.5q7 4 15 2t12 -10q4 -7 19.5 -13t37.5 -7h1q48 8 81.5 64t49.5 152q11 61 11 126.5
t-9 124.5q-5 26 -9 51t-9 44.5t-12.5 32t-19.5 12.5q-14 1 -31.5 -22t-37.5 -60q-21 -39 -43 -93.5t-45 -123.5q-20 -60 -36 -117.5t-28 -104t-18.5 -76.5t-7.5 -35q0 -8 -13 -13.5t-28 -7t-28.5 3.5t-14.5 20q0 1 -0.5 26.5t0 67.5t1.5 96t4 112q3 69 8 125t12 101
q19 117 52 150q10 10 19 12.5t16 2.5q23 0 35.5 -9t18.5 -19q19 -34 1 -104q-6 -26 -17.5 -57.5t-27.5 -67.5l-35 -73l-3 -57q-2 -42 -3 -82.5t-2 -75.5q11 40 24.5 88.5t30.5 99.5q23 72 46 129t45 99q60 112 120 112q18 0 42 -14.5t44 -61.5q14 -30 22.5 -71t13.5 -89
q6 -75 -0.5 -149t-25.5 -135q-18 -64 -48 -104q60 33 108 102q18 25 31 50t21.5 44.5t13 32l4.5 12.5q2 8 9 11.5t15 1.5zM95 502q30 62 37.5 104t3 53.5t-16 -14t-18.5 -98.5z" />
    <glyph glyph-name="E" unicode="E" horiz-adv-x="347" 
d="M384 299l-4 -12t-5 -14q-12 -37 -30 -82.5t-46 -87.5q-70 -103 -174 -103q-41 0 -76 12.5t-63 38.5q-25 23 -40 52.5t-17 62.5q-6 68 39 121q30 34 80 54q-10 8 -18.5 17t-15.5 21q-16 24 -24 55.5t-8 66.5q0 38 9.5 72t27.5 60q43 64 118 64q38 0 65 -27q38 -41 32 -132
q-2 -19 -21 -19q-8 1 -14 7.5t-5 14.5q2 35 -3 61.5t-19 40.5q-11 11 -21 11q-27 0 -45 -17.5t-28.5 -44.5t-13.5 -59t0 -60q3 -25 11 -46t19 -37q24 -31 61 -31q8 0 13.5 -5.5t6.5 -13.5q0 -8 -4.5 -13.5t-12.5 -7.5q-44 -7 -73.5 -23t-47 -36.5t-24.5 -43.5t-5 -44
q2 -24 13.5 -46.5t31.5 -40t48 -26.5t63 -4q39 5 67 30t48.5 59.5t34 72.5t24.5 69l9 27q2 8 9.5 11.5t15.5 0.5q19 -7 12 -26z" />
    <glyph glyph-name="F" unicode="F" horiz-adv-x="264" 
d="M290 325q8 -2 12 -9.5t2 -15.5q-14 -50 -42.5 -97t-65.5 -82q-35 -33 -73 -50q6 -13 13 -31q20 -55 30.5 -114t6.5 -104q-2 -25 -8.5 -40t-14 -23.5t-16 -11t-15.5 -2.5q-65 0 -97 128q-10 37 -16 83t-10 100q-24 4 -35.5 16t-16.5 22q-8 18 -5.5 38.5t14.5 37.5
q15 20 40 23q2 88 10.5 171t23.5 152q42 194 123 196q28 1 42 -8.5t19 -20.5q14 -26 3.5 -71t-48.5 -115q-20 -35 -41.5 -70t-41.5 -66q-5 -51 -8 -104t-2 -105l11 -13q5 -8 10.5 -16t10.5 -17q19 9 34.5 20.5t28.5 23.5q33 32 59 74t38 87q2 8 9.5 12t15.5 2zM130 516
q30 57 42 94t10.5 53.5t-12 12t-24.5 -30t-28.5 -73t-22.5 -117.5q19 30 35 61zM133 -174q1 19 -0.5 43.5t-6 51t-12 53.5t-16.5 52l-12 31l-10 -2q1 -11 1.5 -22.5t2.5 -22.5q4 -43 10.5 -78.5t14.5 -64.5q3 -11 7.5 -24.5t9 -22.5t8 -9t3.5 15zM-20 110q5 -9 14 -12
q0 11 -0.5 21.5t-0.5 21.5v11q-5 -2 -8 -7q-6 -7 -7 -17t2 -18z" />
    <glyph glyph-name="G" unicode="G" horiz-adv-x="590" 
d="M616 325q8 -2 12 -9.5t2 -15.5q-30 -101 -102 -161q-17 -15 -35 -26.5t-37 -22.5q-3 -51 -8.5 -94.5t-13.5 -79.5q-6 -26 -15 -57t-24 -57t-38.5 -43.5t-57.5 -17.5q-21 0 -40 8.5t-33 25.5q-14 16 -22.5 37t-11 45t1 49.5t14.5 49.5q20 50 72 87q22 16 46.5 28.5
t50.5 24.5q2 27 3 56.5t2 61.5q2 85 -0.5 165t-5.5 140q-10 -43 -24 -95.5t-31 -107.5q-2 -5 -3.5 -10.5t-3.5 -10.5q0 -23 -1.5 -29.5t-3.5 -9.5q-3 -6 -11 -9q-15 -43 -30 -78.5t-31 -64.5q-56 -105 -115 -105q-11 0 -23.5 4t-25 15.5t-24.5 31t-22 50.5q-13 39 -19.5 92
t-6.5 113q0 71 8.5 138t25.5 121q8 29 19 52t23 40q30 41 69 41q34 0 61 -21q24 -20 42 -52q13 -23 22.5 -50t16.5 -55.5t11.5 -56.5t7.5 -52q12 44 22 83.5t17 69.5t10.5 48l3.5 18q2 10 15 18.5t29 10t29.5 -5t16.5 -25.5q0 -1 2.5 -36.5t5 -93.5t4 -132t0.5 -152l-3 -75
q42 26 77 65.5t55 107.5q2 8 9.5 12t15.5 2zM202 123q35 65 72 178q0 22 -2 55t-7 71q-10 70 -27 121.5t-40 79.5q-15 20 -28 19t-23.5 -15t-19 -37t-15.5 -47q-13 -43 -20.5 -95.5t-9.5 -109.5q-2 -54 1.5 -104.5t12.5 -91.5q9 -39 19 -63.5t23 -30t28.5 11t35.5 58.5z
M355 -76q10 54 18 126q-43 -20 -77 -44t-52 -65q-8 -19 -11 -38.5t-1.5 -38.5t7.5 -35t17 -28q9 -11 18.5 -13.5t17.5 2t16 14t14 21.5q19 36 33 99z" />
    <glyph glyph-name="H" unicode="H" horiz-adv-x="453" 
d="M478 325q8 -3 11.5 -10t1.5 -15q0 -1 -4.5 -14t-12.5 -33.5t-18.5 -46.5t-22.5 -53q-15 -32 -29 -57.5t-27 -44.5q-37 -52 -70 -52h-2q-7 0 -16 4.5t-17 18.5q-11 17 -18 47t-11 77q-6 58 -6 137q-8 -8 -16 -15.5t-17 -14.5q-29 -26 -60.5 -47t-61.5 -36q-2 -1 -4.5 -2
t-5.5 -2q-1 -63 -0.5 -104t0.5 -42q-1 -12 -13 -18.5t-27 -7t-27 5.5t-13 19v126h-8q-20 2 -31 14.5t-11 30.5q0 8 6 14t14 6t14 -6t6 -14q0 -3 1 -3q0 -2 10 -2q1 32 1.5 66t2.5 70q8 138 21 226q19 117 51 150q10 10 19.5 12.5t15.5 2.5q24 0 36.5 -9t18.5 -19
q19 -34 1 -104q-6 -26 -17.5 -57.5t-27.5 -67.5l-35 -73l-3 -57q-2 -29 -2.5 -58t-1.5 -57q29 15 63 39t69 59l16 16t16 17q1 41 4 85t7.5 83.5t10 71.5t13.5 50q13 29 38 41q26 14 52 5q28 -9 39 -39q12 -30 1 -73q-23 -95 -80 -179l-3 -5l-2 -49q-1 -46 -1.5 -93t1 -85.5
t5.5 -63t12 -24.5q4 0 10.5 8.5t15 22.5t18 33t18.5 40q12 26 22.5 51.5t18 45.5t12 32.5l4.5 12.5q2 8 9.5 11.5t15.5 1.5zM363 574q1 7 2.5 22.5t1 26.5t-5 12.5t-13.5 -20.5q-8 -17 -13.5 -55.5t-10.5 -91.5q12 24 22 50.5t17 55.5zM92 502q23 63 31.5 106t7 54.5
t-11 -14.5t-21.5 -101z" />
    <glyph glyph-name="I" unicode="I" horiz-adv-x="211" 
d="M238 325q8 -3 11.5 -10t0.5 -15q0 -1 -4.5 -14t-12.5 -33.5t-18.5 -46.5t-22.5 -53q-14 -32 -28 -57.5t-27 -44.5q-37 -52 -70 -52h-2q-6 0 -14 3t-16 12q-5 6 -11 16.5t-10.5 31t-8 53t-3.5 81.5q-1 59 2 120t6 109q2 19 3 32t1 24t11.5 20t25 11.5t26.5 -3.5t16 -24
q2 -11 0.5 -27t-3.5 -36q-3 -46 -6 -105.5t-2 -116.5q0 -59 2.5 -90.5t10.5 -36t22.5 19.5t38.5 77q12 26 22 51.5t18 45.5q9 24 16 45q7 18 26 13zM47 550q-9 0 -16.5 5t-13.5 12q-11 11 -23 29q-2 4 -7 11.5t-10 17.5t-9.5 20.5t-5.5 19.5q-3 17 4 25t16 10
q15 4 27.5 -6.5t23.5 -23.5l4 -6q21 21 41 14q5 -2 10.5 -6.5t7.5 -16.5q1 -9 0 -21q-3 -23 -13 -48q-5 -11 -12.5 -23t-21.5 -13h-2zM33 611q6 -9 11 -14q2 3 3.5 8t3.5 12q1 1 1 2q-6 -8 -16 -8h-3z" />
    <glyph glyph-name="J" unicode="J" horiz-adv-x="355" 
d="M378 325q8 -2 12 -9.5t2 -15.5q-30 -100 -101 -161q-18 -15 -36.5 -27t-37.5 -22q-7 -97 -21 -166q-31 -159 -101 -178q-20 -5 -34 -5q-21 0 -40 8.5t-33 25.5q-14 16 -22.5 37t-11 45t1.5 49.5t14 49.5q20 50 72 87q22 16 46 28t50 24l3 53q-113 51 -137 145
q-16 59 7 134q18 60 58 123q32 51 62.5 87.5t44.5 50.5l1 1q9 10 21 5q12 -3 14 -17q0 -1 2.5 -38.5t5 -99t4 -140.5t0.5 -161q-1 -26 -1.5 -51.5t-2.5 -49.5q43 26 78 66t55 108q3 8 10 12t15 2zM42 303q18 -69 101 -111q2 55 2 109.5t-1 104.5t-3 94.5t-4 78.5
q-8 -11 -17 -23.5t-17 -26.5q-14 -23 -28 -51t-24 -57.5t-13 -59.5t4 -58zM18 -199q18 -21 33 -13.5t27 28t20.5 46t11.5 39.5q15 59 24 148q-43 -20 -76.5 -44t-50.5 -64q-8 -19 -11 -38.5t-1.5 -38.5t7 -35t16.5 -28z" />
    <glyph glyph-name="K" unicode="K" horiz-adv-x="450" 
d="M474 325q8 -2 12 -9.5t1 -15.5q0 -1 -4.5 -14t-12 -33t-18 -46t-23.5 -53q-16 -32 -31.5 -58t-31.5 -45q-29 -35 -60 -47q-5 -3 -10 -3q-5 -1 -9 -1.5t-9 -0.5q-50 0 -91 34q-17 15 -31 33l-28 36q-15 22 -31 40q-7 -7 -13.5 -11.5t-12.5 -9.5q0 -45 -3 -67t-3 -23
q3 -13 -9 -21.5t-26.5 -11t-27 2t-11.5 18.5v90q-34 6 -51 29q-20 29 -4 59q17 30 57 35l3 89q8 138 21 226q19 117 51 150q10 10 19.5 12.5t15.5 2.5q24 0 36.5 -9t18.5 -19q19 -34 1 -104q-6 -26 -17.5 -57.5t-27.5 -67.5l-35 -73l-3 -57q-2 -25 -2.5 -49t-1.5 -47
q19 -3 38 -13q7 8 13 16.5t13 19.5q32 46 62.5 101t60.5 112q22 42 42.5 79.5t39.5 66.5q23 38 40.5 55.5t34.5 19.5q18 2 30 -13q5 -6 4.5 -14.5t-6.5 -13.5q-12 -10 -26 0q-2 -2 -5.5 -5t-8.5 -9q-7 -8 -14.5 -19t-16.5 -25q-18 -29 -38 -65t-41 -76q-29 -54 -60.5 -111
t-63.5 -105q-12 -19 -27 -37q17 -15 30.5 -32.5t26.5 -34.5q15 -21 30.5 -40.5t32 -29.5t34 -7t38.5 28q30 34 58 94q13 26 23 51.5t17.5 45t11.5 32l4 12.5q3 8 10 11.5t15 1.5zM91 502q22 62 30 104.5t6.5 54t-10.5 -14t-20 -99.5zM-27 161q6 -8 18 -12q1 11 1 21v21
q-16 -3 -20 -13q-5 -8 1 -17z" />
    <glyph glyph-name="L" unicode="L" horiz-adv-x="381" 
d="M407 325q8 -2 12 -9.5t1 -15.5q0 -1 -4.5 -13.5t-11.5 -33t-17.5 -46t-22.5 -52.5q-73 -154 -141 -154q-32 0 -59.5 6t-52.5 15.5t-46.5 21t-40.5 22.5l-7 3q-6 -11 -15 -21q-17 -20 -40.5 -34t-53.5 -14h-8q-19 0 -32.5 8t-20.5 21q-11 22 -2.5 51t43.5 49q22 13 48 13
q20 1 38 0l4 20q10 48 16.5 106t13.5 118q6 60 12.5 115.5t15.5 99.5q12 49 25 75q19 36 50 36q23 0 36 -9t18 -19q21 -34 6 -104q-11 -53 -39 -124q-12 -30 -24 -57.5t-23 -48.5q-5 -54 -12.5 -104.5t-21.5 -95.5q-2 -7 -4 -13.5t-4 -13.5q28 -8 57.5 -28t59 -35t58.5 -15
t55 33q13 17 26.5 40.5t27.5 53.5q12 26 22.5 51t17.5 44.5t11 32l4 12.5q3 8 10 11.5t15 1.5zM-118 48q5 -8 17.5 -8t29.5 8q7 3 15 14t17 35q-7 2 -12.5 3.5t-11.5 1.5q-2 0 -5 -0.5t-5 -0.5q-2 -1 -5 -1q-4 -1 -7 -2t-7 -3q-20 -12 -25 -25.5t-1 -21.5zM98 479
q15 36 24 70.5t13 60.5t3.5 42t-3.5 16t-9.5 -19.5t-13.5 -63.5q-4 -23 -7.5 -50t-6.5 -56z" />
    <glyph glyph-name="M" unicode="M" horiz-adv-x="812" 
d="M837 328q8 -3 11.5 -10t1.5 -15q0 -1 -4.5 -14t-12.5 -33.5t-18.5 -46.5t-22.5 -53q-14 -32 -28 -58t-27 -45q-12 -18 -28.5 -36t-42.5 -18q-25 0 -44 19q-16 17 -24 48.5t-10 82.5q-2 42 0.5 90.5t5.5 97.5q4 52 6 102.5t0 94.5q-3 89 -27 113q-8 8 -22 8
q-19 -2 -42 -20.5t-48 -51.5q-22 -30 -42 -64q7 -25 12.5 -52.5t8.5 -56.5q8 -54 8 -107t-7 -97q-17 -106 -67 -119q-21 -5 -41 -2t-38 21q-33 39 -19 137q6 42 20.5 89.5t34.5 96.5q5 12 10 23.5t10 22.5l-3 15q-14 63 -30 101t-35 45t-39.5 -22t-43.5 -100
q-21 -64 -39 -143t-34 -154q-12 -57 -23.5 -101.5t-18.5 -83.5q-2 -12 -16 -21.5t-29.5 -13.5t-28 0.5t-12.5 21.5v26.5v67.5t1 96t4 112q8 138 21 226q19 117 51 150q10 10 19.5 12.5t15.5 2.5q24 0 36.5 -9t18.5 -19q19 -34 1 -104q-14 -54 -45 -125l-35 -73l-3 -57
q-2 -37 -3 -72.5t-2 -68.5l9 42q8 37 16.5 76.5t17.5 78.5t19 76t21 70q22 70 48 110q33 50 73 50q34 0 64 -27q24 -23 44 -64l12 -27q6 11 12.5 20t13.5 18q64 84 119 88q22 0 44.5 -4t41.5 -23q40 -40 47 -153q2 -48 0 -101t-5 -107q-3 -50 -5 -95.5t0 -83.5q2 -48 9 -61
t18.5 -2.5t26 40t31.5 67.5q12 27 22 52.5t17.5 45.5t12 32.5l4.5 12.5q2 8 9.5 11.5t15.5 1.5zM316 237q-2 -15 -1.5 -40.5t4 -44t10.5 -22t18 26.5q12 31 18 85q3 36 2.5 76.5t-5.5 81.5q-35 -89 -46 -163zM99 502q24 64 33 107t7.5 54t-11.5 -15t-23 -101z" />
    <glyph glyph-name="N" unicode="N" horiz-adv-x="601" 
d="M626 328q8 -3 11.5 -10t1.5 -15q0 -1 -4.5 -14t-12.5 -33.5t-18.5 -46.5t-22.5 -53q-14 -32 -28 -58t-27 -45q-36 -54 -71 -54q-25 0 -44 19q-16 17 -24 48.5t-10 82.5q-2 42 0.5 90.5t5.5 97.5q4 52 6 102.5t0 94.5q-3 89 -27 113q-8 8 -19 8h-3q-33 -3 -64 -45
q-15 -20 -30.5 -49.5t-30.5 -67.5q-28 -72 -50.5 -156.5t-42.5 -163.5q-11 -47 -21 -86t-20 -68q-5 -18 -17.5 -23t-26 -2.5t-24.5 10t-12 15.5v26.5v67.5t1 96t4 112q8 138 21 226q19 117 51 150q10 10 19.5 12.5t15.5 2.5q24 0 36.5 -9t18.5 -19q19 -34 1 -104
q-6 -26 -17.5 -57.5t-27.5 -67.5l-35 -73l-3 -57q-2 -40 -3 -78.5t-2 -73.5q2 6 2 9q20 81 43 166t52 160q17 42 33 73t33 54q43 55 93 60h4q51 1 83 -31q24 -25 35.5 -65t14.5 -89t0.5 -105t-6.5 -112q-4 -45 -6.5 -87t-0.5 -77q2 -48 9 -62t17.5 -3.5t25 40.5t32.5 68
q12 27 22 52.5t17.5 45.5t12 32.5l4.5 12.5q2 8 9.5 11.5t15.5 1.5zM101 502q23 61 31.5 102.5t7 52.5t-11 -13.5t-21.5 -96.5z" />
    <glyph glyph-name="O" unicode="O" horiz-adv-x="528" 
d="M527 212q-24 -38 -59 -65q-42 -32 -90 -47q-55 -98 -143 -100h-4q-61 0 -102 47q-35 39 -55 113l-4 18q-30 32 -48 70q-16 32 -21.5 76.5t-0.5 94.5q5 53 21.5 100t41.5 83q32 45 77 70q46 25 107 20q49 -6 88 -42q17 -16 31.5 -38t26.5 -49q21 -50 31 -111.5t8 -128.5
q-3 -95 -31 -171q46 23 78.5 63.5t48.5 95.5q2 8 9.5 12t15.5 2t11.5 -9t1.5 -15q-14 -50 -39 -89zM392 324q2 62 -7 120t-29 103q-7 17 -17.5 34.5t-24 32.5t-31.5 25.5t-40 12.5q-89 9 -147 -73q-24 -35 -38 -78t-18.5 -86t0 -82.5t17.5 -66.5q-6 76 3 157q3 31 7 57.5
t12 48.5q13 37 33.5 53t37.5 16.5t26 -12t0 -30.5q-1 0 -6 -7t-12 -30q-11 -38 -17 -90q-8 -60 -6.5 -120.5t12.5 -111.5q2 -8 4 -17l4 -18q35 -20 75 -29.5t83 -5.5q9 2 18.5 3.5t18.5 3.5q19 38 29.5 87t12.5 103zM176 108q29 -56 63.5 -62.5t82.5 42.5h-6q-72 -8 -140 20
z" />
    <glyph glyph-name="P" unicode="P" horiz-adv-x="589" 
d="M613 325q8 -2 12 -9.5t2 -15.5q0 -1 -4.5 -14t-13.5 -34t-23.5 -47t-33.5 -54q-48 -68 -103 -104q-74 -48 -159 -48q-17 0 -39.5 11t-37.5 24q-36 30 -65 79q-25 43 -41.5 90.5t-27.5 87.5l-3 -67q-4 -62 -9 -116t-13 -100q96 9 191 -47q7 -4 9.5 -11.5t-2.5 -15.5
q-4 -7 -12 -9.5t-15 2.5q-52 30 -96.5 37.5t-80.5 1.5q-3 -17 -6.5 -31.5t-6.5 -28.5q-18 -72 -43 -112q-29 -48 -72 -53h-11q-35 0 -51 14.5t-21 25.5q-14 35 7 81q9 21 24.5 41.5t35.5 38.5q12 11 28.5 22t37.5 21q10 54 16.5 121.5t10.5 147.5q4 81 5 157t0 135t-2 95
t-1 37q-2 11 10 20t27 11.5t28.5 -4t14.5 -25.5q0 -1 1.5 -51t2.5 -128q17 36 33.5 65t33.5 52q54 75 106 75q13 0 29 -5.5t32.5 -20t33 -40.5t31.5 -68q19 -54 29.5 -122t12.5 -139q1 -57 -5.5 -108t-18.5 -89q-8 -25 -20 -45q80 32 139 118q18 25 31 50t21.5 44.5
t12.5 31.5l4 12q2 8 9.5 11.5t15.5 1.5zM221 81q28 -30 48.5 -30.5t34.5 19t22.5 55t13.5 78.5q7 64 2.5 136t-18.5 138q-20 90 -42.5 130t-50 33.5t-60 -57.5t-72.5 -142q-1 -2 -2 -3.5t-2 -3.5v-6q0 -4 -1 -5q1 -11 7.5 -50.5t21.5 -93.5q7 -24 16.5 -50.5t21.5 -53
t27 -51t33 -43.5zM-126 -203q7 -13 19 -8t25 24.5t24.5 50.5t17.5 69q-10 -6 -17 -11.5t-12 -9.5q-36 -32 -50 -65t-7 -50z" />
    <glyph glyph-name="Q" unicode="Q" horiz-adv-x="596" 
d="M621 325q8 -2 12 -9.5t2 -15.5q-11 -41 -38 -96.5t-69 -105.5q-17 -22 -35.5 -38.5t-37.5 -28.5l11 -23q20 -48 30.5 -100t7.5 -91q-2 -24 -8.5 -38.5t-15 -22t-17 -9.5t-13.5 -2q-29 0 -50 24q-42 47 -54 194q-3 19 -3 41q-2 0 -3 0.5t-3 0.5q-30 2 -43.5 15t-18.5 24
q-8 18 -5.5 38.5t14.5 37.5q11 13 24.5 19t29.5 3h1q0 51 3 108q1 36 3 71t4 68l-22 -73q-2 -5 -3.5 -10.5t-3.5 -10.5q0 -23 -1.5 -29.5t-3.5 -9.5q-3 -6 -11 -9q-15 -43 -30 -78.5t-31 -64.5q-56 -105 -115 -105q-11 0 -23.5 4t-25 15.5t-24.5 31t-22 50.5
q-13 39 -19.5 92t-6.5 113q0 71 8.5 138t25.5 121q8 29 19 52t23 40q30 41 69 41q34 0 61 -21q24 -20 42 -52q13 -23 22.5 -50t16.5 -55.5t11.5 -56.5t7.5 -52q12 44 22 83.5t17 69.5t10.5 48l3.5 18q0 14 14.5 21t31 6.5t29 -8.5t8.5 -25q0 -1 -3.5 -33.5t-8.5 -86.5
t-9.5 -123t-7.5 -143q-2 -40 -2 -77v-71q5 -5 9 -11l8 -12q19 12 34.5 27t27.5 30q19 23 35 48t28.5 50t21.5 48t14 42q2 8 9.5 12t15.5 2zM208 123q35 65 72 178q0 22 -2 55t-7 71q-10 70 -27 121.5t-40 79.5q-15 20 -28 19t-23.5 -15t-19 -37t-15.5 -47
q-13 -43 -20.5 -95.5t-9.5 -109.5q-2 -54 1.5 -104.5t12.5 -91.5q9 -39 19 -63.5t23 -30t28.5 11t35.5 58.5zM462 -194q7 0 6 21t-6.5 50.5t-14.5 61.5t-18 54q-3 8 -8 17q0 -21 2 -55.5t6.5 -67.5t12.5 -57t20 -24zM311 60q7 -13 30 -15l-2 56l-7 2h-3q-7 0 -13 -8
q-6 -7 -7 -17t2 -18z" />
    <glyph glyph-name="R" unicode="R" horiz-adv-x="505" 
d="M531 328q17 -7 12 -26q-14 -36 -33 -85t-41 -95q-32 -65 -58 -94t-52 -29h-12q-49 0 -70 41q-8 16 -11 34.5t-5 37.5q-3 26 -7.5 48t-19.5 33q-20 14 -66 5q-3 0 -5 -1q-19 -3 -24 16q-3 19 16 24q4 0 5 1q45 9 79.5 36.5t59 65t39 81.5t19.5 86q5 58 -7 98
q-9 28 -19.5 35.5t-22 0t-24.5 -27.5t-28 -47q-22 -39 -43.5 -93.5t-44.5 -123.5q-17 -51 -31 -100t-25 -91.5t-19 -75.5t-12 -50q0 -17 -12.5 -26.5t-27.5 -11.5t-27.5 4t-12.5 21v26.5v67.5t1 96t4 112q8 138 21 226q19 117 51 150q10 10 19.5 12.5t15.5 2.5q24 0 36.5 -9
t18.5 -19q19 -34 1 -104q-6 -26 -17.5 -57.5t-27.5 -67.5l-35 -73l-3 -57q-2 -33 -3 -65t-1 -61q9 35 20.5 74.5t25.5 81.5q23 72 46 129t45 99q60 112 119 112q45 0 72 -38q11 -17 18 -39t9 -48q5 -52 -7.5 -110t-40.5 -109q-30 -57 -75 -94q-7 -6 -13.5 -10.5t-13.5 -9.5
q3 -2 5.5 -3.5t4.5 -3.5q25 -20 29 -52t4 -63q2 -84 27 -81t76 106q22 45 40.5 92.5t31.5 83.5q3 8 10.5 11.5t15.5 0.5zM101 502q23 63 32 107t7.5 55.5t-11 -15t-22.5 -102.5z" />
    <glyph glyph-name="S" unicode="S" horiz-adv-x="445" 
d="M470 325q8 -2 12 -9.5t2 -15.5q0 -1 -4.5 -14t-13.5 -34t-23.5 -47t-33.5 -54q-45 -66 -103 -104q-37 -24 -84 -35.5t-94 -11.5q-34 0 -63 14.5t-49 34.5q-19 19 -30.5 52t-14.5 70.5t4 75t24 65.5q6 11 15 13.5t15.5 0.5t10 -8t-0.5 -12q-15 -21 -21.5 -53t-5.5 -66
t9.5 -64t24.5 -47q16 -18 37 -23.5t42.5 -1t42 17t35.5 30.5q18 20 26 43t6 46t-14.5 44t-31 39.5t-40.5 36t-44 33.5q-26 19 -48.5 37t-36.5 38q-29 40 -31 98q-1 26 5.5 51.5t19.5 47.5q22 40 56 61q16 9 37 15t42.5 5.5t40.5 -9t30 -28.5q15 -23 17 -53t-1 -54
q-4 -30 -11 -54t-13 -38q-4 -8 -11.5 -11t-15.5 1t-10.5 11.5t0.5 15.5q6 13 12 34.5t9 45t1 45t-11 35.5q-10 17 -34 17q-15 0 -26.5 -5t-20 -12.5t-14.5 -16t-9 -15.5q-9 -17 -13.5 -37.5t-3.5 -42.5t7 -43.5t20 -40.5q11 -16 32 -32.5t45 -33.5q24 -18 48 -36.5t44 -39.5
q48 -51 54 -105q3 -29 -6 -58.5t-29 -55.5q52 32 97 96q18 25 30.5 50t21 44.5t12.5 31.5l4 12q2 8 9.5 11.5t15.5 1.5z" />
    <glyph glyph-name="T" unicode="T" horiz-adv-x="211" 
d="M236 325q8 -3 11.5 -10t0.5 -15q0 -1 -4.5 -14t-12.5 -33.5t-18.5 -46.5t-22.5 -53q-14 -32 -28 -57.5t-27 -44.5q-37 -52 -70 -52h-2q-13 1 -22 9t-15 21t-9.5 28.5t-5.5 30.5q-5 31 -7.5 74t-3.5 98q-1 49 0 100.5t2.5 99.5t3.5 90.5t4 73.5v3q-32 1 -64 1t-58 -3
q-59 -7 -73 -32q-5 -11 -17 -11q-4 0 -10 2q-8 5 -10 12.5t2 14.5q12 22 35.5 34t55 17.5t67.5 5.5t74 -1v6q-2 10 7.5 18.5t23 11t27.5 -4t22 -27.5q1 -2 -1 -6q11 -1 20.5 -0.5t18.5 1.5q28 2 40.5 6t16.5 9q5 4 5 12t6 14t14 6t14 -6t6 -14q0 -24 -17 -41
q-18 -17 -50.5 -22.5t-74.5 -4.5q0 -2 -1 -3q-1 -28 -2.5 -64.5t-3 -78.5t-2.5 -86.5t-1 -89.5q0 -71 -1 -126.5t5 -80.5t21.5 -10.5t48.5 83.5q12 26 22 52t18 46q9 24 16 45q3 8 10.5 12t15.5 1z" />
    <glyph glyph-name="U" unicode="U" horiz-adv-x="520" 
d="M546 325q8 -3 11.5 -10t0.5 -15q0 -1 -4.5 -14t-12.5 -33.5t-18.5 -46.5t-22.5 -53q-14 -32 -28 -57.5t-27 -44.5q-37 -52 -70 -52h-2q-13 1 -22 9.5t-15 21t-9.5 28.5t-5.5 31q-5 31 -7.5 73.5t-3.5 98.5v36q-25 -113 -60 -184q-54 -114 -129 -114q-35 0 -59 26
q-30 32 -45 100q-6 29 -10 64t-6 79q-2 39 -2 80.5t1 83t2.5 82t3.5 76.5q2 24 2 45.5t2 41.5q1 12 13.5 21t26.5 10.5t26 -6t14 -26.5q2 -20 0 -42t-4 -46q-2 -36 -3.5 -76.5t-2.5 -82.5t-1 -83.5t2 -80.5q3 -87 15 -136t29.5 -65t38 -2t41.5 53t40.5 99t34.5 136
q11 55 18.5 108.5t12.5 98t7.5 75t3.5 40.5v3q-1 9 9 19.5t23.5 14t27 -3.5t20.5 -32q2 -8 0.5 -20t-2.5 -29q-2 -28 -3.5 -65t-3 -78.5t-2.5 -86.5t-1 -89q0 -47 -0.5 -88.5t0.5 -72t4.5 -48t11.5 -16.5t22 22t36 67q12 26 22 52t18 46q9 24 16 45q3 8 10.5 12t15.5 1z" />
    <glyph glyph-name="V" unicode="V" horiz-adv-x="516" 
d="M540 325q8 -2 12 -9.5t1 -15.5q-8 -27 -22.5 -51t-32.5 -43q-19 -19 -41 -32t-46 -18q-46 -9 -86 5q-33 -65 -69 -103q-56 -59 -118 -59q-37 0 -64 37q-21 28 -35.5 76t-23 106.5t-11 123t-0.5 127t8.5 118t16.5 95.5q3 13 16.5 19.5t28 5.5t25 -9.5t8.5 -26.5
q-4 -32 -9.5 -72.5t-9.5 -87t-5.5 -96.5t1.5 -99q4 -51 10.5 -96t16.5 -80q8 -27 17.5 -49t23 -32.5t31.5 -5.5t44 33q17 17 32.5 40t29.5 51q-29 16 -54 45q-25 26 -39 69.5t-16 99.5q-2 53 7.5 103.5t26.5 92.5q21 49 51.5 74.5t66.5 25.5q16 0 34.5 -9.5t31.5 -41.5
q17 -40 17 -107q0 -38 -5 -80t-14.5 -85.5t-23 -86t-29.5 -80.5q27 -8 59 -2q38 8 68.5 39.5t44.5 77.5q2 8 9.5 11.5t15.5 1.5zM306 214q16 36 28.5 76.5t21.5 81.5t14 81t5 76q0 21 -2 42.5t-7.5 38t-13.5 27t-20 10.5q-16 0 -29 -8t-23 -19.5t-17.5 -25t-11.5 -23.5
q-17 -40 -24.5 -87.5t-6 -92.5t12.5 -83t31 -59q21 -22 42 -35z" />
    <glyph glyph-name="W" unicode="W" horiz-adv-x="765" 
d="M791 325q8 -2 12 -9.5t1 -15.5q-8 -27 -22.5 -51t-32.5 -43q-19 -19 -41 -32t-46 -18q-23 -5 -45.5 -3.5t-45.5 9.5q-30 -62 -60 -100q-50 -63 -102 -63q-41 0 -79 52q-15 20 -29 48t-27 62q-29 -66 -61 -105q-45 -57 -95 -57q-14 0 -33 8t-36 35q-19 29 -29 72t-15 87.5
t-5.5 85t0.5 65.5q1 49 7 99.5t14.5 96.5t19.5 85.5t22 66.5q3 8 18 13t29.5 2.5t23.5 -13.5t1 -35q-10 -28 -19.5 -67t-17.5 -84.5t-13 -95.5t-5 -100q-2 -104 14 -177q3 -11 6 -25t8.5 -28t13 -26t18.5 -19q26 12 53.5 51.5t52.5 100.5l9 23q-17 58 -26.5 117t-9.5 108
q0 56 14 90q11 29 28.5 37t28.5 8q9 0 23 -6.5t24 -30.5q10 -28 10 -69t-8.5 -91t-22.5 -102q5 -19 10.5 -37t11.5 -35q5 -15 12.5 -36.5t17 -43.5t21.5 -40.5t26 -27t30 -4t35 29.5q29 35 55 93q-13 8 -25.5 18.5t-23.5 23.5q-25 26 -39 69.5t-16 99.5q-2 53 7.5 103.5
t26.5 92.5q21 49 51.5 74.5t66.5 25.5q12 0 31 -8t32 -38q16 -38 16 -99q0 -36 -5 -78t-15 -86.5t-23.5 -89t-29.5 -85.5l-2 -4q35 -11 66 -4q38 8 68.5 39.5t44.5 77.5q2 8 9.5 11.5t15.5 1.5zM552 218q16 39 29 82t22 85.5t14 82.5t5 74q0 52 -13 83q-7 17 -14.5 19.5
t-11.5 2.5q-16 0 -29 -8t-23 -19.5t-17.5 -25t-11.5 -23.5q-17 -40 -24.5 -87.5t-6 -92.5t12.5 -83t31 -59q8 -10 17.5 -17.5t18.5 -14.5zM296 373q5 28 9 53t2 48q-2 37 -7.5 55t-9.5 15t-5.5 -28.5t3.5 -75.5q2 -16 4 -33z" />
    <glyph glyph-name="X" unicode="X" horiz-adv-x="377" 
d="M404 325q8 -3 11.5 -10t0.5 -15q0 -1 -4.5 -14t-12.5 -33.5t-18.5 -46.5t-22.5 -53q-14 -32 -28 -57.5t-27 -44.5q-37 -52 -70 -52h-2q-39 1 -100 87q-43 61 -78 139q-42 -54 -69 -106t-27 -100q0 -8 -6 -14t-14 -6t-14 6t-6 14q0 38 15.5 80t47.5 93q12 19 26 37.5
t29 37.5q-17 43 -31 89q-9 32 -17 70.5t-11 80t0 85.5t15 86q4 13 18.5 20t29.5 6t25.5 -10t4.5 -28q-13 -42 -15 -86.5t3 -87.5t14.5 -83t20.5 -72l22 26q34 40 68 81.5t60 81.5t42.5 79t16.5 75q0 8 6 14t14 6t14 -6t6 -14q0 -75 -63 -172q-28 -43 -63 -86t-71 -85
l-36 -44q16 -42 35.5 -82t41.5 -75q26 -41 42 -59.5t29.5 -15t28 30.5t37.5 77q12 26 22 52t18 46q9 24 16 45q3 8 10.5 12t15.5 1z" />
    <glyph glyph-name="Y" unicode="Y" horiz-adv-x="548" 
d="M573 325q8 -2 12 -9.5t2 -15.5q-30 -101 -102 -161q-17 -15 -35.5 -27t-37.5 -22q-7 -97 -21 -166q-31 -159 -101 -178q-20 -5 -34 -5q-21 0 -40 8.5t-33 25.5q-14 16 -22.5 37t-11 45t1 49.5t14.5 49.5q20 50 72 87q21 16 45 28t50 24q3 33 4.5 68.5t2.5 74.5
q1 57 0.5 111t-2.5 103q-4 -26 -8.5 -53.5t-9.5 -55.5q-14 -73 -31.5 -130.5t-37.5 -99.5q-54 -114 -130 -114q-33 0 -59 26q-28 30 -45 100q-6 29 -10 64t-6 79q-2 39 -2 80.5t1 83t3 82t4 76.5q1 24 1.5 45.5t2.5 41.5q1 9 12.5 17.5t25.5 11t26.5 -3.5t15.5 -26t0 -42
t-4 -46q-2 -36 -4 -76.5t-3 -82.5t-1 -83.5t2 -80.5q7 -130 30 -177.5t52.5 -28.5t61 95.5t55.5 195.5q12 60 20 118.5t13 104t7 74l2 28.5q2 9 14 18t26.5 12t27.5 -3t18 -26q0 -1 2.5 -38.5t5 -99t4 -140.5t0.5 -161q-1 -26 -1.5 -51t-2.5 -49q43 26 78 66t55 108
q2 8 9.5 12t15.5 2zM312 -69q5 26 9 55.5t7 62.5q-42 -20 -75.5 -43.5t-51.5 -64.5q-8 -19 -11 -38.5t-1.5 -38.5t7.5 -35t17 -28q13 -16 25.5 -15t22.5 12.5t18.5 30t15 38.5t11 37.5t6.5 26.5z" />
    <glyph glyph-name="Z" unicode="Z" horiz-adv-x="545" 
d="M570 324q8 -2 11.5 -9.5t1.5 -15.5q-15 -49 -35.5 -84.5t-44 -60.5t-49.5 -42.5t-52 -30.5l5 -17q5 -21 7 -43t0 -45q-3 -45 -19.5 -87t-42.5 -75q-28 -35 -62 -54t-71 -19h-4q-23 1 -42 13.5t-30 33.5q-19 38 -7 90.5t54 111.5q26 37 59.5 58t68.5 38q-23 48 -69.5 77.5
t-115.5 37.5q-16 2 -18 18t14 21q102 33 171 88t91 120q24 78 -25 148q-13 19 -36.5 35t-53.5 16q-51 0 -90 -16t-67 -42.5t-46 -61t-27.5 -72.5t-11 -76t3.5 -71q1 -8 -4 -13t-12 -5t-14 5t-8 18q-6 49 -5 90.5t10.5 77.5t29.5 68.5t53 64.5q37 35 87.5 55t103.5 18
q51 0 94 -18t66 -50q61 -88 29 -184q-24 -73 -101 -136q-26 -21 -56 -39t-65 -34q25 -8 46 -19q46 -23 76 -62l18 -27q24 12 46.5 27.5t43 38t38 53.5t31.5 74q2 8 9.5 12t15.5 1zM223 -33q-35 -49 -46.5 -91.5t2.5 -69.5q2 -5 8 -12.5t14 -7.5q29 0 54.5 20.5t43.5 53
t28 72t8 78.5q0 18 -5 38q-31 -15 -58.5 -33t-48.5 -48z" />
    <glyph glyph-name="zero" unicode="0" horiz-adv-x="491" 
d="M415 574q25 -47 38.5 -105.5t13.5 -123.5q0 -66 -14 -125t-40 -105q-55 -98 -150 -113q-6 -2 -8 -2h-15q-3 -1 -10 -1q-97 0 -152 93q-29 47 -41 113q-6 32 -9 64.5t-1 67.5q3 71 20 136t46 113q31 51 69 76q43 30 94 27q53 -3 94 -35q38 -29 65 -80zM378 135
q23 42 36 96t13 114q0 59 -12 113.5t-35 96.5q-8 15 -19.5 31.5t-26.5 30t-32.5 22t-36.5 8.5q-18 0 -35 -10t-32.5 -27t-28.5 -40t-24 -50q-22 -52 -31.5 -113.5t-6.5 -124.5q6 -102 44 -167q19 -33 44 -53.5t56 -20.5q25 0 44.5 9t35.5 23t27.5 30.5t19.5 31.5z" />
    <glyph glyph-name="one" unicode="1" horiz-adv-x="306" 
d="M278 41q8 0 14 -6t6 -14t-6 -14t-14 -6l-246 -2q-8 0 -14 6t-6 14t5.5 14t14.5 6l80 1q1 11 2 37.5t2.5 63.5t3 81t2.5 91q2 78 2 133t-1 93t-2.5 60.5t-3.5 34.5q-17 -12 -32 -27q-6 -6 -14.5 -5.5t-14.5 6.5q-5 6 -5 14t6 14q31 30 59 43.5t48 8.5q22 -6 28 -28
q5 -15 7.5 -48.5t4.5 -87.5v-95t-2 -117q-1 -46 -2.5 -89.5t-3 -79.5t-2.5 -63t-2 -40l86 1v0z" />
    <glyph glyph-name="two" unicode="2" horiz-adv-x="458" 
d="M426 41q8 0 14 -6t6 -14t-6 -14t-14 -6l-350 -2h-39q-13 0 -18 12q-6 11 3 22q77 83 139 166.5t104 158.5q45 81 60.5 144.5t1.5 105.5q-5 20 -15 28.5t-22.5 10t-27 -3t-29.5 -10.5q-62 -29 -124 -93q-6 -6 -14.5 -6t-14.5 6q-5 5 -5.5 13.5t5.5 14.5q69 71 136 101
q64 29 114 17q55 -13 72 -65q17 -55 -2 -129q-9 -34 -25 -72.5t-39 -80.5q-38 -69 -93.5 -145.5t-123.5 -153.5l307 1v0z" />
    <glyph glyph-name="three" unicode="3" horiz-adv-x="372" 
d="M203 357q51 -15 86 -45t50 -72q17 -42 7 -88q-9 -46 -41 -82q-43 -46 -111 -63q-16 -4 -32.5 -5.5t-33.5 -2.5q-5 0 -8 -1h-2q-4 0 -8 2q-41 2 -86 12q-8 2 -12 9t-2 15t9 12.5t15 2.5q43 -11 85 -7t75 21.5t53.5 46.5t21.5 69q0 21 -7.5 44.5t-26 44t-48.5 36t-74 21.5
q-13 2 -17 16q-3 12 9 21q78 53 115 114q31 55 21 97q-7 33 -29 49t-51 20.5t-60.5 0.5t-58.5 -11q-8 -2 -15 2t-9 12t2 15t12 9q42 13 88.5 17.5t90.5 -7.5q36 -9 62 -28.5t39 -47.5q14 -29 11 -64t-21 -71q-30 -59 -99 -114z" />
    <glyph glyph-name="four" unicode="4" horiz-adv-x="450" 
d="M327 648q0 13 12 24t26.5 15.5t27 0.5t13.5 -21q3 -72 4 -147.5t1 -147.5t-0.5 -135.5t-1.5 -112t-2 -76.5t-1 -29q-1 -11 -12.5 -16.5t-26 -4t-27 9.5t-14.5 25q0 2 2 61.5t3 161.5q-35 -3 -66 -3q-64 0 -110 10q-103 21 -133 85q-28 58 16 144q22 43 55 86t92 95
q7 6 16.5 7.5t17 -1.5t10.5 -9.5t-4 -14.5q-30 -36 -58.5 -72.5t-48.5 -71t-29 -65.5t-1 -57q11 -36 45 -60.5t85 -32.5q1 0 5 -2q24 -2 51.5 -1t57.5 3q1 86 0.5 173.5t-5.5 178.5z" />
    <glyph glyph-name="five" unicode="5" horiz-adv-x="432" 
d="M259 383q74 -25 114 -83q34 -48 35.5 -103.5t-28.5 -101.5q-40 -61 -124 -84q-45 -12 -97 -12q-31 0 -60 3t-64 11q-8 2 -13 9t-3 15t9 12.5t15 2.5q28 -6 59.5 -9t62.5 -0.5t60 13t54 31.5q23 19 35.5 44t14.5 54q1 46 -20.5 81.5t-56.5 57t-78 28t-85 -3.5
q-18 -3 -29 12q-5 5 -9 19t-4 46q0 19 1 42t4 49q1 12 3 33t5.5 42.5t7.5 40t8 25.5q3 6 10.5 11.5t24 10t44 7.5t70.5 3q22 0 43 -0.5t37.5 -1t26.5 -1.5t11 -1q8 0 14 -6.5t5 -14.5t-7 -13.5t-14 -4.5l-9.5 0.5t-25 1t-35 1t-40.5 0.5q-49 0 -80 -3h-1q-3 -11 -8.5 -45.5
t-10.5 -79.5q-5 -57 -4 -86t4 -38l1 -1q68 7 127 -13z" />
    <glyph glyph-name="six" unicode="6" horiz-adv-x="436" 
d="M364 339q24 -28 37 -63.5t15 -73.5q1 -38 -11 -73t-35 -62q-29 -33 -70.5 -50.5t-88.5 -17.5q-51 0 -90.5 21t-63.5 60q-30 48 -30 112v5q0 1 -0.5 2t-0.5 2q-6 168 33 284q38 110 109 162q48 35 106 41.5t120 -16.5q19 -7 12 -26q-2 -8 -9.5 -11t-15.5 -1
q-60 24 -106 5.5t-79 -61t-53 -99t-29 -108.5l7 5q43 27 98 27h1q89 0 144 -64zM222 40q43 2 73 17.5t48 38.5t25.5 50.5t7.5 54.5q-1 30 -11.5 59t-30 52t-48.5 37t-66 14h-1q-42 0 -68.5 -16.5t-42.5 -35.5q-2 -16 -2 -31.5v-32.5q0 -86 19 -136q28 -71 97 -71z" />
    <glyph glyph-name="seven" unicode="7" horiz-adv-x="418" 
d="M391 648q8 -14 6 -33.5t-12.5 -46.5t-29 -62t-42.5 -80q-27 -49 -53.5 -102t-47.5 -106t-32.5 -103t-7.5 -92q1 -11 -11.5 -16t-28 -2.5t-29 11t-13.5 24.5q-2 48 10.5 99t33.5 103t48 104.5t55 104.5q20 35 37 68t28 59q14 35 14.5 47t-0.5 14q0 1 -0.5 1.5t-0.5 1.5
q-19 3 -50 5t-79 2q-30 0 -58.5 -1t-50.5 -2q-26 -1 -48 -2q-8 -1 -14.5 4.5t-7.5 13.5t5 14.5t14 7.5l14 1t37 2t52.5 1.5t61.5 0.5q59 0 96 -3.5t58.5 -9.5t31.5 -13.5t14 -14.5z" />
    <glyph glyph-name="eight" unicode="8" horiz-adv-x="489" 
d="M408 318q56 -54 56 -130q0 -37 -15 -70t-42 -58q-63 -58 -169 -61h-10q-63 0 -109 22.5t-72 65.5q-25 43 -23 94q1 48 28 95q28 47 78 75l18 9q-43 22 -64 59q-23 39 -22 88t26 91q26 45 70.5 69t100.5 22q86 -2 138 -57q23 -24 36 -55.5t13 -65.5t-12.5 -64t-36.5 -53
q-19 -21 -51 -35q18 -8 33 -18t29 -23zM277 43q27 0 53 12t47 32t34 46t13 55q0 26 -10 51.5t-30.5 46.5t-50.5 35t-69 17q-45 -4 -81 -25t-57 -57q-21 -35 -22.5 -74t17.5 -71q20 -34 60 -51t96 -17zM406 511q0 21 -9 44.5t-25 43.5t-37.5 33t-45.5 13q-44 0 -78 -17.5
t-54 -50.5q-19 -32 -19.5 -69t17.5 -67q16 -26 44 -42t66 -19q39 3 66 16t43.5 31.5t24 40.5t7.5 43z" />
    <glyph glyph-name="nine" unicode="9" horiz-adv-x="435" 
d="M71 361q-24 28 -37 63.5t-15 73.5q-1 38 11 73t35 62q29 33 70.5 50.5t88.5 17.5q51 0 90.5 -21t63.5 -60q30 -48 30 -112v-5q0 -1 0.5 -2t0.5 -2q6 -168 -33 -284q-38 -110 -109 -162q-48 -35 -106 -41.5t-120 16.5q-19 7 -12 26q2 8 9.5 11t15.5 1q60 -24 106 -5.5
t79 61t53 99t29 108.5l-7 -5q-44 -27 -98 -27h-1q-89 0 -144 64zM213 660q-44 -2 -73.5 -17.5t-47.5 -38.5t-25.5 -50.5t-7.5 -54.5q1 -30 11.5 -59t30 -52t48 -37t66.5 -14h1q42 0 68.5 16.5t42.5 35.5q2 16 2 31.5v32.5q0 86 -19 136q-28 71 -97 71z" />
    <glyph glyph-name="dotlessi" unicode="&#x131;" horiz-adv-x="208" 
d="M233 325q8 -3 11.5 -10t1.5 -15q0 -1 -4.5 -14t-12.5 -33t-18.5 -46t-22.5 -53q-15 -32 -28.5 -57.5t-27.5 -44.5q-37 -53 -71 -53q-5 0 -12 2t-14 10q-4 4 -9 12t-9.5 23t-9 38.5t-7.5 59.5q-4 54 -3 95.5t0 57.5q-1 18 11.5 29t28 12.5t28 -6.5t12.5 -27
q-1 -32 -1.5 -73.5t0.5 -78.5t4.5 -62.5t11.5 -25.5q3 0 9 9t14 23.5t17.5 33.5t18.5 39q12 26 22 52t18 46q9 24 17 44q2 8 9.5 11.5t15.5 1.5z" />
    <glyph glyph-name="question" unicode="?" horiz-adv-x="286" 
d="M95 223q48 100 69.5 169t26.5 114t0 70t-9 37q-5 15 -16 28t-27 6q-13 -7 -32 -23t-39 -50q-4 -7 -12 -9t-15 3q-8 4 -10 12t3 15q19 31 41 53.5t46 34.5q52 26 94 1q31 -18 47 -63q14 -47 7 -108q-4 -36 -12.5 -71.5t-24 -73t-38.5 -76t-56 -80.5q-11 -14 -21 -20
t-16.5 -5t-9 10t3.5 26zM108 0q-9 0 -16.5 5t-13.5 12q-11 11 -23 29q-2 4 -7 11.5t-10 17.5t-9.5 20.5t-5.5 19.5q-3 17 4 25t16 10q15 4 27.5 -6.5t23.5 -23.5l4 -6q21 21 41 14q5 -2 10.5 -6.5t7.5 -16.5q1 -9 0 -21q-3 -23 -13 -48q-5 -11 -12.5 -23t-21.5 -13h-2z
M94 61q6 -9 11 -14q2 3 3.5 8t3.5 12q1 1 1 2q-6 -8 -16 -8h-3z" />
    <glyph glyph-name="period" unicode="." horiz-adv-x="173" 
d="M104 0q-9 0 -16.5 5t-13.5 12q-11 11 -23 29q-2 4 -7 11.5t-10 17.5t-9.5 20.5t-5.5 19.5q-3 17 4 25t16 10q15 4 27.5 -6.5t23.5 -23.5l4 -6q21 21 41 14q5 -2 10.5 -6.5t7.5 -16.5q1 -9 0 -21q-3 -23 -13 -48q-5 -11 -12.5 -23t-21.5 -13h-2zM90 61q6 -9 11 -14
q2 3 3.5 8t3.5 12q1 1 1 2q-6 -8 -16 -8h-3z" />
    <glyph glyph-name="colon" unicode=":" horiz-adv-x="181" 
d="M107 0q-9 0 -16.5 5t-13.5 12q-11 11 -23 29q-2 4 -7 11.5t-10 17.5t-9.5 20.5t-5.5 19.5q-3 17 4 25t16 10q15 4 27.5 -6.5t23.5 -23.5l4 -6q21 21 41 14q5 -2 10.5 -6.5t7.5 -16.5q1 -9 0 -21q-3 -23 -13 -48q-5 -11 -12.5 -23t-21.5 -13h-2zM107 390q-9 0 -16.5 5
t-13.5 12q-11 11 -23 29q-2 4 -7 11.5t-10 17.5t-9.5 20.5t-5.5 19.5q-3 17 4 25t16 10q15 4 27.5 -6.5t23.5 -23.5l4 -6q21 21 41 14q5 -2 10.5 -6.5t7.5 -16.5q1 -9 0 -21q-3 -23 -13 -48q-5 -11 -12.5 -23t-21.5 -13h-2zM93 451q6 -9 11 -14q2 3 3.5 8t3.5 12q1 1 1 2
q-6 -8 -16 -8h-3zM93 61q6 -9 11 -14q2 3 3.5 8t3.5 12q1 1 1 2q-6 -8 -16 -8h-3z" />
    <glyph glyph-name="exclam" unicode="!" horiz-adv-x="166" 
d="M43 648q0 13 12 24t26.5 15.5t27 0.5t13.5 -21q4 -108 2.5 -192.5t-5.5 -143t-8 -89.5t-4 -32q-1 -11 -7.5 -17t-14 -6t-15 7t-9.5 24q0 50 -0.5 86t-2 65.5t-3 56.5t-3.5 58t-4.5 70.5t-4.5 93.5zM98 0q-9 0 -16.5 5t-13.5 12q-11 11 -23 29q-2 4 -7 11.5t-10 17.5
t-9.5 20.5t-5.5 19.5q-3 17 4 25t16 10q15 4 27.5 -6.5t23.5 -23.5l4 -6q21 21 41 14q5 -2 10.5 -6.5t7.5 -16.5q1 -9 0 -21q-3 -23 -13 -48q-5 -11 -12.5 -23t-21.5 -13h-2zM84 61q6 -9 11 -14q2 3 3.5 8t3.5 12q1 1 1 2q-6 -8 -16 -8h-3z" />
    <glyph glyph-name="quotedbl" unicode="&#x22;" horiz-adv-x="265" 
d="M35 608q0 13 12 24t26.5 15.5t27 0.5t13.5 -21q1 -30 -1 -62.5t-5.5 -59.5t-6.5 -45t-3 -19q-2 -29 -15.5 -37t-27 10.5t-21.5 65.5t1 128zM165 608q0 13 12 24t26.5 15.5t27 0.5t13.5 -21q1 -30 -1 -62.5t-5.5 -59.5t-6.5 -45t-3 -19q-2 -29 -15.5 -37t-27 10.5
t-21.5 65.5t1 128z" />
    <glyph glyph-name="quotesingle" unicode="'" horiz-adv-x="123" 
d="M27 608q0 13 12 24t26.5 15.5t27 0.5t13.5 -21q1 -30 -1 -62.5t-5.5 -59.5t-6.5 -45t-3 -19q-2 -29 -15.5 -37t-27 10.5t-21.5 65.5t1 128z" />
    <glyph glyph-name="hyphen" unicode="-" horiz-adv-x="322" 
d="M74 198q-13 0 -24 12t-15.5 26.5t-0.5 27t21 13.5q30 1 62.5 -1t59.5 -5.5t45 -6.5t19 -3q29 -2 37 -15.5t-10.5 -27t-65.5 -21.5t-128 1z" />
    <glyph glyph-name="equal" unicode="=" horiz-adv-x="331" 
d="M79 198q-13 0 -24 12t-15.5 26.5t-0.5 27t21 13.5q30 1 62.5 -1t59.5 -5.5t45 -6.5t19 -3q29 -2 37 -15.5t-10.5 -27t-65.5 -21.5t-128 1zM79 368q-13 0 -24 12t-15.5 26.5t-0.5 27t21 13.5q30 1 62.5 -1t59.5 -5.5t45 -6.5t19 -3q29 -2 37 -15.5t-10.5 -27t-65.5 -21.5
t-128 1z" />
    <glyph glyph-name="plus" unicode="+" horiz-adv-x="385" 
d="M139 448q0 13 12 24t26.5 15.5t27 0.5t13.5 -21q1 -23 0.5 -53.5t-2.5 -61.5q35 -3 59.5 -5t26.5 -2q24 -2 36.5 -12t5.5 -22t-38.5 -23t-94.5 -14q-2 -25 -3.5 -41t-1.5 -17q-2 -23 -11.5 -35.5t-21 -9t-23 27.5t-15.5 75q-15 0 -31.5 1t-34.5 3q-13 0 -24 12
t-15.5 26.5t-0.5 27t21 13.5t38.5 0.5t44.5 -1.5q1 39 6 92z" />
    <glyph glyph-name="percent" unicode="%" horiz-adv-x="411" 
d="M293 674q6 12 21.5 17t30.5 3t24.5 -11t3.5 -25q-28 -66 -60.5 -139.5t-65.5 -144.5t-64 -136t-55 -114.5t-38.5 -79t-14.5 -30.5q-5 -9 -13.5 -12t-16 0.5t-11 13t1.5 25.5q32 67 64.5 146.5t65 162.5t64.5 166t63 158zM326 0q-9 0 -16.5 5t-13.5 12q-11 11 -23 29
q-2 4 -7 11.5t-10 17.5t-9.5 20.5t-5.5 19.5q-3 17 4 25t16 10q15 4 27.5 -6.5t23.5 -23.5l4 -6q21 21 41 14q5 -2 10.5 -6.5t7.5 -16.5q1 -9 0 -21q-3 -23 -13 -48q-5 -11 -12.5 -23t-21.5 -13h-2zM120 550q-9 0 -16.5 5t-13.5 12q-11 11 -23 29q-2 4 -7 11.5t-10 17.5
t-9.5 20.5t-5.5 19.5q-3 17 4 25t16 10q15 4 27.5 -6.5t23.5 -23.5l4 -6q21 21 41 14q5 -2 10.5 -6.5t7.5 -16.5q1 -9 0 -21q-3 -23 -13 -48q-5 -11 -12.5 -23t-21.5 -13h-2zM312 61q6 -9 11 -14q2 3 3.5 8t3.5 12q1 1 1 2q-6 -8 -16 -8h-3zM106 611q6 -9 11 -14q2 3 3.5 8
t3.5 12q1 1 1 2q-6 -8 -16 -8h-3z" />
    <glyph glyph-name="slash" unicode="/" horiz-adv-x="372" 
d="M273 674q6 12 21.5 17t30.5 3t24.5 -11t3.5 -25q-28 -66 -60.5 -139.5t-65.5 -144.5t-64 -136t-55 -114.5t-38.5 -79t-14.5 -30.5q-5 -9 -13.5 -12t-16 0.5t-11 13t1.5 25.5q32 67 64.5 146.5t65 162.5t64.5 166t63 158z" />
    <glyph glyph-name="dollar" unicode="$" horiz-adv-x="385" 
d="M146 688q0 13 9 24t20 15.5t20 0.5t10 -21v-13q20 -2 36 -10.5t27 -26.5q15 -23 17 -53t-1 -54q-4 -30 -11 -54t-13 -38q-4 -8 -11.5 -11t-15.5 1t-10.5 11.5t0.5 15.5q6 13 12 34.5t9 45t1 45t-11 35.5q-8 14 -28 17q2 -66 2.5 -135.5t-0.5 -137.5l9 -6q24 -18 48 -36.5
t44 -39.5q48 -51 54 -105q4 -39 -8 -72.5t-35 -58.5t-54.5 -40.5t-67.5 -19.5v-5q-1 -11 -7 -17t-14 -6t-15 6.5t-10 21.5q-54 8 -88 48q-25 29 -36 69t-5 81q2 8 8.5 13t14.5 4q8 -2 13 -8.5t4 -14.5q-5 -32 3 -63.5t28 -53.5q12 -15 27 -21.5t31 -7.5q0 68 0.5 142
t0.5 152q-26 19 -48.5 37t-36.5 38q-29 40 -31 98q-1 26 5.5 51.5t19.5 47.5q22 40 56 61l13 6.5t15 5.5v2zM283 188q-3 32 -25 59.5t-51 51.5q-2 -75 -3.5 -136.5t-3.5 -103.5q14 8 27 17.5t24 22.5q18 20 26 43t6 46zM140 439q4 -8 12 -15q0 53 -1 104t-3 101
q-13 -15 -18 -26q-9 -17 -13.5 -37.5t-3.5 -42.5t7 -43.5t20 -40.5z" />
    <glyph glyph-name="Euro" unicode="&#x20ac;" horiz-adv-x="424" 
d="M79 198q-13 0 -24 12t-15.5 26.5t-0.5 27t21 13.5h20q-3 23 -4 45.5t-1 45.5q-12 2 -22.5 14.5t-14 26.5t0.5 25.5t21 12.5h19q8 83 32 144q13 33 28.5 54t32 33t32 16.5t29.5 4.5q40 0 64 -27q39 -42 33 -134q-2 -19 -21 -19q-8 1 -14 7.5t-5 14.5q2 35 -3.5 62.5
t-18.5 41.5q-4 3 -7.5 6.5t-7.5 3.5q-14 0 -26 -10t-22.5 -28t-18.5 -42.5t-15 -51.5q-5 -19 -8 -39t-5 -41q36 -4 61 -8t27 -4q25 -2 34.5 -12.5t-0.5 -22.5t-40.5 -22t-84.5 -10q0 -23 2 -45.5t5 -45.5q35 -4 58.5 -8t25.5 -4q24 -2 34 -11.5t2.5 -21t-33.5 -21.5t-73 -13
q7 -25 15 -46.5t19 -38.5q17 -30 36 -48t42 -14q21 4 38.5 25t35.5 50q6 10 13.5 11.5t13.5 -3t8.5 -13t-1.5 -16.5q-13 -23 -28.5 -40.5t-31.5 -30.5q-40 -31 -85 -31q-46 0 -82 37q-30 30 -53 87q-14 35 -23 73l-14 2v0z" />
    <glyph glyph-name="numbersign" unicode="#" horiz-adv-x="542" 
d="M89 368q-13 0 -24 12t-15.5 26.5t-0.5 27t21 13.5q15 1 39.5 1h53.5q18 59 38 115.5t42 110.5q6 12 21.5 17t30.5 3t24.5 -11t3.5 -25q-21 -50 -42 -103t-41 -107q26 -1 52.5 -1h50.5q18 59 37.5 116t42.5 111q6 12 21.5 17t30.5 3t24.5 -11t3.5 -25
q-21 -51 -42.5 -104.5t-41.5 -107.5q14 -1 22.5 -1h9.5q18 -1 25 -9t0.5 -18.5t-27 -22.5t-57.5 -21l-38 -103q43 -2 71 -3t29 -1q21 -2 25 -11t-10.5 -21t-49.5 -23.5t-92 -17.5q-28 -79 -45 -129t-17 -51q-5 -9 -13.5 -12t-16 0.5t-11 13t1.5 25.5q11 34 21.5 71.5
t21.5 77.5q-27 -2 -57.5 -1t-65.5 3q-14 -39 -25 -71.5t-19 -56t-12.5 -37l-4.5 -13.5q-5 -9 -13.5 -12t-16 0.5t-11 13t1.5 25.5l45 156q-8 0 -12 1q-13 0 -24 12t-15.5 26.5t-0.5 27t21 13.5h53q6 22 12 43t13 43zM176 277q29 -1 58 -1.5t58 -2.5l25 89q-47 -5 -111 -3z
" />
    <glyph glyph-name="sterling" unicode="&#xa3;" horiz-adv-x="467" 
d="M81 268q-13 0 -24 12t-15.5 26.5t-0.5 27t21 13.5h24q5 72 12 133t14 94q21 103 87 124q61 20 144 -28q30 -17 49.5 -32.5t20.5 -16.5q7 -6 7 -14t-5 -15q-5 -6 -13.5 -6.5t-14.5 5.5q-1 0 -19 14.5t-45 30.5q-26 13 -47 18t-37.5 -2t-28.5 -27.5t-19 -57.5
q-7 -33 -13.5 -94t-11.5 -131q34 -4 57 -7.5t25 -3.5q25 -2 34.5 -12.5t0.5 -22.5t-38.5 -21.5t-82.5 -10.5q-1 -44 0.5 -80.5t3.5 -63.5q1 -7 1.5 -18t3 -22t6.5 -21t11 -15q18 -3 45.5 -3.5t69.5 1.5q25 1 48.5 3t41.5 4t29 3.5l11 1.5q8 2 14.5 -3.5t8.5 -13.5
q1 -8 -4 -14.5t-13 -7.5q-1 0 -12.5 -1.5t-30 -3.5t-42 -4.5t-49.5 -3.5q-15 -1 -29 -1.5t-26 -0.5q-14 0 -26.5 0.5t-23.5 1.5q-57 4 -80 23q-26 21 -33 99q-4 29 -5 64.5t0 79.5h-1v0z" />
    <glyph glyph-name="bracketleft" unicode="[" horiz-adv-x="360" 
d="M56 97q-14 0 -24 3q-34 10 -34 39q0 8 6 14t14 6q18 0 20 -19q2 -2 9.5 -3t18.5 1q19 2 41 13t36 34q6 11 9 19q-25 3 -44 9q-38 11 -47.5 28.5t-8.5 28.5q3 43 41 56q23 7 46.5 -2t39.5 -29q5 -6 11.5 -19t8.5 -32q14 0 27.5 2t27.5 5q40 8 67.5 24t38.5 38
q5 7 12.5 9.5t15.5 -2.5q7 -4 9.5 -11.5t-2.5 -15.5q-16 -29 -50 -50t-83 -32q-17 -3 -34 -5t-34 -3q-2 -9 -6.5 -18t-10.5 -20q-22 -39 -69 -58q-14 -5 -27 -7.5t-25 -2.5zM113 289q-2 0 -8 -2q-2 0 -7 -3.5t-6 -16.5q0 -7 27 -16q9 -2 19 -4t21 -3q-1 14 -11 27
q-8 9 -17.5 13.5t-17.5 4.5z" />
    <glyph glyph-name="bracketright" unicode="]" horiz-adv-x="397" 
d="M340 97q-12 0 -25 2.5t-27 7.5q-47 19 -69 58q-6 11 -10.5 20t-6.5 18q-17 1 -34 3t-34 5q-49 11 -83 32t-50 50q-5 8 -2.5 15.5t9.5 11.5q8 5 15.5 2.5t12.5 -9.5q11 -22 38.5 -38t67.5 -24q14 -3 27.5 -5t27.5 -2q2 19 8.5 32t11.5 19q16 20 39.5 29t46.5 2
q38 -13 41 -56q1 -11 -8.5 -28.5t-47.5 -28.5q-19 -6 -44 -9q3 -8 9 -19q14 -23 36 -34t41 -13q11 -2 18.5 -1t9.5 3q2 19 20 19q8 0 14 -6t6 -14q0 -29 -34 -39q-11 -3 -24 -3zM283 289q-8 0 -17.5 -4.5t-17.5 -13.5q-10 -13 -11 -27q11 1 21 3t19 4q27 9 27 16
q-1 13 -6 16.5t-7 3.5q-6 2 -8 2z" />
    <glyph glyph-name="parenleft" unicode="(" horiz-adv-x="1299" 
d="M524 121q-61 0 -127 6t-131 14l-85.5 9.5t-72.5 5.5q-31 1 -51 -2q-9 -2 -13 -3.5t-5 -2.5q0 -8 -6 -13.5t-14 -5.5t-14 6t-6 14q0 17 13 29q22 21 101 18q33 -2 73 -6t85 -9q57 -6 118 -12.5t118 -7.5t104 5.5t75 25.5q9 5 14.5 12t8.5 15q-18 5 -33.5 9.5t-29.5 9.5
q-30 13 -45 25q-14 12 -16.5 23.5t-1.5 19.5q3 17 9 27.5t13.5 16t14.5 8t12 2.5q32 3 67 -26q16 -14 27.5 -31t18.5 -34q2 -5 2.5 -9t1.5 -8q57 -11 124.5 -15.5t136.5 -2.5q113 3 189 24t99 54q5 7 13 8.5t15 -3.5t8.5 -12.5t-3.5 -14.5q-20 -29 -58.5 -47t-84 -28.5
t-93 -15t-83.5 -5.5q-70 -2 -138 2.5t-126 14.5v-1q-9 -31 -40 -52q-32 -21 -79.5 -29t-104.5 -8zM636 320q-2 0 -6.5 -3t-6.5 -17q0 -2 6.5 -8.5t31.5 -16.5q9 -4 20 -7t23 -7q-5 12 -13.5 22.5t-17.5 19t-18.5 13t-16.5 4.5h-2z" />
    <glyph glyph-name="parenright" unicode=")" horiz-adv-x="1334" 
d="M808 121q-57 0 -104.5 8t-79.5 29q-31 21 -40 52v1q-58 -10 -126 -14.5t-138 -2.5q-36 1 -83.5 5.5t-93 15t-84.5 28.5t-58 47q-5 7 -3.5 14.5t8.5 12.5t15 3.5t13 -8.5q23 -33 99 -54t189 -24q69 -2 136.5 2.5t124.5 15.5q1 4 1.5 8t2.5 9q7 17 18.5 34t27.5 31
q35 29 67 26q5 0 12 -2.5t14.5 -8t13.5 -16t9 -27.5q1 -8 -1.5 -19.5t-16.5 -23.5q-15 -12 -45 -25q-14 -5 -29.5 -9.5t-33.5 -9.5q3 -8 8.5 -15t14.5 -12q28 -19 75 -25.5t104 -5.5t118 7.5t118 12.5q45 5 85 9t73 6q79 3 101 -18q13 -12 13 -29q0 -8 -6 -14t-14 -6
t-14 5.5t-6 13.5q-1 1 -5 2.5t-13 3.5q-20 3 -51 2q-32 -1 -72.5 -5.5l-85.5 -9.5q-65 -8 -131 -14t-127 -6zM694 320q-7 0 -16.5 -4.5t-18.5 -13t-17.5 -19t-13.5 -22.5q12 4 23 7t20 7q25 10 31.5 16.5t6.5 8.5q-2 14 -6.5 17t-6.5 3h-2z" />
    <glyph glyph-name="ampersand" unicode="&#x26;" horiz-adv-x="517" 
d="M493 363q8 -3 10.5 -10.5t-1.5 -15.5q-63 -137 -147 -223q26 -35 43 -55.5t17 -21.5q5 -6 4.5 -14.5t-6.5 -13.5q-7 -5 -15 -4.5t-13 7.5q-1 0 -17 20t-42 54q-50 -45 -91 -61.5t-69 -21.5q-6 -1 -12.5 -1h-12.5q-26 0 -48.5 8t-36.5 25q-48 57 -4 170q16 41 40 84t51 87
q-56 120 -46 191q6 47 32 81q23 30 56 40q20 6 39 3q10 -1 20 -3.5t20 -6.5q31 -14 48 -39q17 -23 18 -51.5t-13 -58.5q-15 -32 -35 -68.5t-43 -75.5l-31 -52q13 -23 27 -46.5t31 -49.5t33.5 -49.5t31.5 -44.5q38 40 72 92t63 116q4 8 11.5 10.5t15.5 -1.5zM160 43
q34 5 70.5 24t71.5 51q-17 23 -34.5 48t-34.5 52q-14 20 -25.5 39t-22.5 38q-16 -30 -29.5 -58.5t-24.5 -55.5q-11 -28 -17 -54.5t-4 -46.5t13.5 -30.5t36.5 -6.5zM137 562q-8 -55 31 -144q21 35 39.5 68t32.5 63q5 11 9.5 28.5t4 34t-8 28t-26.5 11.5q-36 0 -56.5 -26.5
t-25.5 -62.5z" />
    <glyph glyph-name="grave" unicode="`" horiz-adv-x="192" 
d="M26 631q-9 10 -7 26.5t10.5 29.5t20.5 18t24 -8q42 -45 55.5 -69t15.5 -26q17 -24 13.5 -36t-22 -10t-47.5 20t-63 55z" />
    <glyph glyph-name="acute" unicode="&#xb4;" horiz-adv-x="192" 
d="M166 631q-34 -37 -63 -55t-47.5 -20t-22 10t13.5 36q2 2 15.5 26t55.5 69q12 13 24 8t20 -18t10.5 -29.5t-6.5 -26.5z" />
    <glyph glyph-name="hungarumlaut" unicode="&#x2dd;" horiz-adv-x="333" 
d="M170 631q-34 -37 -63 -55t-47.5 -20t-22 10t13.5 36q2 2 15.5 26t55.5 69q12 13 24 8t20 -18t10.5 -29.5t-6.5 -26.5zM302 631q-34 -37 -63 -55t-47.5 -20t-22 10t13.5 36q2 2 15.5 26t55.5 69q12 13 24 8t20 -18t10.5 -29.5t-6.5 -26.5z" />
    <glyph glyph-name="breve" unicode="&#x2d8;" horiz-adv-x="195" 
d="M92 556q-17 0 -28.5 6t-17.5 12q-13 13 -16.5 29t-3.5 26q0 8 6 14t14 6t14 -6t6 -14q0 -9 9.5 -14t21 -5t21.5 5.5t10 17.5q0 8 6 14t14 6t14 -6t6 -14q0 -10 -2.5 -23t-10.5 -25q-7 -10 -21.5 -19.5t-40.5 -9.5h-1v0z" />
    <glyph glyph-name="dotaccent" unicode="&#x2d9;" horiz-adv-x="147" 
d="M86 557q-13 0 -23 14q-10 9 -19 23q-4 6 -14 23.5t-11 32.5q-3 13 2.5 19.5t12.5 8.5q12 3 22.5 -5.5t19.5 -18.5q0 -2 1 -3t1 -2q18 17 34 11l7.5 -5t6.5 -13q1 -9 0 -17q-2 -9 -4 -19.5t-6 -19.5t-10.5 -18.5t-17.5 -10.5h-2v0z" />
    <glyph glyph-name="dieresis" unicode="&#xa8;" horiz-adv-x="304" 
d="M96 556q-13 0 -23 14q-10 9 -19 23q-4 6 -14 23.5t-11 32.5q-3 13 2.5 19.5t12.5 8.5q12 3 22.5 -5.5t19.5 -18.5q0 -2 1 -3t1 -2q18 17 34 11l7.5 -5t6.5 -13q1 -9 0 -17q-2 -9 -4 -19.5t-6 -19.5t-10.5 -18.5t-17.5 -10.5h-2zM236 556q-13 0 -23 14q-10 9 -19 23
q-4 6 -14 23.5t-11 32.5q-3 13 2.5 19.5t12.5 8.5q12 3 22.5 -5.5t19.5 -18.5q0 -2 1 -3t1 -2q18 17 34 11l7.5 -5t6.5 -13q1 -9 0 -17q-2 -9 -4 -19.5t-6 -19.5t-10.5 -18.5t-17.5 -10.5h-2z" />
    <glyph glyph-name="comma" unicode="," horiz-adv-x="152" 
d="M76 -169q-4 0 -6 1q-8 2 -10.5 9.5t-2.5 15.5q1 22 1 51.5t-2.5 55.5t-8.5 42.5t-16 13.5q-8 -2 -14.5 4t-7.5 14q-2 8 3.5 14t13.5 8q41 7 64 -14t30 -55t0 -74t-25 -72q-8 -14 -19 -14z" />
    <glyph glyph-name="semicolon" unicode=";" horiz-adv-x="203" 
d="M125 -169q-4 0 -6 1q-8 2 -10.5 9.5t-2.5 15.5q1 22 1 51.5t-2.5 55.5t-8.5 42.5t-16 13.5q-8 -2 -14.5 4t-7.5 14q-2 8 3.5 14t13.5 8q41 7 64 -14t30 -55t0 -74t-25 -72q-8 -14 -19 -14zM96 390q-9 0 -16.5 5t-13.5 12q-11 11 -23 29q-2 4 -7 11.5t-10 17.5t-9.5 20.5
t-5.5 19.5q-3 17 4 25t16 10q15 4 27.5 -6.5t23.5 -23.5l4 -6q21 21 41 14q5 -2 10.5 -6.5t7.5 -16.5q1 -9 0 -21q-3 -23 -13 -48q-5 -11 -12.5 -23t-21.5 -13h-2zM82 451q6 -9 11 -14q2 3 3.5 8t3.5 12q1 1 1 2q-6 -8 -16 -8h-3z" />
    <glyph glyph-name="quotesinglbase" unicode="&#x201a;" horiz-adv-x="152" 
d="M76 -169q-4 0 -6 1q-8 2 -10.5 9.5t-2.5 15.5q1 22 1 51.5t-2.5 55.5t-8.5 42.5t-16 13.5q-8 -2 -14.5 4t-7.5 14q-2 8 3.5 14t13.5 8q41 7 64 -14t30 -55t0 -74t-25 -72q-8 -14 -19 -14z" />
    <glyph glyph-name="quotedblbase" unicode="&#x201e;" horiz-adv-x="302" 
d="M86 -169q-4 0 -6 1q-8 2 -10.5 9.5t-2.5 15.5q1 22 1 51.5t-2.5 55.5t-8.5 42.5t-16 13.5q-8 -2 -14.5 4t-7.5 14q-2 8 3.5 14t13.5 8q41 7 64 -14t30 -55t0 -74t-25 -72q-8 -14 -19 -14zM216 -169q-4 0 -6 1q-8 2 -10.5 9.5t-2.5 15.5q1 22 1 51.5t-2.5 55.5t-8.5 42.5
t-16 13.5q-8 -2 -14.5 4t-7.5 14q-2 8 3.5 14t13.5 8q41 7 64 -14t30 -55t0 -74t-25 -72q-8 -14 -19 -14z" />
    <glyph glyph-name="quotedblright" unicode="&#x201d;" horiz-adv-x="302" 
d="M86 411q-4 0 -6 1q-8 2 -10.5 9.5t-2.5 15.5q1 22 1 51.5t-2.5 55.5t-8.5 42.5t-16 13.5q-8 -2 -14.5 4t-7.5 14q-2 8 3.5 14t13.5 8q41 7 64 -14t30 -55t0 -74t-25 -72q-8 -14 -19 -14zM216 411q-4 0 -6 1q-8 2 -10.5 9.5t-2.5 15.5q1 22 1 51.5t-2.5 55.5t-8.5 42.5
t-16 13.5q-8 -2 -14.5 4t-7.5 14q-2 8 3.5 14t13.5 8q41 7 64 -14t30 -55t0 -74t-25 -72q-8 -14 -19 -14z" />
    <glyph glyph-name="quotedblleft" unicode="&#x201c;" horiz-adv-x="301" 
d="M215 657q4 0 6 -1q8 -2 10.5 -9.5t2.5 -15.5q-1 -23 -1 -52t2.5 -55t8 -42.5t16.5 -13.5q8 2 14.5 -4t7.5 -14q2 -8 -3.5 -14t-13.5 -8q-41 -7 -64 14t-30 55t0 74t25 72q8 14 19 14zM85 657q4 0 6 -1q8 -2 10.5 -9.5t2.5 -15.5q-1 -23 -1 -52t2.5 -55t8 -42.5
t16.5 -13.5q8 2 14.5 -4t7.5 -14q2 -8 -3.5 -14t-13.5 -8q-41 -7 -64 14t-30 55t0 74t25 72q8 14 19 14z" />
    <glyph glyph-name="quoteright" unicode="&#x2019;" horiz-adv-x="152" 
d="M76 411q-4 0 -6 1q-8 2 -10.5 9.5t-2.5 15.5q1 22 1 51.5t-2.5 55.5t-8.5 42.5t-16 13.5q-8 -2 -14.5 4t-7.5 14q-2 8 3.5 14t13.5 8q41 7 64 -14t30 -55t0 -74t-25 -72q-8 -14 -19 -14z" />
    <glyph glyph-name="quoteleft" unicode="&#x2018;" horiz-adv-x="152" 
d="M76 657q4 0 6 -1q8 -2 10.5 -9.5t2.5 -15.5q-1 -23 -1 -52t2.5 -55t8 -42.5t16.5 -13.5q8 2 14.5 -4t7.5 -14q2 -8 -3.5 -14t-13.5 -8q-41 -7 -64 14t-30 55t0 74t25 72q8 14 19 14z" />
    <glyph glyph-name="at" unicode="@" horiz-adv-x="548" 
d="M491 548q18 -42 27.5 -90t7.5 -99q-2 -48 -11.5 -84.5t-26.5 -55.5q-27 -30 -56 -27q-23 2 -38.5 20t-26.5 35q-15 -27 -38 -47q-20 -17 -40 -24t-39 -3q-14 2 -30 13t-28 39q-18 45 -14 122q6 94 38 149q16 26 36.5 40t42.5 13q31 -2 56 -35.5t23 -104.5q-1 -8 -7 -14
t-14 -6q-8 1 -14 7t-5 14q1 31 -4 49t-10 28q-6 12 -15.5 5.5t-19 -26.5t-17.5 -51.5t-10 -69.5q-1 -14 -3 -35t-1 -40.5t7.5 -34t22.5 -17.5q10 -2 18.5 5t16 17.5t13 23.5t9.5 24q3 11 9.5 14.5t10.5 4.5q23 4 36 -9t21.5 -28t17 -24.5t22.5 -0.5t22 39t9 71t-7.5 88
t-27.5 89q-25 55 -64 86t-82 35t-84.5 -21.5t-71.5 -83.5q-22 -42 -33 -95t-9 -110q1 -58 14 -110.5t36 -94.5q47 -82 108.5 -94.5t144.5 39.5q7 5 14.5 3t12.5 -10q5 -7 3 -14.5t-9 -12.5q-86 -53 -160 -53h-1q-68 0 -123 44q-42 33 -71 89t-41 128q-12 67 -7 135.5
t25 127.5q29 80 79 124q28 25 62.5 38t71.5 14t73.5 -10t67.5 -33q51 -38 81 -105z" />
    <glyph glyph-name="questiondown" unicode="&#xbf;" horiz-adv-x="286" 
d="M199 263q-48 -100 -69.5 -169t-26.5 -114t0 -70t9 -37q3 -8 7 -15.5t9.5 -13t12 -7.5t14.5 2q13 7 32 23t39 50q4 7 12 9t15 -3q8 -4 10 -12t-3 -15q-19 -31 -41 -53.5t-46 -34.5q-52 -26 -94 -1q-31 18 -47 63q-14 47 -7 108q7 71 36 144.5t95 156.5q10 13 20.5 19.5
t17 5.5t9 -10t-3.5 -26zM186 486q9 0 16.5 -5t13.5 -12q11 -11 23 -29q2 -4 7 -12t10 -17.5t9.5 -20t5.5 -19.5q3 -17 -4 -25t-16 -10q-15 -4 -27.5 6.5t-23.5 23.5l-4 6q-22 -22 -41 -14q-5 2 -10.5 6.5t-7.5 16.5q-2 9 0 21q3 23 13 48q5 11 12.5 23t21.5 13h2zM200 425
q-6 9 -11 14q-2 -3 -3.5 -8t-3.5 -12q-1 -1 -1 -2q6 8 16 8h3z" />
    <glyph glyph-name="exclamdown" unicode="&#xa1;" horiz-adv-x="166" 
d="M117 -157q0 -13 -12 -24t-26.5 -15.5t-27 -0.5t-13.5 21q-5 108 -3 192t6 142.5t8 90t4 32.5q1 11 7.5 17t14 6t15 -7.5t9.5 -23.5q0 -50 0.5 -86t2 -65.5t3 -56.5t3.5 -58t4 -70.5t5 -93.5zM62 491q9 0 16.5 -5t13.5 -12q11 -11 23 -29q2 -4 7 -12t10 -17.5t9.5 -20
t5.5 -19.5q3 -17 -4 -25t-16 -10q-15 -4 -27.5 6.5t-23.5 23.5l-4 6q-22 -22 -41 -14q-5 2 -10.5 6.5t-7.5 16.5q-2 9 0 21q3 23 13 48q5 11 12.5 23t21.5 13h2zM76 430q-6 9 -11 14q-2 -3 -3.5 -8t-3.5 -12q-1 -1 -1 -2q6 8 16 8h3z" />
    <glyph glyph-name="circumflex" unicode="&#x2c6;" horiz-adv-x="189" 
d="M23 584q1 1 6 11t13 22q26 39 46 40t50 -36q10 -11 16 -20.5t7 -10.5q6 -9 3 -16.5t-9.5 -12t-15 -5t-14.5 5.5q-3 3 -9.5 11t-14 16.5t-14 16.5t-9.5 11q-3 -3 -7.5 -9.5l-9 -13l-9 -13t-7.5 -9.5q-4 -4 -9.5 -6t-10 -1t-6 5.5t3.5 13.5z" />
    <glyph glyph-name="caron" unicode="&#x2c7;" horiz-adv-x="190" 
d="M166 630q-1 -1 -6 -11t-13 -22q-26 -39 -46 -40t-50 36q-10 11 -16 20.5t-7 10.5q-6 9 -3 16.5t9.5 12t15 5t14.5 -5.5q3 -3 9.5 -11t14 -16.5t14 -16.5t9.5 -11q3 3 7.5 9.5l9 13l9 13t7.5 9.5q4 4 9.5 6t10 1t6 -5.5t-3.5 -13.5z" />
    <glyph glyph-name="ring" unicode="&#x2da;" horiz-adv-x="177" 
d="M83 553q-20 0 -35 12t-20 34q-3 13 -1.5 28t8 28t17.5 23t27 14q15 4 29 0t24 -15q14 -14 18 -34.5t-3 -40.5q-5 -19 -18.5 -31t-31.5 -16q-4 -1 -7 -1.5t-7 -0.5zM94 654q-3 0 -5 -1q-15 -4 -20 -18.5t-2 -26.5q3 -14 10.5 -14.5t10.5 0.5q10 2 14.5 8t6.5 12
q3 10 1.5 20t-7.5 16q-4 4 -9 4z" />
    <glyph glyph-name="tilde" unicode="&#x2dc;" horiz-adv-x="196" 
d="M134 556q-13 1 -26.5 8t-24 13.5t-17.5 10t-7 -2.5q-1 -8 -7.5 -13.5t-14.5 -3.5q-8 1 -13.5 7.5t-4.5 14.5q2 18 12.5 34.5t25.5 20.5q13 4 27.5 -2t26.5 -13.5t19.5 -13.5t7.5 -2q0 8 6 14t14 6t14 -6t6 -14q0 -21 -12 -39.5t-32 -18.5z" />
    <glyph glyph-name="Agrave" unicode="&#xc0;" horiz-adv-x="576" 
d="M602 325q8 -3 11.5 -10t0.5 -15q0 -1 -4.5 -14t-12.5 -33.5t-18.5 -46.5t-22.5 -53q-14 -32 -28 -57.5t-27 -44.5q-37 -52 -70 -52h-2q-5 0 -12 2.5t-14 10.5q-21 23 -30 98q-4 29 -5.5 67.5t-1.5 85.5q-1 45 0 90.5t3 88.5q-9 -30 -19 -62t-21 -64l-15 -43
q-1 -8 -2 -11.5t-3 -5.5l-3 -4q-35 -90 -68 -148q-9 -15 -20.5 -33.5t-26 -34t-32.5 -26.5t-39 -11q-11 0 -23.5 4t-25 15.5t-24.5 31t-22 50.5q-13 39 -19.5 92t-6.5 113q0 71 9 138t25 121q8 29 19 52t23 40q30 41 69 41q34 0 62 -22q24 -19 42 -52q13 -24 23 -52t17 -57
t11.5 -57.5t7.5 -52.5q1 -5 1.5 -10t0.5 -10q16 48 28.5 92.5t21.5 78.5t14 54.5l5 20.5q2 7 14.5 13t26.5 7.5t26 -4t12 -21.5q0 -9 -0.5 -22.5t-1.5 -30.5q-2 -27 -3.5 -62t-3 -75t-2 -82t-0.5 -83q0 -88 5 -135.5t10 -69.5q11 14 25.5 38.5t33.5 65.5q12 26 22 52t18 46
q9 24 16 45q7 18 26 13zM274 281q1 17 -1 57t-9 89q-10 70 -27 121.5t-40 79.5q-5 5 -15.5 14t-15.5 9q-16 0 -29.5 -19.5t-24 -52t-18 -76t-11.5 -91.5t-4 -98t4 -95q4 -36 10 -67t15 -54q7 -19 14 -32.5t18 -14.5q14 -1 29 18.5t35 54.5q17 30 34.5 69t35.5 88zM44 796
q-9 10 -7 26.5t10.5 29.5t20.5 18t24 -8q42 -45 55.5 -69t15.5 -26q17 -24 13.5 -36t-22 -10t-47.5 20t-63 55z" />
    <glyph glyph-name="Aacute" unicode="&#xc1;" horiz-adv-x="576" 
d="M602 325q8 -3 11.5 -10t0.5 -15q0 -1 -4.5 -14t-12.5 -33.5t-18.5 -46.5t-22.5 -53q-14 -32 -28 -57.5t-27 -44.5q-37 -52 -70 -52h-2q-5 0 -12 2.5t-14 10.5q-21 23 -30 98q-4 29 -5.5 67.5t-1.5 85.5q-1 45 0 90.5t3 88.5q-9 -30 -19 -62t-21 -64l-15 -43
q-1 -8 -2 -11.5t-3 -5.5l-3 -4q-35 -90 -68 -148q-9 -15 -20.5 -33.5t-26 -34t-32.5 -26.5t-39 -11q-11 0 -23.5 4t-25 15.5t-24.5 31t-22 50.5q-13 39 -19.5 92t-6.5 113q0 71 9 138t25 121q8 29 19 52t23 40q30 41 69 41q34 0 62 -22q24 -19 42 -52q13 -24 23 -52t17 -57
t11.5 -57.5t7.5 -52.5q1 -5 1.5 -10t0.5 -10q16 48 28.5 92.5t21.5 78.5t14 54.5l5 20.5q2 7 14.5 13t26.5 7.5t26 -4t12 -21.5q0 -9 -0.5 -22.5t-1.5 -30.5q-2 -27 -3.5 -62t-3 -75t-2 -82t-0.5 -83q0 -88 5 -135.5t10 -69.5q11 14 25.5 38.5t33.5 65.5q12 26 22 52t18 46
q9 24 16 45q7 18 26 13zM274 281q1 17 -1 57t-9 89q-10 70 -27 121.5t-40 79.5q-5 5 -15.5 14t-15.5 9q-16 0 -29.5 -19.5t-24 -52t-18 -76t-11.5 -91.5t-4 -98t4 -95q4 -36 10 -67t15 -54q7 -19 14 -32.5t18 -14.5q14 -1 29 18.5t35 54.5q17 30 34.5 69t35.5 88zM252 796
q-34 -37 -63 -55t-47.5 -20t-22 10t13.5 36q2 2 15.5 26t55.5 69q12 13 24 8t20 -18t10.5 -29.5t-6.5 -26.5z" />
    <glyph glyph-name="Acircumflex" unicode="&#xc2;" horiz-adv-x="576" 
d="M602 325q8 -3 11.5 -10t0.5 -15q0 -1 -4.5 -14t-12.5 -33.5t-18.5 -46.5t-22.5 -53q-14 -32 -28 -57.5t-27 -44.5q-37 -52 -70 -52h-2q-5 0 -12 2.5t-14 10.5q-21 23 -30 98q-4 29 -5.5 67.5t-1.5 85.5q-1 45 0 90.5t3 88.5q-9 -30 -19 -62t-21 -64l-15 -43
q-1 -8 -2 -11.5t-3 -5.5l-3 -4q-35 -90 -68 -148q-9 -15 -20.5 -33.5t-26 -34t-32.5 -26.5t-39 -11q-11 0 -23.5 4t-25 15.5t-24.5 31t-22 50.5q-13 39 -19.5 92t-6.5 113q0 71 9 138t25 121q8 29 19 52t23 40q30 41 69 41q34 0 62 -22q24 -19 42 -52q13 -24 23 -52t17 -57
t11.5 -57.5t7.5 -52.5q1 -5 1.5 -10t0.5 -10q16 48 28.5 92.5t21.5 78.5t14 54.5l5 20.5q2 7 14.5 13t26.5 7.5t26 -4t12 -21.5q0 -9 -0.5 -22.5t-1.5 -30.5q-2 -27 -3.5 -62t-3 -75t-2 -82t-0.5 -83q0 -88 5 -135.5t10 -69.5q11 14 25.5 38.5t33.5 65.5q12 26 22 52t18 46
q9 24 16 45q7 18 26 13zM274 281q1 17 -1 57t-9 89q-10 70 -27 121.5t-40 79.5q-5 5 -15.5 14t-15.5 9q-16 0 -29.5 -19.5t-24 -52t-18 -76t-11.5 -91.5t-4 -98t4 -95q4 -36 10 -67t15 -54q7 -19 14 -32.5t18 -14.5q14 -1 29 18.5t35 54.5q17 30 34.5 69t35.5 88zM90 749
q1 1 6 11t13 22q26 39 46 40t50 -36q10 -11 16 -20.5t7 -10.5q6 -9 3 -16.5t-9.5 -12t-15 -5t-14.5 5.5q-3 3 -9.5 11t-14 16.5t-14 16.5t-9.5 11q-3 -3 -7.5 -9.5l-9 -13l-9 -13t-7.5 -9.5q-4 -4 -9.5 -6t-10 -1t-6 5.5t3.5 13.5z" />
    <glyph glyph-name="Atilde" unicode="&#xc3;" horiz-adv-x="576" 
d="M602 325q8 -3 11.5 -10t0.5 -15q0 -1 -4.5 -14t-12.5 -33.5t-18.5 -46.5t-22.5 -53q-14 -32 -28 -57.5t-27 -44.5q-37 -52 -70 -52h-2q-5 0 -12 2.5t-14 10.5q-21 23 -30 98q-4 29 -5.5 67.5t-1.5 85.5q-1 45 0 90.5t3 88.5q-9 -30 -19 -62t-21 -64l-15 -43
q-1 -8 -2 -11.5t-3 -5.5l-3 -4q-35 -90 -68 -148q-9 -15 -20.5 -33.5t-26 -34t-32.5 -26.5t-39 -11q-11 0 -23.5 4t-25 15.5t-24.5 31t-22 50.5q-13 39 -19.5 92t-6.5 113q0 71 9 138t25 121q8 29 19 52t23 40q30 41 69 41q34 0 62 -22q24 -19 42 -52q13 -24 23 -52t17 -57
t11.5 -57.5t7.5 -52.5q1 -5 1.5 -10t0.5 -10q16 48 28.5 92.5t21.5 78.5t14 54.5l5 20.5q2 7 14.5 13t26.5 7.5t26 -4t12 -21.5q0 -9 -0.5 -22.5t-1.5 -30.5q-2 -27 -3.5 -62t-3 -75t-2 -82t-0.5 -83q0 -88 5 -135.5t10 -69.5q11 14 25.5 38.5t33.5 65.5q12 26 22 52t18 46
q9 24 16 45q7 18 26 13zM274 281q1 17 -1 57t-9 89q-10 70 -27 121.5t-40 79.5q-5 5 -15.5 14t-15.5 9q-16 0 -29.5 -19.5t-24 -52t-18 -76t-11.5 -91.5t-4 -98t4 -95q4 -36 10 -67t15 -54q7 -19 14 -32.5t18 -14.5q14 -1 29 18.5t35 54.5q17 30 34.5 69t35.5 88zM190 721
q-13 1 -26.5 8t-24 13.5t-17.5 10t-7 -2.5q-1 -8 -7.5 -13.5t-14.5 -3.5q-8 1 -13.5 7.5t-4.5 14.5q2 18 12.5 34.5t25.5 20.5q13 4 27.5 -2t26.5 -13.5t19.5 -13.5t7.5 -2q0 8 6 14t14 6t14 -6t6 -14q0 -21 -12 -39.5t-32 -18.5z" />
    <glyph glyph-name="Adieresis" unicode="&#xc4;" horiz-adv-x="576" 
d="M602 325q8 -3 11.5 -10t0.5 -15q0 -1 -4.5 -14t-12.5 -33.5t-18.5 -46.5t-22.5 -53q-14 -32 -28 -57.5t-27 -44.5q-37 -52 -70 -52h-2q-5 0 -12 2.5t-14 10.5q-21 23 -30 98q-4 29 -5.5 67.5t-1.5 85.5q-1 45 0 90.5t3 88.5q-9 -30 -19 -62t-21 -64l-15 -43
q-1 -8 -2 -11.5t-3 -5.5l-3 -4q-35 -90 -68 -148q-9 -15 -20.5 -33.5t-26 -34t-32.5 -26.5t-39 -11q-11 0 -23.5 4t-25 15.5t-24.5 31t-22 50.5q-13 39 -19.5 92t-6.5 113q0 71 9 138t25 121q8 29 19 52t23 40q30 41 69 41q34 0 62 -22q24 -19 42 -52q13 -24 23 -52t17 -57
t11.5 -57.5t7.5 -52.5q1 -5 1.5 -10t0.5 -10q16 48 28.5 92.5t21.5 78.5t14 54.5l5 20.5q2 7 14.5 13t26.5 7.5t26 -4t12 -21.5q0 -9 -0.5 -22.5t-1.5 -30.5q-2 -27 -3.5 -62t-3 -75t-2 -82t-0.5 -83q0 -88 5 -135.5t10 -69.5q11 14 25.5 38.5t33.5 65.5q12 26 22 52t18 46
q9 24 16 45q7 18 26 13zM274 281q1 17 -1 57t-9 89q-10 70 -27 121.5t-40 79.5q-5 5 -15.5 14t-15.5 9q-16 0 -29.5 -19.5t-24 -52t-18 -76t-11.5 -91.5t-4 -98t4 -95q4 -36 10 -67t15 -54q7 -19 14 -32.5t18 -14.5q14 -1 29 18.5t35 54.5q17 30 34.5 69t35.5 88zM82 721
q-13 0 -23 14q-10 9 -19 23q-4 6 -14 23.5t-11 32.5q-3 13 2.5 19.5t12.5 8.5q12 3 22.5 -5.5t19.5 -18.5q0 -2 1 -3t1 -2q18 17 34 11l7.5 -5t6.5 -13q1 -9 0 -17q-2 -9 -4 -19.5t-6 -19.5t-10.5 -18.5t-17.5 -10.5h-2zM222 721q-13 0 -23 14q-10 9 -19 23q-4 6 -14 23.5
t-11 32.5q-3 13 2.5 19.5t12.5 8.5q12 3 22.5 -5.5t19.5 -18.5q0 -2 1 -3t1 -2q18 17 34 11l7.5 -5t6.5 -13q1 -9 0 -17q-2 -9 -4 -19.5t-6 -19.5t-10.5 -18.5t-17.5 -10.5h-2z" />
    <glyph glyph-name="Aring" unicode="&#xc5;" horiz-adv-x="576" 
d="M602 325q8 -3 11.5 -10t0.5 -15q0 -1 -4.5 -14t-12.5 -33.5t-18.5 -46.5t-22.5 -53q-14 -32 -28 -57.5t-27 -44.5q-37 -52 -70 -52h-2q-5 0 -12 2.5t-14 10.5q-21 23 -30 98q-4 29 -5.5 67.5t-1.5 85.5q-1 45 0 90.5t3 88.5q-9 -30 -19 -62t-21 -64l-15 -43
q-1 -8 -2 -11.5t-3 -5.5l-3 -4q-35 -90 -68 -148q-9 -15 -20.5 -33.5t-26 -34t-32.5 -26.5t-39 -11q-11 0 -23.5 4t-25 15.5t-24.5 31t-22 50.5q-13 39 -19.5 92t-6.5 113q0 71 9 138t25 121q8 29 19 52t23 40q30 41 69 41q34 0 62 -22q24 -19 42 -52q13 -24 23 -52t17 -57
t11.5 -57.5t7.5 -52.5q1 -5 1.5 -10t0.5 -10q16 48 28.5 92.5t21.5 78.5t14 54.5l5 20.5q2 7 14.5 13t26.5 7.5t26 -4t12 -21.5q0 -9 -0.5 -22.5t-1.5 -30.5q-2 -27 -3.5 -62t-3 -75t-2 -82t-0.5 -83q0 -88 5 -135.5t10 -69.5q11 14 25.5 38.5t33.5 65.5q12 26 22 52t18 46
q9 24 16 45q7 18 26 13zM274 281q1 17 -1 57t-9 89q-10 70 -27 121.5t-40 79.5q-5 5 -15.5 14t-15.5 9q-16 0 -29.5 -19.5t-24 -52t-18 -76t-11.5 -91.5t-4 -98t4 -95q4 -36 10 -67t15 -54q7 -19 14 -32.5t18 -14.5q14 -1 29 18.5t35 54.5q17 30 34.5 69t35.5 88zM144 718
q-20 0 -35 12t-20 34q-3 13 -1.5 28t8 28t17.5 23t27 14q15 4 29 0t24 -15q14 -14 18 -34.5t-3 -40.5q-5 -19 -18.5 -31t-31.5 -16q-4 -1 -7 -1.5t-7 -0.5zM155 819q-3 0 -5 -1q-15 -4 -20 -18.5t-2 -26.5q3 -14 10.5 -14.5t10.5 0.5q10 2 14.5 8t6.5 12q3 10 1.5 20
t-7.5 16q-4 4 -9 4z" />
    <glyph glyph-name="Egrave" unicode="&#xc8;" horiz-adv-x="347" 
d="M384 299l-4 -12t-5 -14q-12 -37 -30 -82.5t-46 -87.5q-70 -103 -174 -103q-41 0 -76 12.5t-63 38.5q-25 23 -40 52.5t-17 62.5q-6 68 39 121q30 34 80 54q-10 8 -18.5 17t-15.5 21q-16 24 -24 55.5t-8 66.5q0 38 9.5 72t27.5 60q43 64 118 64q38 0 65 -27q38 -41 32 -132
q-2 -19 -21 -19q-8 1 -14 7.5t-5 14.5q2 35 -3 61.5t-19 40.5q-11 11 -21 11q-27 0 -45 -17.5t-28.5 -44.5t-13.5 -59t0 -60q3 -25 11 -46t19 -37q24 -31 61 -31q8 0 13.5 -5.5t6.5 -13.5q0 -8 -4.5 -13.5t-12.5 -7.5q-44 -7 -73.5 -23t-47 -36.5t-24.5 -43.5t-5 -44
q2 -24 13.5 -46.5t31.5 -40t48 -26.5t63 -4q39 5 67 30t48.5 59.5t34 72.5t24.5 69l9 27q2 8 9.5 11.5t15.5 0.5q19 -7 12 -26zM37 796q-9 10 -7 26.5t10.5 29.5t20.5 18t24 -8q42 -45 55.5 -69t15.5 -26q17 -24 13.5 -36t-22 -10t-47.5 20t-63 55z" />
    <glyph glyph-name="Eacute" unicode="&#xc9;" horiz-adv-x="347" 
d="M384 299l-4 -12t-5 -14q-12 -37 -30 -82.5t-46 -87.5q-70 -103 -174 -103q-41 0 -76 12.5t-63 38.5q-25 23 -40 52.5t-17 62.5q-6 68 39 121q30 34 80 54q-10 8 -18.5 17t-15.5 21q-16 24 -24 55.5t-8 66.5q0 38 9.5 72t27.5 60q43 64 118 64q38 0 65 -27q38 -41 32 -132
q-2 -19 -21 -19q-8 1 -14 7.5t-5 14.5q2 35 -3 61.5t-19 40.5q-11 11 -21 11q-27 0 -45 -17.5t-28.5 -44.5t-13.5 -59t0 -60q3 -25 11 -46t19 -37q24 -31 61 -31q8 0 13.5 -5.5t6.5 -13.5q0 -8 -4.5 -13.5t-12.5 -7.5q-44 -7 -73.5 -23t-47 -36.5t-24.5 -43.5t-5 -44
q2 -24 13.5 -46.5t31.5 -40t48 -26.5t63 -4q39 5 67 30t48.5 59.5t34 72.5t24.5 69l9 27q2 8 9.5 11.5t15.5 0.5q19 -7 12 -26zM245 796q-34 -37 -63 -55t-47.5 -20t-22 10t13.5 36q2 2 15.5 26t55.5 69q12 13 24 8t20 -18t10.5 -29.5t-6.5 -26.5z" />
    <glyph glyph-name="Ecircumflex" unicode="&#xca;" horiz-adv-x="347" 
d="M384 299l-4 -12t-5 -14q-12 -37 -30 -82.5t-46 -87.5q-70 -103 -174 -103q-41 0 -76 12.5t-63 38.5q-25 23 -40 52.5t-17 62.5q-6 68 39 121q30 34 80 54q-10 8 -18.5 17t-15.5 21q-16 24 -24 55.5t-8 66.5q0 38 9.5 72t27.5 60q43 64 118 64q38 0 65 -27q38 -41 32 -132
q-2 -19 -21 -19q-8 1 -14 7.5t-5 14.5q2 35 -3 61.5t-19 40.5q-11 11 -21 11q-27 0 -45 -17.5t-28.5 -44.5t-13.5 -59t0 -60q3 -25 11 -46t19 -37q24 -31 61 -31q8 0 13.5 -5.5t6.5 -13.5q0 -8 -4.5 -13.5t-12.5 -7.5q-44 -7 -73.5 -23t-47 -36.5t-24.5 -43.5t-5 -44
q2 -24 13.5 -46.5t31.5 -40t48 -26.5t63 -4q39 5 67 30t48.5 59.5t34 72.5t24.5 69l9 27q2 8 9.5 11.5t15.5 0.5q19 -7 12 -26zM83 749q1 1 6 11t13 22q26 39 46 40t50 -36q10 -11 16 -20.5t7 -10.5q6 -9 3 -16.5t-9.5 -12t-15 -5t-14.5 5.5q-3 3 -9.5 11t-14 16.5t-14 16.5
t-9.5 11q-3 -3 -7.5 -9.5l-9 -13l-9 -13t-7.5 -9.5q-4 -4 -9.5 -6t-10 -1t-6 5.5t3.5 13.5z" />
    <glyph glyph-name="Edieresis" unicode="&#xcb;" horiz-adv-x="347" 
d="M384 299l-4 -12t-5 -14q-12 -37 -30 -82.5t-46 -87.5q-70 -103 -174 -103q-41 0 -76 12.5t-63 38.5q-25 23 -40 52.5t-17 62.5q-6 68 39 121q30 34 80 54q-10 8 -18.5 17t-15.5 21q-16 24 -24 55.5t-8 66.5q0 38 9.5 72t27.5 60q43 64 118 64q38 0 65 -27q38 -41 32 -132
q-2 -19 -21 -19q-8 1 -14 7.5t-5 14.5q2 35 -3 61.5t-19 40.5q-11 11 -21 11q-27 0 -45 -17.5t-28.5 -44.5t-13.5 -59t0 -60q3 -25 11 -46t19 -37q24 -31 61 -31q8 0 13.5 -5.5t6.5 -13.5q0 -8 -4.5 -13.5t-12.5 -7.5q-44 -7 -73.5 -23t-47 -36.5t-24.5 -43.5t-5 -44
q2 -24 13.5 -46.5t31.5 -40t48 -26.5t63 -4q39 5 67 30t48.5 59.5t34 72.5t24.5 69l9 27q2 8 9.5 11.5t15.5 0.5q19 -7 12 -26zM215 721q-13 0 -23 14q-10 9 -19 23q-4 6 -14 23.5t-11 32.5q-3 13 2.5 19.5t12.5 8.5q12 3 22.5 -5.5t19.5 -18.5q0 -2 1 -3t1 -2q18 17 34 11
l7.5 -5t6.5 -13q1 -9 0 -17q-2 -9 -4 -19.5t-6 -19.5t-10.5 -18.5t-17.5 -10.5h-2zM75 721q-13 0 -23 14q-10 9 -19 23q-4 6 -14 23.5t-11 32.5q-3 13 2.5 19.5t12.5 8.5q12 3 22.5 -5.5t19.5 -18.5q0 -2 1 -3t1 -2q18 17 34 11l7.5 -5t6.5 -13q1 -9 0 -17q-2 -9 -4 -19.5
t-6 -19.5t-10.5 -18.5t-17.5 -10.5h-2z" />
    <glyph glyph-name="Ntilde" unicode="&#xd1;" horiz-adv-x="601" 
d="M626 328q8 -3 11.5 -10t1.5 -15q0 -1 -4.5 -14t-12.5 -33.5t-18.5 -46.5t-22.5 -53q-14 -32 -28 -58t-27 -45q-36 -54 -71 -54q-25 0 -44 19q-16 17 -24 48.5t-10 82.5q-2 42 0.5 90.5t5.5 97.5q4 52 6 102.5t0 94.5q-3 89 -27 113q-8 8 -19 8h-3q-33 -3 -64 -45
q-15 -20 -30.5 -49.5t-30.5 -67.5q-28 -72 -50.5 -156.5t-42.5 -163.5q-11 -47 -21 -86t-20 -68q-5 -18 -17.5 -23t-26 -2.5t-24.5 10t-12 15.5v26.5v67.5t1 96t4 112q8 138 21 226q19 117 51 150q10 10 19.5 12.5t15.5 2.5q24 0 36.5 -9t18.5 -19q19 -34 1 -104
q-6 -26 -17.5 -57.5t-27.5 -67.5l-35 -73l-3 -57q-2 -40 -3 -78.5t-2 -73.5q2 6 2 9q20 81 43 166t52 160q17 42 33 73t33 54q43 55 93 60h4q51 1 83 -31q24 -25 35.5 -65t14.5 -89t0.5 -105t-6.5 -112q-4 -45 -6.5 -87t-0.5 -77q2 -48 9 -62t17.5 -3.5t25 40.5t32.5 68
q12 27 22 52.5t17.5 45.5t12 32.5l4.5 12.5q2 8 9.5 11.5t15.5 1.5zM388 723q-13 1 -26.5 8t-24 13.5t-17.5 10t-7 -2.5q-1 -8 -7.5 -13.5t-14.5 -3.5q-8 1 -13.5 7.5t-4.5 14.5q2 18 12.5 34.5t25.5 20.5q13 4 27.5 -2t26.5 -13.5t19.5 -13.5t7.5 -2q0 8 6 14t14 6t14 -6
t6 -14q0 -21 -12 -39.5t-32 -18.5zM101 502q23 61 31.5 102.5t7 52.5t-11 -13.5t-21.5 -96.5z" />
    <glyph glyph-name="Ograve" unicode="&#xd2;" horiz-adv-x="528" 
d="M527 212q-24 -38 -59 -65q-42 -32 -90 -47q-55 -98 -143 -100h-4q-61 0 -102 47q-35 39 -55 113l-4 18q-30 32 -48 70q-16 32 -21.5 76.5t-0.5 94.5q5 53 21.5 100t41.5 83q32 45 77 70q46 25 107 20q49 -6 88 -42q17 -16 31.5 -38t26.5 -49q21 -50 31 -111.5t8 -128.5
q-3 -95 -31 -171q46 23 78.5 63.5t48.5 95.5q2 8 9.5 12t15.5 2t11.5 -9t1.5 -15q-14 -50 -39 -89zM392 324q2 62 -7 120t-29 103q-7 17 -17.5 34.5t-24 32.5t-31.5 25.5t-40 12.5q-89 9 -147 -73q-24 -35 -38 -78t-18.5 -86t0 -82.5t17.5 -66.5q-6 76 3 157q3 31 7 57.5
t12 48.5q13 37 33.5 53t37.5 16.5t26 -12t0 -30.5q-1 0 -6 -7t-12 -30q-11 -38 -17 -90q-8 -60 -6.5 -120.5t12.5 -111.5q2 -8 4 -17l4 -18q35 -20 75 -29.5t83 -5.5q9 2 18.5 3.5t18.5 3.5q19 38 29.5 87t12.5 103zM127 796q-9 10 -7 26.5t10.5 29.5t20.5 18t24 -8
q42 -45 55.5 -69t15.5 -26q17 -24 13.5 -36t-22 -10t-47.5 20t-63 55zM176 108q29 -56 63.5 -62.5t82.5 42.5h-6q-72 -8 -140 20z" />
    <glyph glyph-name="Oacute" unicode="&#xd3;" horiz-adv-x="528" 
d="M527 212q-24 -38 -59 -65q-42 -32 -90 -47q-55 -98 -143 -100h-4q-61 0 -102 47q-35 39 -55 113l-4 18q-30 32 -48 70q-16 32 -21.5 76.5t-0.5 94.5q5 53 21.5 100t41.5 83q32 45 77 70q46 25 107 20q49 -6 88 -42q17 -16 31.5 -38t26.5 -49q21 -50 31 -111.5t8 -128.5
q-3 -95 -31 -171q46 23 78.5 63.5t48.5 95.5q2 8 9.5 12t15.5 2t11.5 -9t1.5 -15q-14 -50 -39 -89zM392 324q2 62 -7 120t-29 103q-7 17 -17.5 34.5t-24 32.5t-31.5 25.5t-40 12.5q-89 9 -147 -73q-24 -35 -38 -78t-18.5 -86t0 -82.5t17.5 -66.5q-6 76 3 157q3 31 7 57.5
t12 48.5q13 37 33.5 53t37.5 16.5t26 -12t0 -30.5q-1 0 -6 -7t-12 -30q-11 -38 -17 -90q-8 -60 -6.5 -120.5t12.5 -111.5q2 -8 4 -17l4 -18q35 -20 75 -29.5t83 -5.5q9 2 18.5 3.5t18.5 3.5q19 38 29.5 87t12.5 103zM335 796q-34 -37 -63 -55t-47.5 -20t-22 10t13.5 36
q2 2 15.5 26t55.5 69q12 13 24 8t20 -18t10.5 -29.5t-6.5 -26.5zM176 108q29 -56 63.5 -62.5t82.5 42.5h-6q-72 -8 -140 20z" />
    <glyph glyph-name="Ocircumflex" unicode="&#xd4;" horiz-adv-x="528" 
d="M527 212q-24 -38 -59 -65q-42 -32 -90 -47q-55 -98 -143 -100h-4q-61 0 -102 47q-35 39 -55 113l-4 18q-30 32 -48 70q-16 32 -21.5 76.5t-0.5 94.5q5 53 21.5 100t41.5 83q32 45 77 70q46 25 107 20q49 -6 88 -42q17 -16 31.5 -38t26.5 -49q21 -50 31 -111.5t8 -128.5
q-3 -95 -31 -171q46 23 78.5 63.5t48.5 95.5q2 8 9.5 12t15.5 2t11.5 -9t1.5 -15q-14 -50 -39 -89zM392 324q2 62 -7 120t-29 103q-7 17 -17.5 34.5t-24 32.5t-31.5 25.5t-40 12.5q-89 9 -147 -73q-24 -35 -38 -78t-18.5 -86t0 -82.5t17.5 -66.5q-6 76 3 157q3 31 7 57.5
t12 48.5q13 37 33.5 53t37.5 16.5t26 -12t0 -30.5q-1 0 -6 -7t-12 -30q-11 -38 -17 -90q-8 -60 -6.5 -120.5t12.5 -111.5q2 -8 4 -17l4 -18q35 -20 75 -29.5t83 -5.5q9 2 18.5 3.5t18.5 3.5q19 38 29.5 87t12.5 103zM173 749q1 1 6 11t13 22q26 39 46 40t50 -36
q10 -11 16 -20.5t7 -10.5q6 -9 3 -16.5t-9.5 -12t-15 -5t-14.5 5.5q-3 3 -9.5 11t-14 16.5t-14 16.5t-9.5 11q-3 -3 -7.5 -9.5l-9 -13l-9 -13t-7.5 -9.5q-4 -4 -9.5 -6t-10 -1t-6 5.5t3.5 13.5zM176 108q29 -56 63.5 -62.5t82.5 42.5h-6q-72 -8 -140 20z" />
    <glyph glyph-name="Otilde" unicode="&#xd5;" horiz-adv-x="528" 
d="M527 212q-24 -38 -59 -65q-42 -32 -90 -47q-55 -98 -143 -100h-4q-61 0 -102 47q-35 39 -55 113l-4 18q-30 32 -48 70q-16 32 -21.5 76.5t-0.5 94.5q5 53 21.5 100t41.5 83q32 45 77 70q46 25 107 20q49 -6 88 -42q17 -16 31.5 -38t26.5 -49q21 -50 31 -111.5t8 -128.5
q-3 -95 -31 -171q46 23 78.5 63.5t48.5 95.5q2 8 9.5 12t15.5 2t11.5 -9t1.5 -15q-14 -50 -39 -89zM392 324q2 62 -7 120t-29 103q-7 17 -17.5 34.5t-24 32.5t-31.5 25.5t-40 12.5q-89 9 -147 -73q-24 -35 -38 -78t-18.5 -86t0 -82.5t17.5 -66.5q-6 76 3 157q3 31 7 57.5
t12 48.5q13 37 33.5 53t37.5 16.5t26 -12t0 -30.5q-1 0 -6 -7t-12 -30q-11 -38 -17 -90q-8 -60 -6.5 -120.5t12.5 -111.5q2 -8 4 -17l4 -18q35 -20 75 -29.5t83 -5.5q9 2 18.5 3.5t18.5 3.5q19 38 29.5 87t12.5 103zM273 721q-13 1 -26.5 8t-24 13.5t-17.5 10t-7 -2.5
q-1 -8 -7.5 -13.5t-14.5 -3.5q-8 1 -13.5 7.5t-4.5 14.5q2 18 12.5 34.5t25.5 20.5q13 4 27.5 -2t26.5 -13.5t19.5 -13.5t7.5 -2q0 8 6 14t14 6t14 -6t6 -14q0 -21 -12 -39.5t-32 -18.5zM176 108q29 -56 63.5 -62.5t82.5 42.5h-6q-72 -8 -140 20z" />
    <glyph glyph-name="Odieresis" unicode="&#xd6;" horiz-adv-x="528" 
d="M527 212q-24 -38 -59 -65q-42 -32 -90 -47q-55 -98 -143 -100h-4q-61 0 -102 47q-35 39 -55 113l-4 18q-30 32 -48 70q-16 32 -21.5 76.5t-0.5 94.5q5 53 21.5 100t41.5 83q32 45 77 70q46 25 107 20q49 -6 88 -42q17 -16 31.5 -38t26.5 -49q21 -50 31 -111.5t8 -128.5
q-3 -95 -31 -171q46 23 78.5 63.5t48.5 95.5q2 8 9.5 12t15.5 2t11.5 -9t1.5 -15q-14 -50 -39 -89zM392 324q2 62 -7 120t-29 103q-7 17 -17.5 34.5t-24 32.5t-31.5 25.5t-40 12.5q-89 9 -147 -73q-24 -35 -38 -78t-18.5 -86t0 -82.5t17.5 -66.5q-6 76 3 157q3 31 7 57.5
t12 48.5q13 37 33.5 53t37.5 16.5t26 -12t0 -30.5q-1 0 -6 -7t-12 -30q-11 -38 -17 -90q-8 -60 -6.5 -120.5t12.5 -111.5q2 -8 4 -17l4 -18q35 -20 75 -29.5t83 -5.5q9 2 18.5 3.5t18.5 3.5q19 38 29.5 87t12.5 103zM165 721q-13 0 -23 14q-10 9 -19 23q-4 6 -14 23.5
t-11 32.5q-3 13 2.5 19.5t12.5 8.5q12 3 22.5 -5.5t19.5 -18.5q0 -2 1 -3t1 -2q18 17 34 11l7.5 -5t6.5 -13q1 -9 0 -17q-2 -9 -4 -19.5t-6 -19.5t-10.5 -18.5t-17.5 -10.5h-2zM305 721q-13 0 -23 14q-10 9 -19 23q-4 6 -14 23.5t-11 32.5q-3 13 2.5 19.5t12.5 8.5
q12 3 22.5 -5.5t19.5 -18.5q0 -2 1 -3t1 -2q18 17 34 11l7.5 -5t6.5 -13q1 -9 0 -17q-2 -9 -4 -19.5t-6 -19.5t-10.5 -18.5t-17.5 -10.5h-2zM176 108q29 -56 63.5 -62.5t82.5 42.5h-6q-72 -8 -140 20z" />
    <glyph glyph-name="Ugrave" unicode="&#xd9;" horiz-adv-x="520" 
d="M546 325q8 -3 11.5 -10t0.5 -15q0 -1 -4.5 -14t-12.5 -33.5t-18.5 -46.5t-22.5 -53q-14 -32 -28 -57.5t-27 -44.5q-37 -52 -70 -52h-2q-13 1 -22 9.5t-15 21t-9.5 28.5t-5.5 31q-5 31 -7.5 73.5t-3.5 98.5v36q-25 -113 -60 -184q-54 -114 -129 -114q-35 0 -59 26
q-30 32 -45 100q-6 29 -10 64t-6 79q-2 39 -2 80.5t1 83t2.5 82t3.5 76.5q2 24 2 45.5t2 41.5q1 12 13.5 21t26.5 10.5t26 -6t14 -26.5q2 -20 0 -42t-4 -46q-2 -36 -3.5 -76.5t-2.5 -82.5t-1 -83.5t2 -80.5q3 -87 15 -136t29.5 -65t38 -2t41.5 53t40.5 99t34.5 136
q11 55 18.5 108.5t12.5 98t7.5 75t3.5 40.5v3q-1 9 9 19.5t23.5 14t27 -3.5t20.5 -32q2 -8 0.5 -20t-2.5 -29q-2 -28 -3.5 -65t-3 -78.5t-2.5 -86.5t-1 -89q0 -47 -0.5 -88.5t0.5 -72t4.5 -48t11.5 -16.5t22 22t36 67q12 26 22 52t18 46q9 24 16 45q3 8 10.5 12t15.5 1z
M103 796q-9 10 -7 26.5t10.5 29.5t20.5 18t24 -8q42 -45 55.5 -69t15.5 -26q17 -24 13.5 -36t-22 -10t-47.5 20t-63 55z" />
    <glyph glyph-name="Uacute" unicode="&#xda;" horiz-adv-x="520" 
d="M546 325q8 -3 11.5 -10t0.5 -15q0 -1 -4.5 -14t-12.5 -33.5t-18.5 -46.5t-22.5 -53q-14 -32 -28 -57.5t-27 -44.5q-37 -52 -70 -52h-2q-13 1 -22 9.5t-15 21t-9.5 28.5t-5.5 31q-5 31 -7.5 73.5t-3.5 98.5v36q-25 -113 -60 -184q-54 -114 -129 -114q-35 0 -59 26
q-30 32 -45 100q-6 29 -10 64t-6 79q-2 39 -2 80.5t1 83t2.5 82t3.5 76.5q2 24 2 45.5t2 41.5q1 12 13.5 21t26.5 10.5t26 -6t14 -26.5q2 -20 0 -42t-4 -46q-2 -36 -3.5 -76.5t-2.5 -82.5t-1 -83.5t2 -80.5q3 -87 15 -136t29.5 -65t38 -2t41.5 53t40.5 99t34.5 136
q11 55 18.5 108.5t12.5 98t7.5 75t3.5 40.5v3q-1 9 9 19.5t23.5 14t27 -3.5t20.5 -32q2 -8 0.5 -20t-2.5 -29q-2 -28 -3.5 -65t-3 -78.5t-2.5 -86.5t-1 -89q0 -47 -0.5 -88.5t0.5 -72t4.5 -48t11.5 -16.5t22 22t36 67q12 26 22 52t18 46q9 24 16 45q3 8 10.5 12t15.5 1z
M311 796q-34 -37 -63 -55t-47.5 -20t-22 10t13.5 36q2 2 15.5 26t55.5 69q12 13 24 8t20 -18t10.5 -29.5t-6.5 -26.5z" />
    <glyph glyph-name="Ucircumflex" unicode="&#xdb;" horiz-adv-x="520" 
d="M546 325q8 -3 11.5 -10t0.5 -15q0 -1 -4.5 -14t-12.5 -33.5t-18.5 -46.5t-22.5 -53q-14 -32 -28 -57.5t-27 -44.5q-37 -52 -70 -52h-2q-13 1 -22 9.5t-15 21t-9.5 28.5t-5.5 31q-5 31 -7.5 73.5t-3.5 98.5v36q-25 -113 -60 -184q-54 -114 -129 -114q-35 0 -59 26
q-30 32 -45 100q-6 29 -10 64t-6 79q-2 39 -2 80.5t1 83t2.5 82t3.5 76.5q2 24 2 45.5t2 41.5q1 12 13.5 21t26.5 10.5t26 -6t14 -26.5q2 -20 0 -42t-4 -46q-2 -36 -3.5 -76.5t-2.5 -82.5t-1 -83.5t2 -80.5q3 -87 15 -136t29.5 -65t38 -2t41.5 53t40.5 99t34.5 136
q11 55 18.5 108.5t12.5 98t7.5 75t3.5 40.5v3q-1 9 9 19.5t23.5 14t27 -3.5t20.5 -32q2 -8 0.5 -20t-2.5 -29q-2 -28 -3.5 -65t-3 -78.5t-2.5 -86.5t-1 -89q0 -47 -0.5 -88.5t0.5 -72t4.5 -48t11.5 -16.5t22 22t36 67q12 26 22 52t18 46q9 24 16 45q3 8 10.5 12t15.5 1z
M149 749q1 1 6 11t13 22q26 39 46 40t50 -36q10 -11 16 -20.5t7 -10.5q6 -9 3 -16.5t-9.5 -12t-15 -5t-14.5 5.5q-3 3 -9.5 11t-14 16.5t-14 16.5t-9.5 11q-3 -3 -7.5 -9.5l-9 -13l-9 -13t-7.5 -9.5q-4 -4 -9.5 -6t-10 -1t-6 5.5t3.5 13.5z" />
    <glyph glyph-name="Udieresis" unicode="&#xdc;" horiz-adv-x="520" 
d="M546 325q8 -3 11.5 -10t0.5 -15q0 -1 -4.5 -14t-12.5 -33.5t-18.5 -46.5t-22.5 -53q-14 -32 -28 -57.5t-27 -44.5q-37 -52 -70 -52h-2q-13 1 -22 9.5t-15 21t-9.5 28.5t-5.5 31q-5 31 -7.5 73.5t-3.5 98.5v36q-25 -113 -60 -184q-54 -114 -129 -114q-35 0 -59 26
q-30 32 -45 100q-6 29 -10 64t-6 79q-2 39 -2 80.5t1 83t2.5 82t3.5 76.5q2 24 2 45.5t2 41.5q1 12 13.5 21t26.5 10.5t26 -6t14 -26.5q2 -20 0 -42t-4 -46q-2 -36 -3.5 -76.5t-2.5 -82.5t-1 -83.5t2 -80.5q3 -87 15 -136t29.5 -65t38 -2t41.5 53t40.5 99t34.5 136
q11 55 18.5 108.5t12.5 98t7.5 75t3.5 40.5v3q-1 9 9 19.5t23.5 14t27 -3.5t20.5 -32q2 -8 0.5 -20t-2.5 -29q-2 -28 -3.5 -65t-3 -78.5t-2.5 -86.5t-1 -89q0 -47 -0.5 -88.5t0.5 -72t4.5 -48t11.5 -16.5t22 22t36 67q12 26 22 52t18 46q9 24 16 45q3 8 10.5 12t15.5 1z
M281 721q-13 0 -23 14q-10 9 -19 23q-4 6 -14 23.5t-11 32.5q-3 13 2.5 19.5t12.5 8.5q12 3 22.5 -5.5t19.5 -18.5q0 -2 1 -3t1 -2q18 17 34 11l7.5 -5t6.5 -13q1 -9 0 -17q-2 -9 -4 -19.5t-6 -19.5t-10.5 -18.5t-17.5 -10.5h-2zM141 721q-13 0 -23 14q-10 9 -19 23
q-4 6 -14 23.5t-11 32.5q-3 13 2.5 19.5t12.5 8.5q12 3 22.5 -5.5t19.5 -18.5q0 -2 1 -3t1 -2q18 17 34 11l7.5 -5t6.5 -13q1 -9 0 -17q-2 -9 -4 -19.5t-6 -19.5t-10.5 -18.5t-17.5 -10.5h-2z" />
    <glyph glyph-name="Yacute" unicode="&#xdd;" horiz-adv-x="548" 
d="M573 325q8 -2 12 -9.5t2 -15.5q-30 -101 -102 -161q-17 -15 -35.5 -27t-37.5 -22q-7 -97 -21 -166q-31 -159 -101 -178q-20 -5 -34 -5q-21 0 -40 8.5t-33 25.5q-14 16 -22.5 37t-11 45t1 49.5t14.5 49.5q20 50 72 87q21 16 45 28t50 24q3 33 4.5 68.5t2.5 74.5
q1 57 0.5 111t-2.5 103q-4 -26 -8.5 -53.5t-9.5 -55.5q-14 -73 -31.5 -130.5t-37.5 -99.5q-54 -114 -130 -114q-33 0 -59 26q-28 30 -45 100q-6 29 -10 64t-6 79q-2 39 -2 80.5t1 83t3 82t4 76.5q1 24 1.5 45.5t2.5 41.5q1 9 12.5 17.5t25.5 11t26.5 -3.5t15.5 -26t0 -42
t-4 -46q-2 -36 -4 -76.5t-3 -82.5t-1 -83.5t2 -80.5q7 -130 30 -177.5t52.5 -28.5t61 95.5t55.5 195.5q12 60 20 118.5t13 104t7 74l2 28.5q2 9 14 18t26.5 12t27.5 -3t18 -26q0 -1 2.5 -38.5t5 -99t4 -140.5t0.5 -161q-1 -26 -1.5 -51t-2.5 -49q43 26 78 66t55 108
q2 8 9.5 12t15.5 2zM312 -69q5 26 9 55.5t7 62.5q-42 -20 -75.5 -43.5t-51.5 -64.5q-8 -19 -11 -38.5t-1.5 -38.5t7.5 -35t17 -28q13 -16 25.5 -15t22.5 12.5t18.5 30t15 38.5t11 37.5t6.5 26.5zM309 796q-34 -37 -63 -55t-47.5 -20t-22 10t13.5 36q2 2 15.5 26t55.5 69
q12 13 24 8t20 -18t10.5 -29.5t-6.5 -26.5z" />
    <glyph glyph-name="Scaron" unicode="&#x160;" horiz-adv-x="445" 
d="M470 325q8 -2 12 -9.5t2 -15.5q0 -1 -4.5 -14t-13.5 -34t-23.5 -47t-33.5 -54q-45 -66 -103 -104q-37 -24 -84 -35.5t-94 -11.5q-34 0 -63 14.5t-49 34.5q-19 19 -30.5 52t-14.5 70.5t4 75t24 65.5q6 11 15 13.5t15.5 0.5t10 -8t-0.5 -12q-15 -21 -21.5 -53t-5.5 -66
t9.5 -64t24.5 -47q16 -18 37 -23.5t42.5 -1t42 17t35.5 30.5q18 20 26 43t6 46t-14.5 44t-31 39.5t-40.5 36t-44 33.5q-26 19 -48.5 37t-36.5 38q-29 40 -31 98q-1 26 5.5 51.5t19.5 47.5q22 40 56 61q16 9 37 15t42.5 5.5t40.5 -9t30 -28.5q15 -23 17 -53t-1 -54
q-4 -30 -11 -54t-13 -38q-4 -8 -11.5 -11t-15.5 1t-10.5 11.5t0.5 15.5q6 13 12 34.5t9 45t1 45t-11 35.5q-10 17 -34 17q-15 0 -26.5 -5t-20 -12.5t-14.5 -16t-9 -15.5q-9 -17 -13.5 -37.5t-3.5 -42.5t7 -43.5t20 -40.5q11 -16 32 -32.5t45 -33.5q24 -18 48 -36.5t44 -39.5
q48 -51 54 -105q3 -29 -6 -58.5t-29 -55.5q52 32 97 96q18 25 30.5 50t21 44.5t12.5 31.5l4 12q2 8 9.5 11.5t15.5 1.5zM218 795q-1 -1 -6 -11t-13 -22q-26 -39 -46 -40t-50 36q-10 11 -16 20.5t-7 10.5q-6 9 -3 16.5t9.5 12t15 5t14.5 -5.5q3 -3 9.5 -11t14 -16.5t14 -16.5
t9.5 -11q3 3 7.5 9.5l9 13l9 13t7.5 9.5q4 4 9.5 6t10 1t6 -5.5t-3.5 -13.5z" />
    <glyph glyph-name="Ydieresis" unicode="&#x178;" horiz-adv-x="548" 
d="M573 325q8 -2 12 -9.5t2 -15.5q-30 -101 -102 -161q-17 -15 -35.5 -27t-37.5 -22q-7 -97 -21 -166q-31 -159 -101 -178q-20 -5 -34 -5q-21 0 -40 8.5t-33 25.5q-14 16 -22.5 37t-11 45t1 49.5t14.5 49.5q20 50 72 87q21 16 45 28t50 24q3 33 4.5 68.5t2.5 74.5
q1 57 0.5 111t-2.5 103q-4 -26 -8.5 -53.5t-9.5 -55.5q-14 -73 -31.5 -130.5t-37.5 -99.5q-54 -114 -130 -114q-33 0 -59 26q-28 30 -45 100q-6 29 -10 64t-6 79q-2 39 -2 80.5t1 83t3 82t4 76.5q1 24 1.5 45.5t2.5 41.5q1 9 12.5 17.5t25.5 11t26.5 -3.5t15.5 -26t0 -42
t-4 -46q-2 -36 -4 -76.5t-3 -82.5t-1 -83.5t2 -80.5q7 -130 30 -177.5t52.5 -28.5t61 95.5t55.5 195.5q12 60 20 118.5t13 104t7 74l2 28.5q2 9 14 18t26.5 12t27.5 -3t18 -26q0 -1 2.5 -38.5t5 -99t4 -140.5t0.5 -161q-1 -26 -1.5 -51t-2.5 -49q43 26 78 66t55 108
q2 8 9.5 12t15.5 2zM312 -69q5 26 9 55.5t7 62.5q-42 -20 -75.5 -43.5t-51.5 -64.5q-8 -19 -11 -38.5t-1.5 -38.5t7.5 -35t17 -28q13 -16 25.5 -15t22.5 12.5t18.5 30t15 38.5t11 37.5t6.5 26.5zM139 721q-13 0 -23 14q-10 9 -19 23q-4 6 -14 23.5t-11 32.5q-3 13 2.5 19.5
t12.5 8.5q12 3 22.5 -5.5t19.5 -18.5q0 -2 1 -3t1 -2q18 17 34 11l7.5 -5t6.5 -13q1 -9 0 -17q-2 -9 -4 -19.5t-6 -19.5t-10.5 -18.5t-17.5 -10.5h-2zM279 721q-13 0 -23 14q-10 9 -19 23q-4 6 -14 23.5t-11 32.5q-3 13 2.5 19.5t12.5 8.5q12 3 22.5 -5.5t19.5 -18.5
q0 -2 1 -3t1 -2q18 17 34 11l7.5 -5t6.5 -13q1 -9 0 -17q-2 -9 -4 -19.5t-6 -19.5t-10.5 -18.5t-17.5 -10.5h-2z" />
    <glyph glyph-name="Racute" unicode="&#x154;" horiz-adv-x="505" 
d="M531 328q17 -7 12 -26q-14 -36 -33 -85t-41 -95q-32 -65 -58 -94t-52 -29h-12q-49 0 -70 41q-8 16 -11 34.5t-5 37.5q-3 26 -7.5 48t-19.5 33q-20 14 -66 5q-3 0 -5 -1q-19 -3 -24 16q-3 19 16 24q4 0 5 1q45 9 79.5 36.5t59 65t39 81.5t19.5 86q5 58 -7 98
q-9 28 -19.5 35.5t-22 0t-24.5 -27.5t-28 -47q-22 -39 -43.5 -93.5t-44.5 -123.5q-17 -51 -31 -100t-25 -91.5t-19 -75.5t-12 -50q0 -17 -12.5 -26.5t-27.5 -11.5t-27.5 4t-12.5 21v26.5v67.5t1 96t4 112q8 138 21 226q19 117 51 150q10 10 19.5 12.5t15.5 2.5q24 0 36.5 -9
t18.5 -19q19 -34 1 -104q-6 -26 -17.5 -57.5t-27.5 -67.5l-35 -73l-3 -57q-2 -33 -3 -65t-1 -61q9 35 20.5 74.5t25.5 81.5q23 72 46 129t45 99q60 112 119 112q45 0 72 -38q11 -17 18 -39t9 -48q5 -52 -7.5 -110t-40.5 -109q-30 -57 -75 -94q-7 -6 -13.5 -10.5t-13.5 -9.5
q3 -2 5.5 -3.5t4.5 -3.5q25 -20 29 -52t4 -63q2 -84 27 -81t76 106q22 45 40.5 92.5t31.5 83.5q3 8 10.5 11.5t15.5 0.5zM446 796q-34 -37 -63 -55t-47.5 -20t-22 10t13.5 36q2 2 15.5 26t55.5 69q12 13 24 8t20 -18t10.5 -29.5t-6.5 -26.5zM101 502q23 63 32 107t7.5 55.5
t-11 -15t-22.5 -102.5z" />
    <glyph glyph-name="Abreve" unicode="&#x102;" horiz-adv-x="576" 
d="M602 325q8 -3 11.5 -10t0.5 -15q0 -1 -4.5 -14t-12.5 -33.5t-18.5 -46.5t-22.5 -53q-14 -32 -28 -57.5t-27 -44.5q-37 -52 -70 -52h-2q-5 0 -12 2.5t-14 10.5q-21 23 -30 98q-4 29 -5.5 67.5t-1.5 85.5q-1 45 0 90.5t3 88.5q-9 -30 -19 -62t-21 -64l-15 -43
q-1 -8 -2 -11.5t-3 -5.5l-3 -4q-35 -90 -68 -148q-9 -15 -20.5 -33.5t-26 -34t-32.5 -26.5t-39 -11q-11 0 -23.5 4t-25 15.5t-24.5 31t-22 50.5q-13 39 -19.5 92t-6.5 113q0 71 9 138t25 121q8 29 19 52t23 40q30 41 69 41q34 0 62 -22q24 -19 42 -52q13 -24 23 -52t17 -57
t11.5 -57.5t7.5 -52.5q1 -5 1.5 -10t0.5 -10q16 48 28.5 92.5t21.5 78.5t14 54.5l5 20.5q2 7 14.5 13t26.5 7.5t26 -4t12 -21.5q0 -9 -0.5 -22.5t-1.5 -30.5q-2 -27 -3.5 -62t-3 -75t-2 -82t-0.5 -83q0 -88 5 -135.5t10 -69.5q11 14 25.5 38.5t33.5 65.5q12 26 22 52t18 46
q9 24 16 45q7 18 26 13zM274 281q1 17 -1 57t-9 89q-10 70 -27 121.5t-40 79.5q-5 5 -15.5 14t-15.5 9q-16 0 -29.5 -19.5t-24 -52t-18 -76t-11.5 -91.5t-4 -98t4 -95q4 -36 10 -67t15 -54q7 -19 14 -32.5t18 -14.5q14 -1 29 18.5t35 54.5q17 30 34.5 69t35.5 88zM145 721
q-17 0 -28.5 6t-17.5 12q-13 13 -16.5 29t-3.5 26q0 8 6 14t14 6t14 -6t6 -14q0 -9 9.5 -14t21 -5t21.5 5.5t10 17.5q0 8 6 14t14 6t14 -6t6 -14q0 -10 -2.5 -23t-10.5 -25q-7 -10 -21.5 -19.5t-40.5 -9.5h-1z" />
    <glyph glyph-name="Lacute" unicode="&#x139;" horiz-adv-x="538" 
d="M564 325q8 -2 12 -9.5t1 -15.5q0 -1 -4.5 -13.5t-11.5 -33t-17.5 -46t-22.5 -52.5q-73 -154 -141 -154q-32 0 -59.5 6t-52.5 15.5t-46.5 21t-40.5 22.5l-7 3q-6 -11 -15 -21q-17 -20 -40.5 -34t-53.5 -14h-8q-19 0 -32.5 8t-20.5 21q-11 22 -2.5 51t43.5 49q22 13 48 13
q20 1 38 0l4 20q10 48 16.5 106t13.5 118q6 60 12.5 115.5t15.5 99.5q12 49 25 75q19 36 50 36q23 0 36 -9t18 -19q21 -34 6 -104q-11 -53 -39 -124q-12 -30 -24 -57.5t-23 -48.5q-5 -54 -12.5 -104.5t-21.5 -95.5q-2 -7 -4 -13.5t-4 -13.5q28 -8 57.5 -28t59 -35t58.5 -15
t55 33q13 17 26.5 40.5t27.5 53.5q12 26 22.5 51t17.5 44.5t11 32l4 12.5q3 8 10 11.5t15 1.5zM386 812q-34 -37 -63 -55t-47.5 -20t-22 10t13.5 36q2 2 15.5 26t55.5 69q12 13 24 8t20 -18t10.5 -29.5t-6.5 -26.5zM39 48q5 -8 17.5 -8t29.5 8q7 3 15 14t17 35
q-7 2 -12.5 3.5t-11.5 1.5q-2 0 -5 -0.5t-5 -0.5q-2 -1 -5 -1q-4 -1 -7 -2t-7 -3q-20 -12 -25 -25.5t-1 -21.5zM255 479q15 36 24 70.5t13 60.5t3.5 42t-3.5 16t-9.5 -19.5t-13.5 -63.5q-4 -23 -7.5 -50t-6.5 -56z" />
    <glyph glyph-name="Cacute" unicode="&#x106;" horiz-adv-x="369" 
d="M395 325q8 -3 11 -10.5t0 -15.5l-11 -31q-13 -35 -30.5 -80.5t-42.5 -86.5q-29 -46 -60 -71q-40 -31 -85 -31q-46 0 -82 37q-30 30 -53 87q-20 49 -30.5 113.5t-10.5 133.5q0 63 9.5 120t26.5 101q13 33 28.5 54t32 33t32 16.5t29.5 4.5q40 0 64 -27q39 -42 33 -134
q-2 -19 -21 -19q-8 1 -14 7.5t-5 14.5q2 35 -3.5 62.5t-18.5 41.5q-4 3 -7.5 6.5t-7.5 3.5q-14 0 -26 -10t-22.5 -28t-18.5 -42.5t-15 -51.5q-13 -55 -15.5 -120.5t6.5 -130.5q7 -51 19 -92t29 -71t36 -48t42 -14q21 4 38.5 25t35.5 50q23 38 40 81.5t29 77.5q4 9 6.5 17
t5.5 15q3 8 10.5 11.5t15.5 0.5zM267 796q-34 -37 -63 -55t-47.5 -20t-22 10t13.5 36q2 2 15.5 26t55.5 69q12 13 24 8t20 -18t10.5 -29.5t-6.5 -26.5z" />
    <glyph glyph-name="Ccaron" unicode="&#x10c;" horiz-adv-x="369" 
d="M395 325q8 -3 11 -10.5t0 -15.5l-11 -31q-13 -35 -30.5 -80.5t-42.5 -86.5q-29 -46 -60 -71q-40 -31 -85 -31q-46 0 -82 37q-30 30 -53 87q-20 49 -30.5 113.5t-10.5 133.5q0 63 9.5 120t26.5 101q13 33 28.5 54t32 33t32 16.5t29.5 4.5q40 0 64 -27q39 -42 33 -134
q-2 -19 -21 -19q-8 1 -14 7.5t-5 14.5q2 35 -3.5 62.5t-18.5 41.5q-4 3 -7.5 6.5t-7.5 3.5q-14 0 -26 -10t-22.5 -28t-18.5 -42.5t-15 -51.5q-13 -55 -15.5 -120.5t6.5 -130.5q7 -51 19 -92t29 -71t36 -48t42 -14q21 4 38.5 25t35.5 50q23 38 40 81.5t29 77.5q4 9 6.5 17
t5.5 15q3 8 10.5 11.5t15.5 0.5zM225 795q-1 -1 -6 -11t-13 -22q-26 -39 -46 -40t-50 36q-10 11 -16 20.5t-7 10.5q-6 9 -3 16.5t9.5 12t15 5t14.5 -5.5q3 -3 9.5 -11t14 -16.5t14 -16.5t9.5 -11q3 3 7.5 9.5l9 13l9 13t7.5 9.5q4 4 9.5 6t10 1t6 -5.5t-3.5 -13.5z" />
    <glyph glyph-name="Ecaron" unicode="&#x11a;" horiz-adv-x="347" 
d="M384 299l-4 -12t-5 -14q-12 -37 -30 -82.5t-46 -87.5q-70 -103 -174 -103q-41 0 -76 12.5t-63 38.5q-25 23 -40 52.5t-17 62.5q-6 68 39 121q30 34 80 54q-10 8 -18.5 17t-15.5 21q-16 24 -24 55.5t-8 66.5q0 38 9.5 72t27.5 60q43 64 118 64q38 0 65 -27q38 -41 32 -132
q-2 -19 -21 -19q-8 1 -14 7.5t-5 14.5q2 35 -3 61.5t-19 40.5q-11 11 -21 11q-27 0 -45 -17.5t-28.5 -44.5t-13.5 -59t0 -60q3 -25 11 -46t19 -37q24 -31 61 -31q8 0 13.5 -5.5t6.5 -13.5q0 -8 -4.5 -13.5t-12.5 -7.5q-44 -7 -73.5 -23t-47 -36.5t-24.5 -43.5t-5 -44
q2 -24 13.5 -46.5t31.5 -40t48 -26.5t63 -4q39 5 67 30t48.5 59.5t34 72.5t24.5 69l9 27q2 8 9.5 11.5t15.5 0.5q19 -7 12 -26zM203 795q-1 -1 -6 -11t-13 -22q-26 -39 -46 -40t-50 36q-10 11 -16 20.5t-7 10.5q-6 9 -3 16.5t9.5 12t15 5t14.5 -5.5q3 -3 9.5 -11t14 -16.5
t14 -16.5t9.5 -11q3 3 7.5 9.5l9 13l9 13t7.5 9.5q4 4 9.5 6t10 1t6 -5.5t-3.5 -13.5z" />
    <glyph glyph-name="Dcaron" unicode="&#x10e;" horiz-adv-x="567" 
d="M591 325q8 -2 12 -9.5t2 -15.5q0 -1 -4.5 -14t-13.5 -34t-23.5 -47t-33.5 -54q-45 -66 -103 -104q-22 -15 -49 -26.5t-56 -17.5t-58 -5.5t-56 8.5q-44 11 -57 36q-4 7 -2 14.5t10 12.5q7 4 15 2t12 -10q4 -7 19.5 -13t37.5 -7h1q48 8 81.5 64t49.5 152q11 61 11 126.5
t-9 124.5q-5 26 -9 51t-9 44.5t-12.5 32t-19.5 12.5q-14 1 -31.5 -22t-37.5 -60q-21 -39 -43 -93.5t-45 -123.5q-20 -60 -36 -117.5t-28 -104t-18.5 -76.5t-7.5 -35q0 -8 -13 -13.5t-28 -7t-28.5 3.5t-14.5 20q0 1 -0.5 26.5t0 67.5t1.5 96t4 112q3 69 8 125t12 101
q19 117 52 150q10 10 19 12.5t16 2.5q23 0 35.5 -9t18.5 -19q19 -34 1 -104q-6 -26 -17.5 -57.5t-27.5 -67.5l-35 -73l-3 -57q-2 -42 -3 -82.5t-2 -75.5q11 40 24.5 88.5t30.5 99.5q23 72 46 129t45 99q60 112 120 112q18 0 42 -14.5t44 -61.5q14 -30 22.5 -71t13.5 -89
q6 -75 -0.5 -149t-25.5 -135q-18 -64 -48 -104q60 33 108 102q18 25 31 50t21.5 44.5t13 32l4.5 12.5q2 8 9 11.5t15 1.5zM406 795q-1 -1 -6 -11t-13 -22q-26 -39 -46 -40t-50 36q-10 11 -16 20.5t-7 10.5q-6 9 -3 16.5t9.5 12t15 5t14.5 -5.5q3 -3 9.5 -11t14 -16.5
t14 -16.5t9.5 -11q3 3 7.5 9.5l9 13l9 13t7.5 9.5q4 4 9.5 6t10 1t6 -5.5t-3.5 -13.5zM95 502q30 62 37.5 104t3 53.5t-16 -14t-18.5 -98.5z" />
    <glyph glyph-name="Nacute" unicode="&#x143;" horiz-adv-x="601" 
d="M626 328q8 -3 11.5 -10t1.5 -15q0 -1 -4.5 -14t-12.5 -33.5t-18.5 -46.5t-22.5 -53q-14 -32 -28 -58t-27 -45q-36 -54 -71 -54q-25 0 -44 19q-16 17 -24 48.5t-10 82.5q-2 42 0.5 90.5t5.5 97.5q4 52 6 102.5t0 94.5q-3 89 -27 113q-8 8 -19 8h-3q-33 -3 -64 -45
q-15 -20 -30.5 -49.5t-30.5 -67.5q-28 -72 -50.5 -156.5t-42.5 -163.5q-11 -47 -21 -86t-20 -68q-5 -18 -17.5 -23t-26 -2.5t-24.5 10t-12 15.5v26.5v67.5t1 96t4 112q8 138 21 226q19 117 51 150q10 10 19.5 12.5t15.5 2.5q24 0 36.5 -9t18.5 -19q19 -34 1 -104
q-6 -26 -17.5 -57.5t-27.5 -67.5l-35 -73l-3 -57q-2 -40 -3 -78.5t-2 -73.5q2 6 2 9q20 81 43 166t52 160q17 42 33 73t33 54q43 55 93 60h4q51 1 83 -31q24 -25 35.5 -65t14.5 -89t0.5 -105t-6.5 -112q-4 -45 -6.5 -87t-0.5 -77q2 -48 9 -62t17.5 -3.5t25 40.5t32.5 68
q12 27 22 52.5t17.5 45.5t12 32.5l4.5 12.5q2 8 9.5 11.5t15.5 1.5zM450 798q-34 -37 -63 -55t-47.5 -20t-22 10t13.5 36q2 2 15.5 26t55.5 69q12 13 24 8t20 -18t10.5 -29.5t-6.5 -26.5zM101 502q23 61 31.5 102.5t7 52.5t-11 -13.5t-21.5 -96.5z" />
    <glyph glyph-name="Ncaron" unicode="&#x147;" horiz-adv-x="601" 
d="M626 328q8 -3 11.5 -10t1.5 -15q0 -1 -4.5 -14t-12.5 -33.5t-18.5 -46.5t-22.5 -53q-14 -32 -28 -58t-27 -45q-36 -54 -71 -54q-25 0 -44 19q-16 17 -24 48.5t-10 82.5q-2 42 0.5 90.5t5.5 97.5q4 52 6 102.5t0 94.5q-3 89 -27 113q-8 8 -19 8h-3q-33 -3 -64 -45
q-15 -20 -30.5 -49.5t-30.5 -67.5q-28 -72 -50.5 -156.5t-42.5 -163.5q-11 -47 -21 -86t-20 -68q-5 -18 -17.5 -23t-26 -2.5t-24.5 10t-12 15.5v26.5v67.5t1 96t4 112q8 138 21 226q19 117 51 150q10 10 19.5 12.5t15.5 2.5q24 0 36.5 -9t18.5 -19q19 -34 1 -104
q-6 -26 -17.5 -57.5t-27.5 -67.5l-35 -73l-3 -57q-2 -40 -3 -78.5t-2 -73.5q2 6 2 9q20 81 43 166t52 160q17 42 33 73t33 54q43 55 93 60h4q51 1 83 -31q24 -25 35.5 -65t14.5 -89t0.5 -105t-6.5 -112q-4 -45 -6.5 -87t-0.5 -77q2 -48 9 -62t17.5 -3.5t25 40.5t32.5 68
q12 27 22 52.5t17.5 45.5t12 32.5l4.5 12.5q2 8 9.5 11.5t15.5 1.5zM408 797q-1 -1 -6 -11t-13 -22q-26 -39 -46 -40t-50 36q-10 11 -16 20.5t-7 10.5q-6 9 -3 16.5t9.5 12t15 5t14.5 -5.5q3 -3 9.5 -11t14 -16.5t14 -16.5t9.5 -11q3 3 7.5 9.5l9 13l9 13t7.5 9.5q4 4 9.5 6
t10 1t6 -5.5t-3.5 -13.5zM101 502q23 61 31.5 102.5t7 52.5t-11 -13.5t-21.5 -96.5z" />
    <glyph glyph-name="Rcaron" unicode="&#x158;" horiz-adv-x="505" 
d="M531 328q17 -7 12 -26q-14 -36 -33 -85t-41 -95q-32 -65 -58 -94t-52 -29h-12q-49 0 -70 41q-8 16 -11 34.5t-5 37.5q-3 26 -7.5 48t-19.5 33q-20 14 -66 5q-3 0 -5 -1q-19 -3 -24 16q-3 19 16 24q4 0 5 1q45 9 79.5 36.5t59 65t39 81.5t19.5 86q5 58 -7 98
q-9 28 -19.5 35.5t-22 0t-24.5 -27.5t-28 -47q-22 -39 -43.5 -93.5t-44.5 -123.5q-17 -51 -31 -100t-25 -91.5t-19 -75.5t-12 -50q0 -17 -12.5 -26.5t-27.5 -11.5t-27.5 4t-12.5 21v26.5v67.5t1 96t4 112q8 138 21 226q19 117 51 150q10 10 19.5 12.5t15.5 2.5q24 0 36.5 -9
t18.5 -19q19 -34 1 -104q-6 -26 -17.5 -57.5t-27.5 -67.5l-35 -73l-3 -57q-2 -33 -3 -65t-1 -61q9 35 20.5 74.5t25.5 81.5q23 72 46 129t45 99q60 112 119 112q45 0 72 -38q11 -17 18 -39t9 -48q5 -52 -7.5 -110t-40.5 -109q-30 -57 -75 -94q-7 -6 -13.5 -10.5t-13.5 -9.5
q3 -2 5.5 -3.5t4.5 -3.5q25 -20 29 -52t4 -63q2 -84 27 -81t76 106q22 45 40.5 92.5t31.5 83.5q3 8 10.5 11.5t15.5 0.5zM404 795q-1 -1 -6 -11t-13 -22q-26 -39 -46 -40t-50 36q-10 11 -16 20.5t-7 10.5q-6 9 -3 16.5t9.5 12t15 5t14.5 -5.5q3 -3 9.5 -11t14 -16.5
t14 -16.5t9.5 -11q3 3 7.5 9.5l9 13l9 13t7.5 9.5q4 4 9.5 6t10 1t6 -5.5t-3.5 -13.5zM101 502q23 63 32 107t7.5 55.5t-11 -15t-22.5 -102.5z" />
    <glyph glyph-name="Uring" unicode="&#x16e;" horiz-adv-x="520" 
d="M546 325q8 -3 11.5 -10t0.5 -15q0 -1 -4.5 -14t-12.5 -33.5t-18.5 -46.5t-22.5 -53q-14 -32 -28 -57.5t-27 -44.5q-37 -52 -70 -52h-2q-13 1 -22 9.5t-15 21t-9.5 28.5t-5.5 31q-5 31 -7.5 73.5t-3.5 98.5v36q-25 -113 -60 -184q-54 -114 -129 -114q-35 0 -59 26
q-30 32 -45 100q-6 29 -10 64t-6 79q-2 39 -2 80.5t1 83t2.5 82t3.5 76.5q2 24 2 45.5t2 41.5q1 12 13.5 21t26.5 10.5t26 -6t14 -26.5q2 -20 0 -42t-4 -46q-2 -36 -3.5 -76.5t-2.5 -82.5t-1 -83.5t2 -80.5q3 -87 15 -136t29.5 -65t38 -2t41.5 53t40.5 99t34.5 136
q11 55 18.5 108.5t12.5 98t7.5 75t3.5 40.5v3q-1 9 9 19.5t23.5 14t27 -3.5t20.5 -32q2 -8 0.5 -20t-2.5 -29q-2 -28 -3.5 -65t-3 -78.5t-2.5 -86.5t-1 -89q0 -47 -0.5 -88.5t0.5 -72t4.5 -48t11.5 -16.5t22 22t36 67q12 26 22 52t18 46q9 24 16 45q3 8 10.5 12t15.5 1z
M203 718q-20 0 -35 12t-20 34q-3 13 -1.5 28t8 28t17.5 23t27 14q15 4 29 0t24 -15q14 -14 18 -34.5t-3 -40.5q-5 -19 -18.5 -31t-31.5 -16q-4 -1 -7 -1.5t-7 -0.5zM214 819q-3 0 -5 -1q-15 -4 -20 -18.5t-2 -26.5q3 -14 10.5 -14.5t10.5 0.5q10 2 14.5 8t6.5 12
q3 10 1.5 20t-7.5 16q-4 4 -9 4z" />
    <glyph glyph-name="Zcaron" unicode="&#x17d;" horiz-adv-x="545" 
d="M570 324q8 -2 11.5 -9.5t1.5 -15.5q-15 -49 -35.5 -84.5t-44 -60.5t-49.5 -42.5t-52 -30.5l5 -17q5 -21 7 -43t0 -45q-3 -45 -19.5 -87t-42.5 -75q-28 -35 -62 -54t-71 -19h-4q-23 1 -42 13.5t-30 33.5q-19 38 -7 90.5t54 111.5q26 37 59.5 58t68.5 38q-23 48 -69.5 77.5
t-115.5 37.5q-16 2 -18 18t14 21q102 33 171 88t91 120q24 78 -25 148q-13 19 -36.5 35t-53.5 16q-51 0 -90 -16t-67 -42.5t-46 -61t-27.5 -72.5t-11 -76t3.5 -71q1 -8 -4 -13t-12 -5t-14 5t-8 18q-6 49 -5 90.5t10.5 77.5t29.5 68.5t53 64.5q37 35 87.5 55t103.5 18
q51 0 94 -18t66 -50q61 -88 29 -184q-24 -73 -101 -136q-26 -21 -56 -39t-65 -34q25 -8 46 -19q46 -23 76 -62l18 -27q24 12 46.5 27.5t43 38t38 53.5t31.5 74q2 8 9.5 12t15.5 1zM223 -33q-35 -49 -46.5 -91.5t2.5 -69.5q2 -5 8 -12.5t14 -7.5q29 0 54.5 20.5t43.5 53
t28 72t8 78.5q0 18 -5 38q-31 -15 -58.5 -33t-48.5 -48zM341 795q-1 -1 -6 -11t-13 -22q-26 -39 -46 -40t-50 36q-10 11 -16 20.5t-7 10.5q-6 9 -3 16.5t9.5 12t15 5t14.5 -5.5q3 -3 9.5 -11t14 -16.5t14 -16.5t9.5 -11q3 3 7.5 9.5l9 13l9 13t7.5 9.5q4 4 9.5 6t10 1
t6 -5.5t-3.5 -13.5z" />
    <glyph glyph-name="agrave" unicode="&#xe0;" 
d="M421 325q7 -2 11.5 -6.5t2.5 -12.5q-1 -3 -2.5 -9.5t-7.5 -22.5t-17 -44t-32 -76q-68 -155 -127 -155q-5 0 -12 2t-14 10q-6 6 -11 15t-9.5 27.5t-8.5 48.5t-8 78l-9 -25q-6 -14 -16.5 -40.5t-25.5 -52t-34 -44.5t-41 -19q-12 0 -26.5 9t-27 30.5t-21.5 57t-10 88.5
q0 48 7.5 80t19 51t24.5 27t25 8q13 0 28 -6.5t29 -22t26.5 -42t21.5 -65.5q12 37 17 51.5t6.5 19t1 4.5t1.5 7q3 14 20.5 24.5t34.5 10.5q11 0 19.5 -5t8.5 -18q0 -12 -1 -24.5t-1 -26.5q0 -30 1 -64t3 -62.5t4.5 -47t5.5 -18.5q5 0 15.5 17.5t23.5 44t26.5 58t25 59
t19.5 46.5t9 22q2 7 7.5 10.5t11.5 3.5q2 0 3 -0.5t3 -0.5zM126 137q0 3 1 4q0 1 -2 13t-5.5 29.5t-8 37.5t-11 37t-13.5 28.5t-15 11.5q-7 0 -12 -27t-5 -79q0 -49 8 -84t18 -52q8 10 19.5 29t25.5 52zM-49 451q-9 10 -7 26.5t10.5 29.5t20.5 18t24 -8q42 -45 55.5 -69
t15.5 -26q17 -24 13.5 -36t-22 -10t-47.5 20t-63 55z" />
    <glyph glyph-name="aacute" unicode="&#xe1;" 
d="M421 325q7 -2 11.5 -6.5t2.5 -12.5q-1 -3 -2.5 -9.5t-7.5 -22.5t-17 -44t-32 -76q-68 -155 -127 -155q-5 0 -12 2t-14 10q-6 6 -11 15t-9.5 27.5t-8.5 48.5t-8 78l-9 -25q-6 -14 -16.5 -40.5t-25.5 -52t-34 -44.5t-41 -19q-12 0 -26.5 9t-27 30.5t-21.5 57t-10 88.5
q0 48 7.5 80t19 51t24.5 27t25 8q13 0 28 -6.5t29 -22t26.5 -42t21.5 -65.5q12 37 17 51.5t6.5 19t1 4.5t1.5 7q3 14 20.5 24.5t34.5 10.5q11 0 19.5 -5t8.5 -18q0 -12 -1 -24.5t-1 -26.5q0 -30 1 -64t3 -62.5t4.5 -47t5.5 -18.5q5 0 15.5 17.5t23.5 44t26.5 58t25 59
t19.5 46.5t9 22q2 7 7.5 10.5t11.5 3.5q2 0 3 -0.5t3 -0.5zM126 137q0 3 1 4q0 1 -2 13t-5.5 29.5t-8 37.5t-11 37t-13.5 28.5t-15 11.5q-7 0 -12 -27t-5 -79q0 -49 8 -84t18 -52q8 10 19.5 29t25.5 52zM159 451q-34 -37 -63 -55t-47.5 -20t-22 10t13.5 36q2 2 15.5 26
t55.5 69q12 13 24 8t20 -18t10.5 -29.5t-6.5 -26.5z" />
    <glyph glyph-name="acircumflex" unicode="&#xe2;" 
d="M421 325q7 -2 11.5 -6.5t2.5 -12.5q-1 -3 -2.5 -9.5t-7.5 -22.5t-17 -44t-32 -76q-68 -155 -127 -155q-5 0 -12 2t-14 10q-6 6 -11 15t-9.5 27.5t-8.5 48.5t-8 78l-9 -25q-6 -14 -16.5 -40.5t-25.5 -52t-34 -44.5t-41 -19q-12 0 -26.5 9t-27 30.5t-21.5 57t-10 88.5
q0 48 7.5 80t19 51t24.5 27t25 8q13 0 28 -6.5t29 -22t26.5 -42t21.5 -65.5q12 37 17 51.5t6.5 19t1 4.5t1.5 7q3 14 20.5 24.5t34.5 10.5q11 0 19.5 -5t8.5 -18q0 -12 -1 -24.5t-1 -26.5q0 -30 1 -64t3 -62.5t4.5 -47t5.5 -18.5q5 0 15.5 17.5t23.5 44t26.5 58t25 59
t19.5 46.5t9 22q2 7 7.5 10.5t11.5 3.5q2 0 3 -0.5t3 -0.5zM126 137q0 3 1 4q0 1 -2 13t-5.5 29.5t-8 37.5t-11 37t-13.5 28.5t-15 11.5q-7 0 -12 -27t-5 -79q0 -49 8 -84t18 -52q8 10 19.5 29t25.5 52zM-3 404q1 1 6 11t13 22q26 39 46 40t50 -36q10 -11 16 -20.5t7 -10.5
q6 -9 3 -16.5t-9.5 -12t-15 -5t-14.5 5.5q-3 3 -9.5 11t-14 16.5t-14 16.5t-9.5 11q-3 -3 -7.5 -9.5l-9 -13l-9 -13t-7.5 -9.5q-4 -4 -9.5 -6t-10 -1t-6 5.5t3.5 13.5z" />
    <glyph glyph-name="atilde" unicode="&#xe3;" 
d="M421 325q7 -2 11.5 -6.5t2.5 -12.5q-1 -3 -2.5 -9.5t-7.5 -22.5t-17 -44t-32 -76q-68 -155 -127 -155q-5 0 -12 2t-14 10q-6 6 -11 15t-9.5 27.5t-8.5 48.5t-8 78l-9 -25q-6 -14 -16.5 -40.5t-25.5 -52t-34 -44.5t-41 -19q-12 0 -26.5 9t-27 30.5t-21.5 57t-10 88.5
q0 48 7.5 80t19 51t24.5 27t25 8q13 0 28 -6.5t29 -22t26.5 -42t21.5 -65.5q12 37 17 51.5t6.5 19t1 4.5t1.5 7q3 14 20.5 24.5t34.5 10.5q11 0 19.5 -5t8.5 -18q0 -12 -1 -24.5t-1 -26.5q0 -30 1 -64t3 -62.5t4.5 -47t5.5 -18.5q5 0 15.5 17.5t23.5 44t26.5 58t25 59
t19.5 46.5t9 22q2 7 7.5 10.5t11.5 3.5q2 0 3 -0.5t3 -0.5zM126 137q0 3 1 4q0 1 -2 13t-5.5 29.5t-8 37.5t-11 37t-13.5 28.5t-15 11.5q-7 0 -12 -27t-5 -79q0 -49 8 -84t18 -52q8 10 19.5 29t25.5 52zM97 376q-13 1 -26.5 8t-24 13.5t-17.5 10t-7 -2.5q-1 -8 -7.5 -13.5
t-14.5 -3.5q-8 1 -13.5 7.5t-4.5 14.5q2 18 12.5 34.5t25.5 20.5q13 4 27.5 -2t26.5 -13.5t19.5 -13.5t7.5 -2q0 8 6 14t14 6t14 -6t6 -14q0 -21 -12 -39.5t-32 -18.5z" />
    <glyph glyph-name="adieresis" unicode="&#xe4;" 
d="M421 325q7 -2 11.5 -6.5t2.5 -12.5q-1 -3 -2.5 -9.5t-7.5 -22.5t-17 -44t-32 -76q-68 -155 -127 -155q-5 0 -12 2t-14 10q-6 6 -11 15t-9.5 27.5t-8.5 48.5t-8 78l-9 -25q-6 -14 -16.5 -40.5t-25.5 -52t-34 -44.5t-41 -19q-12 0 -26.5 9t-27 30.5t-21.5 57t-10 88.5
q0 48 7.5 80t19 51t24.5 27t25 8q13 0 28 -6.5t29 -22t26.5 -42t21.5 -65.5q12 37 17 51.5t6.5 19t1 4.5t1.5 7q3 14 20.5 24.5t34.5 10.5q11 0 19.5 -5t8.5 -18q0 -12 -1 -24.5t-1 -26.5q0 -30 1 -64t3 -62.5t4.5 -47t5.5 -18.5q5 0 15.5 17.5t23.5 44t26.5 58t25 59
t19.5 46.5t9 22q2 7 7.5 10.5t11.5 3.5q2 0 3 -0.5t3 -0.5zM126 137q0 3 1 4q0 1 -2 13t-5.5 29.5t-8 37.5t-11 37t-13.5 28.5t-15 11.5q-7 0 -12 -27t-5 -79q0 -49 8 -84t18 -52q8 10 19.5 29t25.5 52zM-11 376q-13 0 -23 14q-10 9 -19 23q-4 6 -14 23.5t-11 32.5
q-3 13 2.5 19.5t12.5 8.5q12 3 22.5 -5.5t19.5 -18.5q0 -2 1 -3t1 -2q18 17 34 11l7.5 -5t6.5 -13q1 -9 0 -17q-2 -9 -4 -19.5t-6 -19.5t-10.5 -18.5t-17.5 -10.5h-2zM129 376q-13 0 -23 14q-10 9 -19 23q-4 6 -14 23.5t-11 32.5q-3 13 2.5 19.5t12.5 8.5q12 3 22.5 -5.5
t19.5 -18.5q0 -2 1 -3t1 -2q18 17 34 11l7.5 -5t6.5 -13q1 -9 0 -17q-2 -9 -4 -19.5t-6 -19.5t-10.5 -18.5t-17.5 -10.5h-2z" />
    <glyph glyph-name="aring" unicode="&#xe5;" 
d="M421 325q7 -2 11.5 -6.5t2.5 -12.5q-1 -3 -2.5 -9.5t-7.5 -22.5t-17 -44t-32 -76q-68 -155 -127 -155q-5 0 -12 2t-14 10q-6 6 -11 15t-9.5 27.5t-8.5 48.5t-8 78l-9 -25q-6 -14 -16.5 -40.5t-25.5 -52t-34 -44.5t-41 -19q-12 0 -26.5 9t-27 30.5t-21.5 57t-10 88.5
q0 48 7.5 80t19 51t24.5 27t25 8q13 0 28 -6.5t29 -22t26.5 -42t21.5 -65.5q12 37 17 51.5t6.5 19t1 4.5t1.5 7q3 14 20.5 24.5t34.5 10.5q11 0 19.5 -5t8.5 -18q0 -12 -1 -24.5t-1 -26.5q0 -30 1 -64t3 -62.5t4.5 -47t5.5 -18.5q5 0 15.5 17.5t23.5 44t26.5 58t25 59
t19.5 46.5t9 22q2 7 7.5 10.5t11.5 3.5q2 0 3 -0.5t3 -0.5zM51 373q-20 0 -35 12t-20 34q-3 13 -1.5 28t8 28t17.5 23t27 14q15 4 29 0t24 -15q14 -14 18 -34.5t-3 -40.5q-5 -19 -18.5 -31t-31.5 -16q-4 -1 -7 -1.5t-7 -0.5zM126 137q0 3 1 4q0 1 -2 13t-5.5 29.5t-8 37.5
t-11 37t-13.5 28.5t-15 11.5q-7 0 -12 -27t-5 -79q0 -49 8 -84t18 -52q8 10 19.5 29t25.5 52zM62 474q-3 0 -5 -1q-15 -4 -20 -18.5t-2 -26.5q3 -14 10.5 -14.5t10.5 0.5q10 2 14.5 8t6.5 12q3 10 1.5 20t-7.5 16q-4 4 -9 4z" />
    <glyph glyph-name="egrave" unicode="&#xe8;" horiz-adv-x="228" 
d="M253 325q8 -3 12 -10t1 -15q0 -1 -4.5 -14t-12.5 -33t-18.5 -46t-22.5 -53q-15 -32 -28.5 -57.5t-26.5 -44.5q-38 -53 -71 -53q-8 0 -18 3t-19.5 12t-19.5 24.5t-18 40.5q-11 30 -16.5 67t-5.5 73q0 18 2 41.5t10 43.5q11 31 26.5 38.5t25.5 7.5q43 0 59 -44
q14 -42 -6 -98q-10 -31 -32 -59q10 -50 19.5 -68.5t21.5 -12.5t26.5 33t34.5 70q12 26 22 51.5t18 45.5q9 23 16 44q3 8 10 11.5t15 1.5zM-51 451q-9 10 -7 26.5t10.5 29.5t20.5 18t24 -8q42 -45 55.5 -69t15.5 -26q17 -24 13.5 -36t-22 -10t-47.5 20t-63 55zM65 222
q13 39 11 59.5t-7.5 21t-9.5 -20.5t4 -64z" />
    <glyph glyph-name="eacute" unicode="&#xe9;" horiz-adv-x="228" 
d="M253 325q8 -3 12 -10t1 -15q0 -1 -4.5 -14t-12.5 -33t-18.5 -46t-22.5 -53q-15 -32 -28.5 -57.5t-26.5 -44.5q-38 -53 -71 -53q-8 0 -18 3t-19.5 12t-19.5 24.5t-18 40.5q-11 30 -16.5 67t-5.5 73q0 18 2 41.5t10 43.5q11 31 26.5 38.5t25.5 7.5q43 0 59 -44
q14 -42 -6 -98q-10 -31 -32 -59q10 -50 19.5 -68.5t21.5 -12.5t26.5 33t34.5 70q12 26 22 51.5t18 45.5q9 23 16 44q3 8 10 11.5t15 1.5zM157 451q-34 -37 -63 -55t-47.5 -20t-22 10t13.5 36q2 2 15.5 26t55.5 69q12 13 24 8t20 -18t10.5 -29.5t-6.5 -26.5zM65 222
q13 39 11 59.5t-7.5 21t-9.5 -20.5t4 -64z" />
    <glyph glyph-name="ecircumflex" unicode="&#xea;" horiz-adv-x="228" 
d="M253 325q8 -3 12 -10t1 -15q0 -1 -4.5 -14t-12.5 -33t-18.5 -46t-22.5 -53q-15 -32 -28.5 -57.5t-26.5 -44.5q-38 -53 -71 -53q-8 0 -18 3t-19.5 12t-19.5 24.5t-18 40.5q-11 30 -16.5 67t-5.5 73q0 18 2 41.5t10 43.5q11 31 26.5 38.5t25.5 7.5q43 0 59 -44
q14 -42 -6 -98q-10 -31 -32 -59q10 -50 19.5 -68.5t21.5 -12.5t26.5 33t34.5 70q12 26 22 51.5t18 45.5q9 23 16 44q3 8 10 11.5t15 1.5zM-5 404q1 1 6 11t13 22q26 39 46 40t50 -36q10 -11 16 -20.5t7 -10.5q6 -9 3 -16.5t-9.5 -12t-15 -5t-14.5 5.5q-3 3 -9.5 11t-14 16.5
t-14 16.5t-9.5 11q-3 -3 -7.5 -9.5l-9 -13l-9 -13t-7.5 -9.5q-4 -4 -9.5 -6t-10 -1t-6 5.5t3.5 13.5zM65 222q13 39 11 59.5t-7.5 21t-9.5 -20.5t4 -64z" />
    <glyph glyph-name="edieresis" unicode="&#xeb;" horiz-adv-x="228" 
d="M253 325q8 -3 12 -10t1 -15q0 -1 -4.5 -14t-12.5 -33t-18.5 -46t-22.5 -53q-15 -32 -28.5 -57.5t-26.5 -44.5q-38 -53 -71 -53q-8 0 -18 3t-19.5 12t-19.5 24.5t-18 40.5q-11 30 -16.5 67t-5.5 73q0 18 2 41.5t10 43.5q11 31 26.5 38.5t25.5 7.5q43 0 59 -44
q14 -42 -6 -98q-10 -31 -32 -59q10 -50 19.5 -68.5t21.5 -12.5t26.5 33t34.5 70q12 26 22 51.5t18 45.5q9 23 16 44q3 8 10 11.5t15 1.5zM127 376q-13 0 -23 14q-10 9 -19 23q-4 6 -14 23.5t-11 32.5q-3 13 2.5 19.5t12.5 8.5q12 3 22.5 -5.5t19.5 -18.5q0 -2 1 -3t1 -2
q18 17 34 11l7.5 -5t6.5 -13q1 -9 0 -17q-2 -9 -4 -19.5t-6 -19.5t-10.5 -18.5t-17.5 -10.5h-2zM-13 376q-13 0 -23 14q-10 9 -19 23q-4 6 -14 23.5t-11 32.5q-3 13 2.5 19.5t12.5 8.5q12 3 22.5 -5.5t19.5 -18.5q0 -2 1 -3t1 -2q18 17 34 11l7.5 -5t6.5 -13q1 -9 0 -17
q-2 -9 -4 -19.5t-6 -19.5t-10.5 -18.5t-17.5 -10.5h-2zM65 222q13 39 11 59.5t-7.5 21t-9.5 -20.5t4 -64z" />
    <glyph glyph-name="igrave" unicode="&#xec;" horiz-adv-x="208" 
d="M233 325q8 -3 11.5 -10t1.5 -15q0 -1 -4.5 -14t-12.5 -33t-18.5 -46t-22.5 -53q-15 -32 -28.5 -57.5t-27.5 -44.5q-37 -53 -71 -53q-5 0 -12 2t-14 10q-4 4 -9 12t-9.5 23t-9 38.5t-7.5 59.5q-4 54 -3 95.5t0 57.5q-1 18 11.5 29t28 12.5t28 -6.5t12.5 -27
q-1 -32 -1.5 -73.5t0.5 -78.5t4.5 -62.5t11.5 -25.5q3 0 9 9t14 23.5t17.5 33.5t18.5 39q12 26 22 52t18 46q9 24 17 44q2 8 9.5 11.5t15.5 1.5zM-67 451q-9 10 -7 26.5t10.5 29.5t20.5 18t24 -8q42 -45 55.5 -69t15.5 -26q17 -24 13.5 -36t-22 -10t-47.5 20t-63 55z" />
    <glyph glyph-name="iacute" unicode="&#xed;" horiz-adv-x="208" 
d="M233 325q8 -3 11.5 -10t1.5 -15q0 -1 -4.5 -14t-12.5 -33t-18.5 -46t-22.5 -53q-15 -32 -28.5 -57.5t-27.5 -44.5q-37 -53 -71 -53q-5 0 -12 2t-14 10q-4 4 -9 12t-9.5 23t-9 38.5t-7.5 59.5q-4 54 -3 95.5t0 57.5q-1 18 11.5 29t28 12.5t28 -6.5t12.5 -27
q-1 -32 -1.5 -73.5t0.5 -78.5t4.5 -62.5t11.5 -25.5q3 0 9 9t14 23.5t17.5 33.5t18.5 39q12 26 22 52t18 46q9 24 17 44q2 8 9.5 11.5t15.5 1.5zM141 451q-34 -37 -63 -55t-47.5 -20t-22 10t13.5 36q2 2 15.5 26t55.5 69q12 13 24 8t20 -18t10.5 -29.5t-6.5 -26.5z" />
    <glyph glyph-name="icircumflex" unicode="&#xee;" horiz-adv-x="208" 
d="M233 325q8 -3 11.5 -10t1.5 -15q0 -1 -4.5 -14t-12.5 -33t-18.5 -46t-22.5 -53q-15 -32 -28.5 -57.5t-27.5 -44.5q-37 -53 -71 -53q-5 0 -12 2t-14 10q-4 4 -9 12t-9.5 23t-9 38.5t-7.5 59.5q-4 54 -3 95.5t0 57.5q-1 18 11.5 29t28 12.5t28 -6.5t12.5 -27
q-1 -32 -1.5 -73.5t0.5 -78.5t4.5 -62.5t11.5 -25.5q3 0 9 9t14 23.5t17.5 33.5t18.5 39q12 26 22 52t18 46q9 24 17 44q2 8 9.5 11.5t15.5 1.5zM-21 404q1 1 6 11t13 22q26 39 46 40t50 -36q10 -11 16 -20.5t7 -10.5q6 -9 3 -16.5t-9.5 -12t-15 -5t-14.5 5.5q-3 3 -9.5 11
t-14 16.5t-14 16.5t-9.5 11q-3 -3 -7.5 -9.5l-9 -13l-9 -13t-7.5 -9.5q-4 -4 -9.5 -6t-10 -1t-6 5.5t3.5 13.5z" />
    <glyph glyph-name="idieresis" unicode="&#xef;" horiz-adv-x="208" 
d="M233 325q8 -3 11.5 -10t1.5 -15q0 -1 -4.5 -14t-12.5 -33t-18.5 -46t-22.5 -53q-15 -32 -28.5 -57.5t-27.5 -44.5q-37 -53 -71 -53q-5 0 -12 2t-14 10q-4 4 -9 12t-9.5 23t-9 38.5t-7.5 59.5q-4 54 -3 95.5t0 57.5q-1 18 11.5 29t28 12.5t28 -6.5t12.5 -27
q-1 -32 -1.5 -73.5t0.5 -78.5t4.5 -62.5t11.5 -25.5q3 0 9 9t14 23.5t17.5 33.5t18.5 39q12 26 22 52t18 46q9 24 17 44q2 8 9.5 11.5t15.5 1.5zM111 376q-13 0 -23 14q-10 9 -19 23q-4 6 -14 23.5t-11 32.5q-3 13 2.5 19.5t12.5 8.5q12 3 22.5 -5.5t19.5 -18.5q0 -2 1 -3
t1 -2q18 17 34 11l7.5 -5t6.5 -13q1 -9 0 -17q-2 -9 -4 -19.5t-6 -19.5t-10.5 -18.5t-17.5 -10.5h-2zM-29 376q-13 0 -23 14q-10 9 -19 23q-4 6 -14 23.5t-11 32.5q-3 13 2.5 19.5t12.5 8.5q12 3 22.5 -5.5t19.5 -18.5q0 -2 1 -3t1 -2q18 17 34 11l7.5 -5t6.5 -13
q1 -9 0 -17q-2 -9 -4 -19.5t-6 -19.5t-10.5 -18.5t-17.5 -10.5h-2z" />
    <glyph glyph-name="ntilde" unicode="&#xf1;" horiz-adv-x="373" 
d="M399 324q8 -2 11.5 -9.5t1.5 -15.5q0 -1 -4.5 -14t-12.5 -33.5t-18.5 -47t-22.5 -53.5q-36 -78 -67.5 -114.5t-62.5 -36.5h-5q-12 1 -19 8.5t-10.5 17t-5 19t-1.5 14.5q-2 19 -1 42t3 48q2 23 2.5 44.5t-0.5 40.5q0 4 -0.5 12.5t-2.5 15t-5.5 8t-9.5 -9.5
q-10 -16 -19 -51q-8 -32 -13.5 -69t-9.5 -66q-2 -14 -3.5 -28.5t-5.5 -28.5q-2 -6 -13 -12t-25.5 -8.5t-29 0.5t-23.5 14q-4 4 -8.5 12t-9 23t-8.5 38.5t-7 59.5q-3 49 -4.5 86t0.5 57q1 17 14 29t27.5 15.5t27 -2.5t14.5 -24q1 -11 0.5 -28.5t-0.5 -39.5v-46.5t2 -48.5
q2 -29 5 -47.5t5 -30.5l3 15q6 47 13 89.5t17 74.5t24.5 51t35.5 19q30 0 46 -22t23 -52t8 -61.5t2 -50.5v-15t0.5 -19.5t1 -16.5t2.5 -7q3 0 9.5 9.5t14.5 24.5t16.5 32.5t15.5 32.5q12 26 22 52t18 46q9 24 16 45q3 8 10.5 12t15.5 1zM224 376q-13 1 -26.5 8t-24 13.5
t-17.5 10t-7 -2.5q-1 -8 -7.5 -13.5t-14.5 -3.5q-8 1 -13.5 7.5t-4.5 14.5q2 18 12.5 34.5t25.5 20.5q13 4 27.5 -2t26.5 -13.5t19.5 -13.5t7.5 -2q0 8 6 14t14 6t14 -6t6 -14q0 -21 -12 -39.5t-32 -18.5z" />
    <glyph glyph-name="ograve" unicode="&#xf2;" horiz-adv-x="243" 
d="M269 324q8 -3 11 -10.5t0 -15.5q-15 -37 -42.5 -66.5t-63.5 -49.5v-12t-1 -12q-3 -62 -25 -104q-28 -53 -78 -53q-1 -1 -2 -1q-35 0 -60 28q-19 22 -30 62q-5 20 -8 44.5t-2 50.5q-23 18 -26 52q-2 29 11 60q18 38 47 59q36 25 78 19q27 -3 48 -27q8 -11 15.5 -23.5
t13.5 -29.5q5 -15 9.5 -32.5t6.5 -35.5q50 32 72 86q3 8 10.5 11t15.5 0zM-25 488q-9 10 -7 26.5t10.5 29.5t20.5 18t24 -8q42 -45 55.5 -69t15.5 -26q17 -24 13.5 -36t-22 -10t-47.5 20t-63 55zM74 310q3 -14 -9 -21q-3 -5 -8 -22.5t-8 -49.5q0 -5 -0.5 -11t-0.5 -11
q14 -2 29.5 -1t32.5 6q13 3 23 7q-3 40 -16 74q-8 25 -20 39t-24 16q-14 2 -25.5 -1.5t-21.5 -9.5h28q15 0 20 -15zM134 165l-14 -4q-36 -9 -71 -7q1 -28 8 -54q4 -13 9 -26t12 -19.5t15.5 -3.5t19.5 22q8 16 13.5 38.5t7.5 48.5v5z" />
    <glyph glyph-name="oacute" unicode="&#xf3;" horiz-adv-x="243" 
d="M269 324q8 -3 11 -10.5t0 -15.5q-15 -37 -42.5 -66.5t-63.5 -49.5v-12t-1 -12q-3 -62 -25 -104q-28 -53 -78 -53q-1 -1 -2 -1q-35 0 -60 28q-19 22 -30 62q-5 20 -8 44.5t-2 50.5q-23 18 -26 52q-2 29 11 60q18 38 47 59q36 25 78 19q27 -3 48 -27q8 -11 15.5 -23.5
t13.5 -29.5q5 -15 9.5 -32.5t6.5 -35.5q50 32 72 86q3 8 10.5 11t15.5 0zM183 488q-34 -37 -63 -55t-47.5 -20t-22 10t13.5 36q2 2 15.5 26t55.5 69q12 13 24 8t20 -18t10.5 -29.5t-6.5 -26.5zM74 310q3 -14 -9 -21q-3 -5 -8 -22.5t-8 -49.5q0 -5 -0.5 -11t-0.5 -11
q14 -2 29.5 -1t32.5 6q13 3 23 7q-3 40 -16 74q-8 25 -20 39t-24 16q-14 2 -25.5 -1.5t-21.5 -9.5h28q15 0 20 -15zM134 165l-14 -4q-36 -9 -71 -7q1 -28 8 -54q4 -13 9 -26t12 -19.5t15.5 -3.5t19.5 22q8 16 13.5 38.5t7.5 48.5v5z" />
    <glyph glyph-name="ocircumflex" unicode="&#xf4;" horiz-adv-x="243" 
d="M269 324q8 -3 11 -10.5t0 -15.5q-15 -37 -42.5 -66.5t-63.5 -49.5v-12t-1 -12q-3 -62 -25 -104q-28 -53 -78 -53q-1 -1 -2 -1q-35 0 -60 28q-19 22 -30 62q-5 20 -8 44.5t-2 50.5q-23 18 -26 52q-2 29 11 60q18 38 47 59q36 25 78 19q27 -3 48 -27q8 -11 15.5 -23.5
t13.5 -29.5q5 -15 9.5 -32.5t6.5 -35.5q50 32 72 86q3 8 10.5 11t15.5 0zM74 310q3 -14 -9 -21q-3 -5 -8 -22.5t-8 -49.5q0 -5 -0.5 -11t-0.5 -11q14 -2 29.5 -1t32.5 6q13 3 23 7q-3 40 -16 74q-8 25 -20 39t-24 16q-14 2 -25.5 -1.5t-21.5 -9.5h28q15 0 20 -15zM21 441
q1 1 6 11t13 22q26 39 46 40t50 -36q10 -11 16 -20.5t7 -10.5q6 -9 3 -16.5t-9.5 -12t-15 -5t-14.5 5.5q-3 3 -9.5 11t-14 16.5t-14 16.5t-9.5 11q-3 -3 -7.5 -9.5l-9 -13l-9 -13t-7.5 -9.5q-4 -4 -9.5 -6t-10 -1t-6 5.5t3.5 13.5zM134 165l-14 -4q-36 -9 -71 -7
q1 -28 8 -54q4 -13 9 -26t12 -19.5t15.5 -3.5t19.5 22q8 16 13.5 38.5t7.5 48.5v5z" />
    <glyph glyph-name="otilde" unicode="&#xf5;" horiz-adv-x="243" 
d="M269 324q8 -3 11 -10.5t0 -15.5q-15 -37 -42.5 -66.5t-63.5 -49.5v-12t-1 -12q-3 -62 -25 -104q-28 -53 -78 -53q-1 -1 -2 -1q-35 0 -60 28q-19 22 -30 62q-5 20 -8 44.5t-2 50.5q-23 18 -26 52q-2 29 11 60q18 38 47 59q36 25 78 19q27 -3 48 -27q8 -11 15.5 -23.5
t13.5 -29.5q5 -15 9.5 -32.5t6.5 -35.5q50 32 72 86q3 8 10.5 11t15.5 0zM121 413q-13 1 -26.5 8t-24 13.5t-17.5 10t-7 -2.5q-1 -8 -7.5 -13.5t-14.5 -3.5q-8 1 -13.5 7.5t-4.5 14.5q2 18 12.5 34.5t25.5 20.5q13 4 27.5 -2t26.5 -13.5t19.5 -13.5t7.5 -2q0 8 6 14t14 6
t14 -6t6 -14q0 -21 -12 -39.5t-32 -18.5zM74 310q3 -14 -9 -21q-3 -5 -8 -22.5t-8 -49.5q0 -5 -0.5 -11t-0.5 -11q14 -2 29.5 -1t32.5 6q13 3 23 7q-3 40 -16 74q-8 25 -20 39t-24 16q-14 2 -25.5 -1.5t-21.5 -9.5h28q15 0 20 -15zM134 165l-14 -4q-36 -9 -71 -7
q1 -28 8 -54q4 -13 9 -26t12 -19.5t15.5 -3.5t19.5 22q8 16 13.5 38.5t7.5 48.5v5z" />
    <glyph glyph-name="odieresis" unicode="&#xf6;" horiz-adv-x="243" 
d="M269 324q8 -3 11 -10.5t0 -15.5q-15 -37 -42.5 -66.5t-63.5 -49.5v-12t-1 -12q-3 -62 -25 -104q-28 -53 -78 -53q-1 -1 -2 -1q-35 0 -60 28q-19 22 -30 62q-5 20 -8 44.5t-2 50.5q-23 18 -26 52q-2 29 11 60q18 38 47 59q36 25 78 19q27 -3 48 -27q8 -11 15.5 -23.5
t13.5 -29.5q5 -15 9.5 -32.5t6.5 -35.5q50 32 72 86q3 8 10.5 11t15.5 0zM153 413q-13 0 -23 14q-10 9 -19 23q-4 6 -14 23.5t-11 32.5q-3 13 2.5 19.5t12.5 8.5q12 3 22.5 -5.5t19.5 -18.5q0 -2 1 -3t1 -2q18 17 34 11l7.5 -5t6.5 -13q1 -9 0 -17q-2 -9 -4 -19.5t-6 -19.5
t-10.5 -18.5t-17.5 -10.5h-2zM13 413q-13 0 -23 14q-10 9 -19 23q-4 6 -14 23.5t-11 32.5q-3 13 2.5 19.5t12.5 8.5q12 3 22.5 -5.5t19.5 -18.5q0 -2 1 -3t1 -2q18 17 34 11l7.5 -5t6.5 -13q1 -9 0 -17q-2 -9 -4 -19.5t-6 -19.5t-10.5 -18.5t-17.5 -10.5h-2zM74 310
q3 -14 -9 -21q-3 -5 -8 -22.5t-8 -49.5q0 -5 -0.5 -11t-0.5 -11q14 -2 29.5 -1t32.5 6q13 3 23 7q-3 40 -16 74q-8 25 -20 39t-24 16q-14 2 -25.5 -1.5t-21.5 -9.5h28q15 0 20 -15zM134 165l-14 -4q-36 -9 -71 -7q1 -28 8 -54q4 -13 9 -26t12 -19.5t15.5 -3.5t19.5 22
q8 16 13.5 38.5t7.5 48.5v5z" />
    <glyph glyph-name="ugrave" unicode="&#xf9;" horiz-adv-x="358" 
d="M384 325q8 -3 11.5 -10.5t0.5 -15.5q0 -1 -4.5 -13.5t-12.5 -33t-18.5 -46t-22.5 -52.5q-14 -32 -28 -57.5t-27 -44.5q-38 -53 -71 -53q-5 0 -12 2t-15 10q-7 7 -15 25.5t-15 63.5q-7 -26 -18 -46q-31 -55 -74 -55q-19 0 -34 15q-28 28 -32 121q-2 43 -2.5 88t4.5 84
q0 8 12 17.5t26.5 13t27 -3t14.5 -29.5q0 -40 -2.5 -83.5t0.5 -85.5q1 -18 2 -35t3.5 -27.5t7 -12.5t12.5 12q17 34 29 93q10 45 12 81.5t5 59.5q1 8 13.5 16t27.5 10t27 -3.5t12 -24.5v-74t1.5 -79.5t4.5 -63t9 -23.5q3 1 9 10t14 23.5t17.5 33t18.5 39.5q12 26 22 51.5
t18 45.5q9 23 16 44q7 18 26 13zM9 451q-9 10 -7 26.5t10.5 29.5t20.5 18t24 -8q42 -45 55.5 -69t15.5 -26q17 -24 13.5 -36t-22 -10t-47.5 20t-63 55z" />
    <glyph glyph-name="uacute" unicode="&#xfa;" horiz-adv-x="358" 
d="M384 325q8 -3 11.5 -10.5t0.5 -15.5q0 -1 -4.5 -13.5t-12.5 -33t-18.5 -46t-22.5 -52.5q-14 -32 -28 -57.5t-27 -44.5q-38 -53 -71 -53q-5 0 -12 2t-15 10q-7 7 -15 25.5t-15 63.5q-7 -26 -18 -46q-31 -55 -74 -55q-19 0 -34 15q-28 28 -32 121q-2 43 -2.5 88t4.5 84
q0 8 12 17.5t26.5 13t27 -3t14.5 -29.5q0 -40 -2.5 -83.5t0.5 -85.5q1 -18 2 -35t3.5 -27.5t7 -12.5t12.5 12q17 34 29 93q10 45 12 81.5t5 59.5q1 8 13.5 16t27.5 10t27 -3.5t12 -24.5v-74t1.5 -79.5t4.5 -63t9 -23.5q3 1 9 10t14 23.5t17.5 33t18.5 39.5q12 26 22 51.5
t18 45.5q9 23 16 44q7 18 26 13zM217 451q-34 -37 -63 -55t-47.5 -20t-22 10t13.5 36q2 2 15.5 26t55.5 69q12 13 24 8t20 -18t10.5 -29.5t-6.5 -26.5z" />
    <glyph glyph-name="ucircumflex" unicode="&#xfb;" horiz-adv-x="358" 
d="M384 325q8 -3 11.5 -10.5t0.5 -15.5q0 -1 -4.5 -13.5t-12.5 -33t-18.5 -46t-22.5 -52.5q-14 -32 -28 -57.5t-27 -44.5q-38 -53 -71 -53q-5 0 -12 2t-15 10q-7 7 -15 25.5t-15 63.5q-7 -26 -18 -46q-31 -55 -74 -55q-19 0 -34 15q-28 28 -32 121q-2 43 -2.5 88t4.5 84
q0 8 12 17.5t26.5 13t27 -3t14.5 -29.5q0 -40 -2.5 -83.5t0.5 -85.5q1 -18 2 -35t3.5 -27.5t7 -12.5t12.5 12q17 34 29 93q10 45 12 81.5t5 59.5q1 8 13.5 16t27.5 10t27 -3.5t12 -24.5v-74t1.5 -79.5t4.5 -63t9 -23.5q3 1 9 10t14 23.5t17.5 33t18.5 39.5q12 26 22 51.5
t18 45.5q9 23 16 44q7 18 26 13zM55 404q1 1 6 11t13 22q26 39 46 40t50 -36q10 -11 16 -20.5t7 -10.5q6 -9 3 -16.5t-9.5 -12t-15 -5t-14.5 5.5q-3 3 -9.5 11t-14 16.5t-14 16.5t-9.5 11q-3 -3 -7.5 -9.5l-9 -13l-9 -13t-7.5 -9.5q-4 -4 -9.5 -6t-10 -1t-6 5.5t3.5 13.5z
" />
    <glyph glyph-name="udieresis" unicode="&#xfc;" horiz-adv-x="358" 
d="M384 325q8 -3 11.5 -10.5t0.5 -15.5q0 -1 -4.5 -13.5t-12.5 -33t-18.5 -46t-22.5 -52.5q-14 -32 -28 -57.5t-27 -44.5q-38 -53 -71 -53q-5 0 -12 2t-15 10q-7 7 -15 25.5t-15 63.5q-7 -26 -18 -46q-31 -55 -74 -55q-19 0 -34 15q-28 28 -32 121q-2 43 -2.5 88t4.5 84
q0 8 12 17.5t26.5 13t27 -3t14.5 -29.5q0 -40 -2.5 -83.5t0.5 -85.5q1 -18 2 -35t3.5 -27.5t7 -12.5t12.5 12q17 34 29 93q10 45 12 81.5t5 59.5q1 8 13.5 16t27.5 10t27 -3.5t12 -24.5v-74t1.5 -79.5t4.5 -63t9 -23.5q3 1 9 10t14 23.5t17.5 33t18.5 39.5q12 26 22 51.5
t18 45.5q9 23 16 44q7 18 26 13zM187 376q-13 0 -23 14q-10 9 -19 23q-4 6 -14 23.5t-11 32.5q-3 13 2.5 19.5t12.5 8.5q12 3 22.5 -5.5t19.5 -18.5q0 -2 1 -3t1 -2q18 17 34 11l7.5 -5t6.5 -13q1 -9 0 -17q-2 -9 -4 -19.5t-6 -19.5t-10.5 -18.5t-17.5 -10.5h-2zM47 376
q-13 0 -23 14q-10 9 -19 23q-4 6 -14 23.5t-11 32.5q-3 13 2.5 19.5t12.5 8.5q12 3 22.5 -5.5t19.5 -18.5q0 -2 1 -3t1 -2q18 17 34 11l7.5 -5t6.5 -13q1 -9 0 -17q-2 -9 -4 -19.5t-6 -19.5t-10.5 -18.5t-17.5 -10.5h-2z" />
    <glyph glyph-name="yacute" unicode="&#xfd;" horiz-adv-x="370" 
d="M396 324q8 -2 11.5 -9.5t0.5 -15.5q-17 -53 -38.5 -91t-46 -66.5t-50 -49.5t-49.5 -40q-1 0 -1 -0.5t-1 -0.5q0 -9 -1 -14q-9 -121 -27 -189q-26 -98 -76 -103h-4q-30 0 -48 26q-19 27 -19 68q0 43 20 94q15 34 33.5 58.5t40.5 44.5l3 32l-7 -14q-31 -55 -74 -55
q-21 0 -34 15q-28 28 -32 121q-2 37 -1 75.5t2 71.5q1 7 0.5 13t0.5 12q2 16 14.5 21.5t27 2t26 -15t11.5 -29.5v-2v-3q-1 -33 -2 -71.5t1 -73.5q1 -17 2.5 -34.5t4 -28.5t7 -13t10.5 13q18 32 30 93q5 26 8.5 49.5t5 41.5t2 29l0.5 11q0 12 12.5 21.5t27.5 12t28 -3
t14 -21.5v-16.5v-44.5t-0.5 -64.5t-2.5 -76.5q20 16 40 35t38.5 43.5t35 55.5t30.5 73q3 8 10.5 12t15.5 1zM216 451q-34 -37 -63 -55t-47.5 -20t-22 10t13.5 36q2 2 15.5 26t55.5 69q12 13 24 8t20 -18t10.5 -29.5t-6.5 -26.5zM94 -197q13 0 22.5 46t18.5 121
q-18 -22 -31 -53q-8 -19 -12.5 -39t-5.5 -36.5t1 -27.5t7 -11z" />
    <glyph glyph-name="ydieresis" unicode="&#xff;" horiz-adv-x="370" 
d="M396 324q8 -2 11.5 -9.5t0.5 -15.5q-17 -53 -38.5 -91t-46 -66.5t-50 -49.5t-49.5 -40q-1 0 -1 -0.5t-1 -0.5q0 -9 -1 -14q-9 -121 -27 -189q-26 -98 -76 -103h-4q-30 0 -48 26q-19 27 -19 68q0 43 20 94q15 34 33.5 58.5t40.5 44.5l3 32l-7 -14q-31 -55 -74 -55
q-21 0 -34 15q-28 28 -32 121q-2 37 -1 75.5t2 71.5q1 7 0.5 13t0.5 12q2 16 14.5 21.5t27 2t26 -15t11.5 -29.5v-2v-3q-1 -33 -2 -71.5t1 -73.5q1 -17 2.5 -34.5t4 -28.5t7 -13t10.5 13q18 32 30 93q5 26 8.5 49.5t5 41.5t2 29l0.5 11q0 12 12.5 21.5t27.5 12t28 -3
t14 -21.5v-16.5v-44.5t-0.5 -64.5t-2.5 -76.5q20 16 40 35t38.5 43.5t35 55.5t30.5 73q3 8 10.5 12t15.5 1zM186 376q-13 0 -23 14q-10 9 -19 23q-4 6 -14 23.5t-11 32.5q-3 13 2.5 19.5t12.5 8.5q12 3 22.5 -5.5t19.5 -18.5q0 -2 1 -3t1 -2q18 17 34 11l7.5 -5t6.5 -13
q1 -9 0 -17q-2 -9 -4 -19.5t-6 -19.5t-10.5 -18.5t-17.5 -10.5h-2zM46 376q-13 0 -23 14q-10 9 -19 23q-4 6 -14 23.5t-11 32.5q-3 13 2.5 19.5t12.5 8.5q12 3 22.5 -5.5t19.5 -18.5q0 -2 1 -3t1 -2q18 17 34 11l7.5 -5t6.5 -13q1 -9 0 -17q-2 -9 -4 -19.5t-6 -19.5
t-10.5 -18.5t-17.5 -10.5h-2zM94 -197q13 0 22.5 46t18.5 121q-18 -22 -31 -53q-8 -19 -12.5 -39t-5.5 -36.5t1 -27.5t7 -11z" />
    <glyph glyph-name="scaron" unicode="&#x161;" horiz-adv-x="237" 
d="M261 325q8 -2 12 -9.5t1 -15.5q0 -1 -4 -14t-11.5 -33.5t-18.5 -46.5t-25 -53q-80 -154 -174 -154q-17 0 -34 8t-29 22q-19 20 -27.5 51.5t-4.5 64.5q2 8 8.5 13.5t14.5 3.5q8 -1 13 -7.5t4 -14.5q-2 -13 -1 -28.5t5 -29t12.5 -23t22.5 -10.5q12 -1 22.5 5t18.5 16
t11.5 22.5t2.5 26.5q-2 19 -9.5 38.5t-18 37.5t-23.5 35.5t-25 32.5q-8 11 -15 20t-12 18q-11 16 -14 37.5t-0.5 43.5t10.5 43t20 37q8 10 22 19.5t29.5 12.5t29 -2t20.5 -23q12 -24 0.5 -59.5t-30.5 -75.5q-5 -13 -9 -20l25 -32q23 -31 47 -68t32 -79l10 18l10 18
q13 26 24 51t18 45t11 32.5l4 12.5q2 8 9.5 11.5t15.5 1.5zM129 593q-1 -1 -6 -11t-13 -22q-26 -39 -46 -40t-50 36q-10 11 -16 20.5t-7 10.5q-6 9 -3 16.5t9.5 12t15 5t14.5 -5.5q3 -3 9.5 -11t14 -16.5t14 -16.5t9.5 -11q3 3 7.5 9.5l9 13l9 13t7.5 9.5q4 4 9.5 6t10 1
t6 -5.5t-3.5 -13.5zM54 411q7 21 6.5 30t-2.5 11q0 3 -5 3q-1 0 -4 -3t-6 -11q-6 -14 -8 -34t1 -40q5 11 9.5 22t8.5 22z" />
    <glyph glyph-name="zcaron" unicode="&#x17e;" horiz-adv-x="329" 
d="M355 324q8 -2 11.5 -9.5t0.5 -15.5q-20 -59 -45 -106.5t-51.5 -86t-53 -69t-50.5 -55.5q8 -26 8 -50.5t-2 -43.5q-4 -26 -12.5 -51.5t-20.5 -45.5q-26 -46 -61 -46q-17 0 -32.5 10t-23.5 27q-3 7 -5.5 19.5t-0.5 29t11 38t27 47.5q15 22 36 45q-15 70 -84 80
q-14 2 -16 17q-2 13 10 20q34 18 58 36.5t39 36.5t23 34.5t11 30.5q13 50 -15 90q-9 12 -19.5 15.5t-24.5 1.5q-29 -6 -37 -29q-3 -8 -10 -11.5t-15 -1.5q-18 7 -13 26q15 44 67 55q16 3 33.5 2.5t34 -4.5t30 -11.5t22.5 -16.5q39 -44 27 -111q-5 -24 -16 -48t-29 -46
q-28 -34 -68 -61q32 -15 50 -45q23 24 47.5 52.5t48 64t45 78.5t39.5 96q3 8 10.5 11.5t15.5 0.5zM87 -107q-10 -14 -17.5 -29.5t-11.5 -29t-2.5 -22.5t10.5 -10q5 -1 10 12t8.5 30.5t6 34.5t3.5 24q-2 -3 -3.5 -5.5t-3.5 -4.5zM164 478q-1 -1 -6 -11t-13 -22
q-26 -39 -46 -40t-50 36q-10 11 -16 20.5t-7 10.5q-6 9 -3 16.5t9.5 12t15 5t14.5 -5.5q3 -3 9.5 -11t14 -16.5t14 -16.5t9.5 -11q3 3 7.5 9.5l9 13l9 13t7.5 9.5q4 4 9.5 6t10 1t6 -5.5t-3.5 -13.5z" />
    <glyph glyph-name="racute" unicode="&#x155;" horiz-adv-x="297" 
d="M322 325q8 -3 11.5 -10t1.5 -15q0 -1 -4.5 -14t-12.5 -33t-18.5 -46t-22.5 -53q-15 -32 -28.5 -57.5t-27.5 -44.5q-37 -53 -71 -53q-6 0 -14.5 3t-16.5 14q-8 10 -13.5 26.5t-8.5 35t-4.5 36t-1.5 31.5q-1 31 1.5 63t7.5 61q-46 -8 -81.5 8.5t-49.5 65.5q-18 51 -9 95
q6 29 24.5 44.5t47.5 15.5q20 0 31 -7t16 -15q16 -27 0 -81q-7 -20 -15.5 -39.5t-15.5 -35.5h-1q10 -17 31 -15.5t37 15.5q3 2 15.5 5.5t26.5 3.5t23.5 -6t6.5 -23q-7 -28 -12.5 -63t-8 -68t-0.5 -57t10.5 -29t23.5 14t40 74q12 26 22 51.5t18 45.5q9 23 17 44q2 8 9.5 11.5
t15.5 1.5zM257 474q-34 -37 -63 -55t-47.5 -20t-22 10t13.5 36q2 2 15.5 26t55.5 69q12 13 24 8t20 -18t10.5 -29.5t-6.5 -26.5zM41 407q12 39 9.5 47.5t-9.5 -1t-12 -31.5t1 -43z" />
    <glyph glyph-name="abreve" unicode="&#x103;" 
d="M421 325q7 -2 11.5 -6.5t2.5 -12.5q-1 -3 -2.5 -9.5t-7.5 -22.5t-17 -44t-32 -76q-68 -155 -127 -155q-5 0 -12 2t-14 10q-6 6 -11 15t-9.5 27.5t-8.5 48.5t-8 78l-9 -25q-6 -14 -16.5 -40.5t-25.5 -52t-34 -44.5t-41 -19q-12 0 -26.5 9t-27 30.5t-21.5 57t-10 88.5
q0 48 7.5 80t19 51t24.5 27t25 8q13 0 28 -6.5t29 -22t26.5 -42t21.5 -65.5q12 37 17 51.5t6.5 19t1 4.5t1.5 7q3 14 20.5 24.5t34.5 10.5q11 0 19.5 -5t8.5 -18q0 -12 -1 -24.5t-1 -26.5q0 -30 1 -64t3 -62.5t4.5 -47t5.5 -18.5q5 0 15.5 17.5t23.5 44t26.5 58t25 59
t19.5 46.5t9 22q2 7 7.5 10.5t11.5 3.5q2 0 3 -0.5t3 -0.5zM126 137q0 3 1 4q0 1 -2 13t-5.5 29.5t-8 37.5t-11 37t-13.5 28.5t-15 11.5q-7 0 -12 -27t-5 -79q0 -49 8 -84t18 -52q8 10 19.5 29t25.5 52zM52 376q-17 0 -28.5 6t-17.5 12q-13 13 -16.5 29t-3.5 26q0 8 6 14
t14 6t14 -6t6 -14q0 -9 9.5 -14t21 -5t21.5 5.5t10 17.5q0 8 6 14t14 6t14 -6t6 -14q0 -10 -2.5 -23t-10.5 -25q-7 -10 -21.5 -19.5t-40.5 -9.5h-1z" />
    <glyph glyph-name="lacute" unicode="&#x13a;" horiz-adv-x="217" 
d="M243 325q8 -3 11.5 -10t0.5 -15q0 -1 -4.5 -14t-12.5 -33.5t-18.5 -46.5t-22.5 -53q-7 -15 -19 -41t-27.5 -51t-35.5 -43.5t-43 -18.5h-2q-13 0 -22 8t-15.5 20.5t-10.5 27t-7 28.5q-6 32 -9.5 74t-5.5 93q-2 78 3 155.5t15 140.5q12 70 30 111q23 53 58 55q23 1 35 -7.5
t17 -17.5q20 -30 3 -103q-14 -53 -45 -126q-17 -39 -34 -74q0 -7 -0.5 -14t-0.5 -14q-2 -54 -1 -106t5 -95q5 -48 10.5 -67t14 -14.5t20.5 30t31 65.5q12 26 22 52t18 46q9 24 16 45q7 18 26 13zM222 816q-34 -37 -63 -55t-47.5 -20t-22 10t13.5 36q2 2 15.5 26t55.5 69
q12 13 24 8t20 -18t10.5 -29.5t-6.5 -26.5zM93 507q25 59 32.5 101t5 55t-12 -10.5t-17.5 -95.5l-4 -24t-4 -26z" />
    <glyph glyph-name="cacute" unicode="&#x107;" horiz-adv-x="229" 
d="M254 325q8 -3 11.5 -10t1.5 -15q0 -1 -4.5 -14t-12.5 -33t-18.5 -46t-22.5 -53q-15 -32 -29 -57.5t-27 -44.5q-37 -53 -71 -53q-8 0 -17.5 3t-19.5 12t-19.5 24.5t-18.5 40.5q-11 30 -16.5 67t-5.5 73q0 18 2 41.5t10 43.5q6 15 13 24.5t14 14t14 6t12 1.5q27 0 45 -20
q24 -26 21 -67q0 -8 -6.5 -13.5t-14.5 -4.5q-19 2 -19 21q1 6 -1 17.5t-4 16.5q-6 -17 -7 -50.5t3 -68.5q12 -111 36 -111.5t69 101.5q12 26 22.5 51.5t18 45.5l12 32l4.5 12q2 8 9.5 11.5t15.5 1.5zM156 451q-34 -37 -63 -55t-47.5 -20t-22 10t13.5 36q2 2 15.5 26t55.5 69
q12 13 24 8t20 -18t10.5 -29.5t-6.5 -26.5z" />
    <glyph glyph-name="ccaron" unicode="&#x10d;" horiz-adv-x="229" 
d="M254 325q8 -3 11.5 -10t1.5 -15q0 -1 -4.5 -14t-12.5 -33t-18.5 -46t-22.5 -53q-15 -32 -29 -57.5t-27 -44.5q-37 -53 -71 -53q-8 0 -17.5 3t-19.5 12t-19.5 24.5t-18.5 40.5q-11 30 -16.5 67t-5.5 73q0 18 2 41.5t10 43.5q6 15 13 24.5t14 14t14 6t12 1.5q27 0 45 -20
q24 -26 21 -67q0 -8 -6.5 -13.5t-14.5 -4.5q-19 2 -19 21q1 6 -1 17.5t-4 16.5q-6 -17 -7 -50.5t3 -68.5q12 -111 36 -111.5t69 101.5q12 26 22.5 51.5t18 45.5l12 32l4.5 12q2 8 9.5 11.5t15.5 1.5zM114 450q-1 -1 -6 -11t-13 -22q-26 -39 -46 -40t-50 36q-10 11 -16 20.5
t-7 10.5q-6 9 -3 16.5t9.5 12t15 5t14.5 -5.5q3 -3 9.5 -11t14 -16.5t14 -16.5t9.5 -11q3 3 7.5 9.5l9 13l9 13t7.5 9.5q4 4 9.5 6t10 1t6 -5.5t-3.5 -13.5z" />
    <glyph glyph-name="ecaron" unicode="&#x11b;" horiz-adv-x="228" 
d="M253 325q8 -3 12 -10t1 -15q0 -1 -4.5 -14t-12.5 -33t-18.5 -46t-22.5 -53q-15 -32 -28.5 -57.5t-26.5 -44.5q-38 -53 -71 -53q-8 0 -18 3t-19.5 12t-19.5 24.5t-18 40.5q-11 30 -16.5 67t-5.5 73q0 18 2 41.5t10 43.5q11 31 26.5 38.5t25.5 7.5q43 0 59 -44
q14 -42 -6 -98q-10 -31 -32 -59q10 -50 19.5 -68.5t21.5 -12.5t26.5 33t34.5 70q12 26 22 51.5t18 45.5q9 23 16 44q3 8 10 11.5t15 1.5zM115 450q-1 -1 -6 -11t-13 -22q-26 -39 -46 -40t-50 36q-10 11 -16 20.5t-7 10.5q-6 9 -3 16.5t9.5 12t15 5t14.5 -5.5q3 -3 9.5 -11
t14 -16.5t14 -16.5t9.5 -11q3 3 7.5 9.5l9 13l9 13t7.5 9.5q4 4 9.5 6t10 1t6 -5.5t-3.5 -13.5zM65 222q13 39 11 59.5t-7.5 21t-9.5 -20.5t4 -64z" />
    <glyph glyph-name="nacute" unicode="&#x144;" horiz-adv-x="373" 
d="M399 324q8 -2 11.5 -9.5t1.5 -15.5q0 -1 -4.5 -14t-12.5 -33.5t-18.5 -47t-22.5 -53.5q-36 -78 -67.5 -114.5t-62.5 -36.5h-5q-12 1 -19 8.5t-10.5 17t-5 19t-1.5 14.5q-2 19 -1 42t3 48q2 23 2.5 44.5t-0.5 40.5q0 4 -0.5 12.5t-2.5 15t-5.5 8t-9.5 -9.5
q-10 -16 -19 -51q-8 -32 -13.5 -69t-9.5 -66q-2 -14 -3.5 -28.5t-5.5 -28.5q-2 -6 -13 -12t-25.5 -8.5t-29 0.5t-23.5 14q-4 4 -8.5 12t-9 23t-8.5 38.5t-7 59.5q-3 49 -4.5 86t0.5 57q1 17 14 29t27.5 15.5t27 -2.5t14.5 -24q1 -11 0.5 -28.5t-0.5 -39.5v-46.5t2 -48.5
q2 -29 5 -47.5t5 -30.5l3 15q6 47 13 89.5t17 74.5t24.5 51t35.5 19q30 0 46 -22t23 -52t8 -61.5t2 -50.5v-15t0.5 -19.5t1 -16.5t2.5 -7q3 0 9.5 9.5t14.5 24.5t16.5 32.5t15.5 32.5q12 26 22 52t18 46q9 24 16 45q3 8 10.5 12t15.5 1zM286 451q-34 -37 -63 -55t-47.5 -20
t-22 10t13.5 36q2 2 15.5 26t55.5 69q12 13 24 8t20 -18t10.5 -29.5t-6.5 -26.5z" />
    <glyph glyph-name="ncaron" unicode="&#x148;" horiz-adv-x="373" 
d="M399 324q8 -2 11.5 -9.5t1.5 -15.5q0 -1 -4.5 -14t-12.5 -33.5t-18.5 -47t-22.5 -53.5q-36 -78 -67.5 -114.5t-62.5 -36.5h-5q-12 1 -19 8.5t-10.5 17t-5 19t-1.5 14.5q-2 19 -1 42t3 48q2 23 2.5 44.5t-0.5 40.5q0 4 -0.5 12.5t-2.5 15t-5.5 8t-9.5 -9.5
q-10 -16 -19 -51q-8 -32 -13.5 -69t-9.5 -66q-2 -14 -3.5 -28.5t-5.5 -28.5q-2 -6 -13 -12t-25.5 -8.5t-29 0.5t-23.5 14q-4 4 -8.5 12t-9 23t-8.5 38.5t-7 59.5q-3 49 -4.5 86t0.5 57q1 17 14 29t27.5 15.5t27 -2.5t14.5 -24q1 -11 0.5 -28.5t-0.5 -39.5v-46.5t2 -48.5
q2 -29 5 -47.5t5 -30.5l3 15q6 47 13 89.5t17 74.5t24.5 51t35.5 19q30 0 46 -22t23 -52t8 -61.5t2 -50.5v-15t0.5 -19.5t1 -16.5t2.5 -7q3 0 9.5 9.5t14.5 24.5t16.5 32.5t15.5 32.5q12 26 22 52t18 46q9 24 16 45q3 8 10.5 12t15.5 1zM244 450q-1 -1 -6 -11t-13 -22
q-26 -39 -46 -40t-50 36q-10 11 -16 20.5t-7 10.5q-6 9 -3 16.5t9.5 12t15 5t14.5 -5.5q3 -3 9.5 -11t14 -16.5t14 -16.5t9.5 -11q3 3 7.5 9.5l9 13l9 13t7.5 9.5q4 4 9.5 6t10 1t6 -5.5t-3.5 -13.5z" />
    <glyph glyph-name="rcaron" unicode="&#x159;" horiz-adv-x="297" 
d="M322 325q8 -3 11.5 -10t1.5 -15q0 -1 -4.5 -14t-12.5 -33t-18.5 -46t-22.5 -53q-15 -32 -28.5 -57.5t-27.5 -44.5q-37 -53 -71 -53q-6 0 -14.5 3t-16.5 14q-8 10 -13.5 26.5t-8.5 35t-4.5 36t-1.5 31.5q-1 31 1.5 63t7.5 61q-46 -8 -81.5 8.5t-49.5 65.5q-18 51 -9 95
q6 29 24.5 44.5t47.5 15.5q20 0 31 -7t16 -15q16 -27 0 -81q-7 -20 -15.5 -39.5t-15.5 -35.5h-1q10 -17 31 -15.5t37 15.5q3 2 15.5 5.5t26.5 3.5t23.5 -6t6.5 -23q-7 -28 -12.5 -63t-8 -68t-0.5 -57t10.5 -29t23.5 14t40 74q12 26 22 51.5t18 45.5q9 23 17 44q2 8 9.5 11.5
t15.5 1.5zM225 493q-1 -1 -6 -11t-13 -22q-26 -39 -46 -40t-50 36q-10 11 -16 20.5t-7 10.5q-6 9 -3 16.5t9.5 12t15 5t14.5 -5.5q3 -3 9.5 -11t14 -16.5t14 -16.5t9.5 -11q3 3 7.5 9.5l9 13l9 13t7.5 9.5q4 4 9.5 6t10 1t6 -5.5t-3.5 -13.5zM41 407q12 39 9.5 47.5t-9.5 -1
t-12 -31.5t1 -43z" />
    <glyph glyph-name="uring" unicode="&#x16f;" horiz-adv-x="358" 
d="M384 325q8 -3 11.5 -10.5t0.5 -15.5q0 -1 -4.5 -13.5t-12.5 -33t-18.5 -46t-22.5 -52.5q-14 -32 -28 -57.5t-27 -44.5q-38 -53 -71 -53q-5 0 -12 2t-15 10q-7 7 -15 25.5t-15 63.5q-7 -26 -18 -46q-31 -55 -74 -55q-19 0 -34 15q-28 28 -32 121q-2 43 -2.5 88t4.5 84
q0 8 12 17.5t26.5 13t27 -3t14.5 -29.5q0 -40 -2.5 -83.5t0.5 -85.5q1 -18 2 -35t3.5 -27.5t7 -12.5t12.5 12q17 34 29 93q10 45 12 81.5t5 59.5q1 8 13.5 16t27.5 10t27 -3.5t12 -24.5v-74t1.5 -79.5t4.5 -63t9 -23.5q3 1 9 10t14 23.5t17.5 33t18.5 39.5q12 26 22 51.5
t18 45.5q9 23 16 44q7 18 26 13zM109 373q-20 0 -35 12t-20 34q-3 13 -1.5 28t8 28t17.5 23t27 14q15 4 29 0t24 -15q14 -14 18 -34.5t-3 -40.5q-5 -19 -18.5 -31t-31.5 -16q-4 -1 -7 -1.5t-7 -0.5zM120 474q-3 0 -5 -1q-15 -4 -20 -18.5t-2 -26.5q3 -14 10.5 -14.5
t10.5 0.5q10 2 14.5 8t6.5 12q3 10 1.5 20t-7.5 16q-4 4 -9 4z" />
    <glyph glyph-name="uhungarumlaut" unicode="&#x171;" horiz-adv-x="358" 
d="M384 325q8 -3 11.5 -10.5t0.5 -15.5q0 -1 -4.5 -13.5t-12.5 -33t-18.5 -46t-22.5 -52.5q-14 -32 -28 -57.5t-27 -44.5q-38 -53 -71 -53q-5 0 -12 2t-15 10q-7 7 -15 25.5t-15 63.5q-7 -26 -18 -46q-31 -55 -74 -55q-19 0 -34 15q-28 28 -32 121q-2 43 -2.5 88t4.5 84
q0 8 12 17.5t26.5 13t27 -3t14.5 -29.5q0 -40 -2.5 -83.5t0.5 -85.5q1 -18 2 -35t3.5 -27.5t7 -12.5t12.5 12q17 34 29 93q10 45 12 81.5t5 59.5q1 8 13.5 16t27.5 10t27 -3.5t12 -24.5v-74t1.5 -79.5t4.5 -63t9 -23.5q3 1 9 10t14 23.5t17.5 33t18.5 39.5q12 26 22 51.5
t18 45.5q9 23 16 44q7 18 26 13zM149 448q-34 -37 -63 -55t-47.5 -20t-22 10t13.5 36q2 2 15.5 26t55.5 69q12 13 24 8t20 -18t10.5 -29.5t-6.5 -26.5zM281 448q-34 -37 -63 -55t-47.5 -20t-22 10t13.5 36q2 2 15.5 26t55.5 69q12 13 24 8t20 -18t10.5 -29.5t-6.5 -26.5z
" />
    <glyph glyph-name="ohungarumlaut" unicode="&#x151;" horiz-adv-x="243" 
d="M269 324q8 -3 11 -10.5t0 -15.5q-15 -37 -42.5 -66.5t-63.5 -49.5v-12t-1 -12q-3 -62 -25 -104q-28 -53 -78 -53q-1 -1 -2 -1q-35 0 -60 28q-19 22 -30 62q-5 20 -8 44.5t-2 50.5q-23 18 -26 52q-2 29 11 60q18 38 47 59q36 25 78 19q27 -3 48 -27q8 -11 15.5 -23.5
t13.5 -29.5q5 -15 9.5 -32.5t6.5 -35.5q50 32 72 86q3 8 10.5 11t15.5 0zM247 485q-34 -37 -63 -55t-47.5 -20t-22 10t13.5 36q2 2 15.5 26t55.5 69q12 13 24 8t20 -18t10.5 -29.5t-6.5 -26.5zM115 485q-34 -37 -63 -55t-47.5 -20t-22 10t13.5 36q2 2 15.5 26t55.5 69
q12 13 24 8t20 -18t10.5 -29.5t-6.5 -26.5zM74 310q3 -14 -9 -21q-3 -5 -8 -22.5t-8 -49.5q0 -5 -0.5 -11t-0.5 -11q14 -2 29.5 -1t32.5 6q13 3 23 7q-3 40 -16 74q-8 25 -20 39t-24 16q-14 2 -25.5 -1.5t-21.5 -9.5h28q15 0 20 -15zM134 165l-14 -4q-36 -9 -71 -7
q1 -28 8 -54q4 -13 9 -26t12 -19.5t15.5 -3.5t19.5 22q8 16 13.5 38.5t7.5 48.5v5z" />
    <glyph glyph-name="Ohungarumlaut" unicode="&#x150;" horiz-adv-x="528" 
d="M527 212q-24 -38 -59 -65q-42 -32 -90 -47q-55 -98 -143 -100h-4q-61 0 -102 47q-35 39 -55 113l-4 18q-30 32 -48 70q-16 32 -21.5 76.5t-0.5 94.5q5 53 21.5 100t41.5 83q32 45 77 70q46 25 107 20q49 -6 88 -42q17 -16 31.5 -38t26.5 -49q21 -50 31 -111.5t8 -128.5
q-3 -95 -31 -171q46 23 78.5 63.5t48.5 95.5q2 8 9.5 12t15.5 2t11.5 -9t1.5 -15q-14 -50 -39 -89zM392 324q2 62 -7 120t-29 103q-7 17 -17.5 34.5t-24 32.5t-31.5 25.5t-40 12.5q-89 9 -147 -73q-24 -35 -38 -78t-18.5 -86t0 -82.5t17.5 -66.5q-6 76 3 157q3 31 7 57.5
t12 48.5q13 37 33.5 53t37.5 16.5t26 -12t0 -30.5q-1 0 -6 -7t-12 -30q-11 -38 -17 -90q-8 -60 -6.5 -120.5t12.5 -111.5q2 -8 4 -17l4 -18q35 -20 75 -29.5t83 -5.5q9 2 18.5 3.5t18.5 3.5q19 38 29.5 87t12.5 103zM267 793q-34 -37 -63 -55t-47.5 -20t-22 10t13.5 36
q2 2 15.5 26t55.5 69q12 13 24 8t20 -18t10.5 -29.5t-6.5 -26.5zM399 793q-34 -37 -63 -55t-47.5 -20t-22 10t13.5 36q2 2 15.5 26t55.5 69q12 13 24 8t20 -18t10.5 -29.5t-6.5 -26.5zM176 108q29 -56 63.5 -62.5t82.5 42.5h-6q-72 -8 -140 20z" />
    <glyph glyph-name="Uhungarumlaut" unicode="&#x170;" horiz-adv-x="520" 
d="M546 325q8 -3 11.5 -10t0.5 -15q0 -1 -4.5 -14t-12.5 -33.5t-18.5 -46.5t-22.5 -53q-14 -32 -28 -57.5t-27 -44.5q-37 -52 -70 -52h-2q-13 1 -22 9.5t-15 21t-9.5 28.5t-5.5 31q-5 31 -7.5 73.5t-3.5 98.5v36q-25 -113 -60 -184q-54 -114 -129 -114q-35 0 -59 26
q-30 32 -45 100q-6 29 -10 64t-6 79q-2 39 -2 80.5t1 83t2.5 82t3.5 76.5q2 24 2 45.5t2 41.5q1 12 13.5 21t26.5 10.5t26 -6t14 -26.5q2 -20 0 -42t-4 -46q-2 -36 -3.5 -76.5t-2.5 -82.5t-1 -83.5t2 -80.5q3 -87 15 -136t29.5 -65t38 -2t41.5 53t40.5 99t34.5 136
q11 55 18.5 108.5t12.5 98t7.5 75t3.5 40.5v3q-1 9 9 19.5t23.5 14t27 -3.5t20.5 -32q2 -8 0.5 -20t-2.5 -29q-2 -28 -3.5 -65t-3 -78.5t-2.5 -86.5t-1 -89q0 -47 -0.5 -88.5t0.5 -72t4.5 -48t11.5 -16.5t22 22t36 67q12 26 22 52t18 46q9 24 16 45q3 8 10.5 12t15.5 1z
M375 793q-34 -37 -63 -55t-47.5 -20t-22 10t13.5 36q2 2 15.5 26t55.5 69q12 13 24 8t20 -18t10.5 -29.5t-6.5 -26.5zM243 793q-34 -37 -63 -55t-47.5 -20t-22 10t13.5 36q2 2 15.5 26t55.5 69q12 13 24 8t20 -18t10.5 -29.5t-6.5 -26.5z" />
    <glyph glyph-name="zdotaccent" unicode="&#x17c;" horiz-adv-x="329" 
d="M355 324q8 -2 11.5 -9.5t0.5 -15.5q-20 -59 -45 -106.5t-51.5 -86t-53 -69t-50.5 -55.5q8 -26 8 -50.5t-2 -43.5q-4 -26 -12.5 -51.5t-20.5 -45.5q-26 -46 -61 -46q-17 0 -32.5 10t-23.5 27q-3 7 -5.5 19.5t-0.5 29t11 38t27 47.5q15 22 36 45q-15 70 -84 80
q-14 2 -16 17q-2 13 10 20q34 18 58 36.5t39 36.5t23 34.5t11 30.5q13 50 -15 90q-9 12 -19.5 15.5t-24.5 1.5q-29 -6 -37 -29q-3 -8 -10 -11.5t-15 -1.5q-18 7 -13 26q15 44 67 55q16 3 33.5 2.5t34 -4.5t30 -11.5t22.5 -16.5q39 -44 27 -111q-5 -24 -16 -48t-29 -46
q-28 -34 -68 -61q32 -15 50 -45q23 24 47.5 52.5t48 64t45 78.5t39.5 96q3 8 10.5 11.5t15.5 0.5zM98 405q-13 0 -23 14q-10 9 -19 23q-4 6 -14 23.5t-11 32.5q-3 13 2.5 19.5t12.5 8.5q12 3 22.5 -5.5t19.5 -18.5q0 -2 1 -3t1 -2q18 17 34 11l7.5 -5t6.5 -13q1 -9 0 -17
q-2 -9 -4 -19.5t-6 -19.5t-10.5 -18.5t-17.5 -10.5h-2zM87 -107q-10 -14 -17.5 -29.5t-11.5 -29t-2.5 -22.5t10.5 -10q5 -1 10 12t8.5 30.5t6 34.5t3.5 24q-2 -3 -3.5 -5.5t-3.5 -4.5z" />
    <glyph glyph-name="sacute" unicode="&#x15b;" horiz-adv-x="237" 
d="M261 325q8 -2 12 -9.5t1 -15.5q0 -1 -4 -14t-11.5 -33.5t-18.5 -46.5t-25 -53q-80 -154 -174 -154q-17 0 -34 8t-29 22q-19 20 -27.5 51.5t-4.5 64.5q2 8 8.5 13.5t14.5 3.5q8 -1 13 -7.5t4 -14.5q-2 -13 -1 -28.5t5 -29t12.5 -23t22.5 -10.5q12 -1 22.5 5t18.5 16
t11.5 22.5t2.5 26.5q-2 19 -9.5 38.5t-18 37.5t-23.5 35.5t-25 32.5q-8 11 -15 20t-12 18q-11 16 -14 37.5t-0.5 43.5t10.5 43t20 37q8 10 22 19.5t29.5 12.5t29 -2t20.5 -23q12 -24 0.5 -59.5t-30.5 -75.5q-5 -13 -9 -20l25 -32q23 -31 47 -68t32 -79l10 18l10 18
q13 26 24 51t18 45t11 32.5l4 12.5q2 8 9.5 11.5t15.5 1.5zM171 594q-34 -37 -63 -55t-47.5 -20t-22 10t13.5 36q2 2 15.5 26t55.5 69q12 13 24 8t20 -18t10.5 -29.5t-6.5 -26.5zM54 411q7 21 6.5 30t-2.5 11q0 3 -5 3q-1 0 -4 -3t-6 -11q-6 -14 -8 -34t1 -40q5 11 9.5 22
t8.5 22z" />
    <glyph glyph-name="zacute" unicode="&#x17a;" horiz-adv-x="329" 
d="M355 324q8 -2 11.5 -9.5t0.5 -15.5q-20 -59 -45 -106.5t-51.5 -86t-53 -69t-50.5 -55.5q8 -26 8 -50.5t-2 -43.5q-4 -26 -12.5 -51.5t-20.5 -45.5q-26 -46 -61 -46q-17 0 -32.5 10t-23.5 27q-3 7 -5.5 19.5t-0.5 29t11 38t27 47.5q15 22 36 45q-15 70 -84 80
q-14 2 -16 17q-2 13 10 20q34 18 58 36.5t39 36.5t23 34.5t11 30.5q13 50 -15 90q-9 12 -19.5 15.5t-24.5 1.5q-29 -6 -37 -29q-3 -8 -10 -11.5t-15 -1.5q-18 7 -13 26q15 44 67 55q16 3 33.5 2.5t34 -4.5t30 -11.5t22.5 -16.5q39 -44 27 -111q-5 -24 -16 -48t-29 -46
q-28 -34 -68 -61q32 -15 50 -45q23 24 47.5 52.5t48 64t45 78.5t39.5 96q3 8 10.5 11.5t15.5 0.5zM87 -107q-10 -14 -17.5 -29.5t-11.5 -29t-2.5 -22.5t10.5 -10q5 -1 10 12t8.5 30.5t6 34.5t3.5 24q-2 -3 -3.5 -5.5t-3.5 -4.5zM206 479q-34 -37 -63 -55t-47.5 -20t-22 10
t13.5 36q2 2 15.5 26t55.5 69q12 13 24 8t20 -18t10.5 -29.5t-6.5 -26.5z" />
    <glyph glyph-name="Zdotaccent" unicode="&#x17b;" horiz-adv-x="545" 
d="M570 324q8 -2 11.5 -9.5t1.5 -15.5q-15 -49 -35.5 -84.5t-44 -60.5t-49.5 -42.5t-52 -30.5l5 -17q5 -21 7 -43t0 -45q-3 -45 -19.5 -87t-42.5 -75q-28 -35 -62 -54t-71 -19h-4q-23 1 -42 13.5t-30 33.5q-19 38 -7 90.5t54 111.5q26 37 59.5 58t68.5 38q-23 48 -69.5 77.5
t-115.5 37.5q-16 2 -18 18t14 21q102 33 171 88t91 120q24 78 -25 148q-13 19 -36.5 35t-53.5 16q-51 0 -90 -16t-67 -42.5t-46 -61t-27.5 -72.5t-11 -76t3.5 -71q1 -8 -4 -13t-12 -5t-14 5t-8 18q-6 49 -5 90.5t10.5 77.5t29.5 68.5t53 64.5q37 35 87.5 55t103.5 18
q51 0 94 -18t66 -50q61 -88 29 -184q-24 -73 -101 -136q-26 -21 -56 -39t-65 -34q25 -8 46 -19q46 -23 76 -62l18 -27q24 12 46.5 27.5t43 38t38 53.5t31.5 74q2 8 9.5 12t15.5 1zM223 -33q-35 -49 -46.5 -91.5t2.5 -69.5q2 -5 8 -12.5t14 -7.5q29 0 54.5 20.5t43.5 53
t28 72t8 78.5q0 18 -5 38q-31 -15 -58.5 -33t-48.5 -48zM275 722q-13 0 -23 14q-10 9 -19 23q-4 6 -14 23.5t-11 32.5q-3 13 2.5 19.5t12.5 8.5q12 3 22.5 -5.5t19.5 -18.5q0 -2 1 -3t1 -2q18 17 34 11l7.5 -5t6.5 -13q1 -9 0 -17q-2 -9 -4 -19.5t-6 -19.5t-10.5 -18.5
t-17.5 -10.5h-2z" />
    <glyph glyph-name="Zacute" unicode="&#x179;" horiz-adv-x="545" 
d="M570 324q8 -2 11.5 -9.5t1.5 -15.5q-15 -49 -35.5 -84.5t-44 -60.5t-49.5 -42.5t-52 -30.5l5 -17q5 -21 7 -43t0 -45q-3 -45 -19.5 -87t-42.5 -75q-28 -35 -62 -54t-71 -19h-4q-23 1 -42 13.5t-30 33.5q-19 38 -7 90.5t54 111.5q26 37 59.5 58t68.5 38q-23 48 -69.5 77.5
t-115.5 37.5q-16 2 -18 18t14 21q102 33 171 88t91 120q24 78 -25 148q-13 19 -36.5 35t-53.5 16q-51 0 -90 -16t-67 -42.5t-46 -61t-27.5 -72.5t-11 -76t3.5 -71q1 -8 -4 -13t-12 -5t-14 5t-8 18q-6 49 -5 90.5t10.5 77.5t29.5 68.5t53 64.5q37 35 87.5 55t103.5 18
q51 0 94 -18t66 -50q61 -88 29 -184q-24 -73 -101 -136q-26 -21 -56 -39t-65 -34q25 -8 46 -19q46 -23 76 -62l18 -27q24 12 46.5 27.5t43 38t38 53.5t31.5 74q2 8 9.5 12t15.5 1zM223 -33q-35 -49 -46.5 -91.5t2.5 -69.5q2 -5 8 -12.5t14 -7.5q29 0 54.5 20.5t43.5 53
t28 72t8 78.5q0 18 -5 38q-31 -15 -58.5 -33t-48.5 -48zM383 796q-34 -37 -63 -55t-47.5 -20t-22 10t13.5 36q2 2 15.5 26t55.5 69q12 13 24 8t20 -18t10.5 -29.5t-6.5 -26.5z" />
    <glyph glyph-name="Tcaron" unicode="&#x164;" horiz-adv-x="212" 
d="M237 325q8 -3 11.5 -10t0.5 -15q0 -1 -4.5 -14t-12.5 -33.5t-18.5 -46.5t-22.5 -53q-14 -32 -28 -57.5t-27 -44.5q-37 -52 -70 -52h-2q-13 1 -22 9t-15 21t-9.5 28.5t-5.5 30.5q-5 31 -7.5 74t-3.5 98q-1 49 0 100.5t2.5 99.5t3.5 90.5t4 73.5v3q-32 1 -64 1t-58 -3
q-59 -7 -73 -32q-5 -11 -17 -11q-4 0 -10 2q-8 5 -10 12.5t2 14.5q12 22 35.5 34t55 17.5t67.5 5.5t74 -1v6q-2 10 7.5 18.5t23 11t27.5 -4t22 -27.5q1 -2 -1 -6q11 -1 20.5 -0.5t18.5 1.5q28 2 40.5 6t16.5 9q5 4 5 12t6 14t14 6t14 -6t6 -14q0 -24 -17 -41
q-18 -17 -50.5 -22.5t-74.5 -4.5q0 -2 -1 -3q-1 -28 -2.5 -64.5t-3 -78.5t-2.5 -86.5t-1 -89.5q0 -71 -1 -126.5t5 -80.5t21.5 -10.5t48.5 83.5q12 26 22 52t18 46q9 24 16 45q3 8 10.5 12t15.5 1zM115 795q-1 -1 -6 -11t-13 -22q-26 -39 -46 -40t-50 36q-10 11 -16 20.5
t-7 10.5q-6 9 -3 16.5t9.5 12t15 5t14.5 -5.5q3 -3 9.5 -11t14 -16.5t14 -16.5t9.5 -11q3 3 7.5 9.5l9 13l9 13t7.5 9.5q4 4 9.5 6t10 1t6 -5.5t-3.5 -13.5z" />
    <glyph glyph-name="Sacute" unicode="&#x15a;" horiz-adv-x="445" 
d="M470 325q8 -2 12 -9.5t2 -15.5q0 -1 -4.5 -14t-13.5 -34t-23.5 -47t-33.5 -54q-45 -66 -103 -104q-37 -24 -84 -35.5t-94 -11.5q-34 0 -63 14.5t-49 34.5q-19 19 -30.5 52t-14.5 70.5t4 75t24 65.5q6 11 15 13.5t15.5 0.5t10 -8t-0.5 -12q-15 -21 -21.5 -53t-5.5 -66
t9.5 -64t24.5 -47q16 -18 37 -23.5t42.5 -1t42 17t35.5 30.5q18 20 26 43t6 46t-14.5 44t-31 39.5t-40.5 36t-44 33.5q-26 19 -48.5 37t-36.5 38q-29 40 -31 98q-1 26 5.5 51.5t19.5 47.5q22 40 56 61q16 9 37 15t42.5 5.5t40.5 -9t30 -28.5q15 -23 17 -53t-1 -54
q-4 -30 -11 -54t-13 -38q-4 -8 -11.5 -11t-15.5 1t-10.5 11.5t0.5 15.5q6 13 12 34.5t9 45t1 45t-11 35.5q-10 17 -34 17q-15 0 -26.5 -5t-20 -12.5t-14.5 -16t-9 -15.5q-9 -17 -13.5 -37.5t-3.5 -42.5t7 -43.5t20 -40.5q11 -16 32 -32.5t45 -33.5q24 -18 48 -36.5t44 -39.5
q48 -51 54 -105q3 -29 -6 -58.5t-29 -55.5q52 32 97 96q18 25 30.5 50t21 44.5t12.5 31.5l4 12q2 8 9.5 11.5t15.5 1.5zM260 796q-34 -37 -63 -55t-47.5 -20t-22 10t13.5 36q2 2 15.5 26t55.5 69q12 13 24 8t20 -18t10.5 -29.5t-6.5 -26.5z" />
    <glyph glyph-name="Eth" unicode="&#xd0;" horiz-adv-x="567" 
d="M-17 198q-13 0 -24 12t-15.5 26.5t-0.5 27t21 13.5q9 0 17.5 0.5t17.5 -0.5l2 44q3 69 8 125t12 101q19 117 52 150q10 10 19 12.5t16 2.5q23 0 35.5 -9t18.5 -19q19 -34 1 -104q-6 -26 -17.5 -57.5t-27.5 -67.5l-35 -73l-3 -57l-3 -54l26 -3q12 42 27 87q23 72 46 129
t45 99q60 112 120 112q18 0 42 -14.5t44 -61.5q14 -30 22.5 -71t13.5 -89q6 -75 -0.5 -149t-25.5 -135q-18 -64 -48 -104q60 33 108 102q18 25 31 50t21.5 44.5t13 32l4.5 12.5q2 8 9 11.5t15 1.5t12 -9.5t2 -15.5q0 -1 -4.5 -14t-13.5 -34t-23.5 -47t-33.5 -54
q-45 -66 -103 -104q-22 -15 -49 -26.5t-56 -17.5t-58 -5.5t-56 8.5q-44 11 -57 36q-4 7 -2 14.5t10 12.5q7 4 15 2t12 -10q4 -7 19.5 -13t37.5 -7h1q48 8 81.5 64t49.5 152q11 61 11 126.5t-9 124.5q-5 26 -9 51t-9 44.5t-12.5 32t-19.5 12.5q-14 1 -31.5 -22t-37.5 -60
q-21 -39 -43 -93.5t-45 -123.5q-15 -45 -27 -87q4 -1 7 -1q21 -2 31 -9.5t7.5 -17t-18 -19t-45.5 -15.5q-20 -75 -32 -126t-13 -58q0 -8 -13 -13.5t-28 -7t-28.5 3.5t-14.5 20v14v37.5v55.5t1 70zM95 502q30 62 37.5 104t3 53.5t-16 -14t-18.5 -98.5zM75 167q2 6 3.5 13
t3.5 14h-7v-27z" />
    <glyph glyph-name="Dcroat" unicode="&#x110;" horiz-adv-x="567" 
d="M-17 198q-13 0 -24 12t-15.5 26.5t-0.5 27t21 13.5q9 0 17.5 0.5t17.5 -0.5l2 44q3 69 8 125t12 101q19 117 52 150q10 10 19 12.5t16 2.5q23 0 35.5 -9t18.5 -19q19 -34 1 -104q-6 -26 -17.5 -57.5t-27.5 -67.5l-35 -73l-3 -57l-3 -54l26 -3q12 42 27 87q23 72 46 129
t45 99q60 112 120 112q18 0 42 -14.5t44 -61.5q14 -30 22.5 -71t13.5 -89q6 -75 -0.5 -149t-25.5 -135q-18 -64 -48 -104q60 33 108 102q18 25 31 50t21.5 44.5t13 32l4.5 12.5q2 8 9 11.5t15 1.5t12 -9.5t2 -15.5q0 -1 -4.5 -14t-13.5 -34t-23.5 -47t-33.5 -54
q-45 -66 -103 -104q-22 -15 -49 -26.5t-56 -17.5t-58 -5.5t-56 8.5q-44 11 -57 36q-4 7 -2 14.5t10 12.5q7 4 15 2t12 -10q4 -7 19.5 -13t37.5 -7h1q48 8 81.5 64t49.5 152q11 61 11 126.5t-9 124.5q-5 26 -9 51t-9 44.5t-12.5 32t-19.5 12.5q-14 1 -31.5 -22t-37.5 -60
q-21 -39 -43 -93.5t-45 -123.5q-15 -45 -27 -87q4 -1 7 -1q21 -2 31 -9.5t7.5 -17t-18 -19t-45.5 -15.5q-20 -75 -32 -126t-13 -58q0 -8 -13 -13.5t-28 -7t-28.5 3.5t-14.5 20v14v37.5v55.5t1 70zM95 502q30 62 37.5 104t3 53.5t-16 -14t-18.5 -98.5zM75 167q2 6 3.5 13
t3.5 14h-7v-27z" />
    <glyph glyph-name="Igrave" unicode="&#xcc;" horiz-adv-x="207" 
d="M234 325q8 -3 11.5 -10t0.5 -15q0 -1 -4.5 -14t-12.5 -33.5t-18.5 -46.5t-22.5 -53q-14 -32 -28 -57.5t-27 -44.5q-37 -52 -70 -52h-2q-6 0 -14 3t-16 12q-5 6 -11 16.5t-10.5 31t-8 53t-3.5 81.5q-1 59 2 120t6 109q2 19 3 32t1 24t11.5 20t25 11.5t26.5 -3.5t16 -24
q2 -11 0.5 -27t-3.5 -36q-3 -46 -6 -105.5t-2 -116.5q0 -59 2.5 -90.5t10.5 -36t22.5 19.5t38.5 77q12 26 22 51.5t18 45.5q9 24 16 45q7 18 26 13zM-49 621q-9 10 -7 26.5t10.5 29.5t20.5 18t24 -8q42 -45 55.5 -69t15.5 -26q17 -24 13.5 -36t-22 -10t-47.5 20t-63 55z" />
    <glyph glyph-name="Iacute" unicode="&#xcd;" horiz-adv-x="207" 
d="M234 325q8 -3 11.5 -10t0.5 -15q0 -1 -4.5 -14t-12.5 -33.5t-18.5 -46.5t-22.5 -53q-14 -32 -28 -57.5t-27 -44.5q-37 -52 -70 -52h-2q-6 0 -14 3t-16 12q-5 6 -11 16.5t-10.5 31t-8 53t-3.5 81.5q-1 59 2 120t6 109q2 19 3 32t1 24t11.5 20t25 11.5t26.5 -3.5t16 -24
q2 -11 0.5 -27t-3.5 -36q-3 -46 -6 -105.5t-2 -116.5q0 -59 2.5 -90.5t10.5 -36t22.5 19.5t38.5 77q12 26 22 51.5t18 45.5q9 24 16 45q7 18 26 13zM163 621q-34 -37 -63 -55t-47.5 -20t-22 10t13.5 36q2 2 15.5 26t55.5 69q12 13 24 8t20 -18t10.5 -29.5t-6.5 -26.5z" />
    <glyph glyph-name="Icircumflex" unicode="&#xce;" horiz-adv-x="205" 
d="M232 325q8 -3 11.5 -10t0.5 -15q0 -1 -4.5 -14t-12.5 -33.5t-18.5 -46.5t-22.5 -53q-14 -32 -28 -57.5t-27 -44.5q-37 -52 -70 -52h-2q-6 0 -14 3t-16 12q-5 6 -11 16.5t-10.5 31t-8 53t-3.5 81.5q-1 59 2 120t6 109q2 19 3 32t1 24t11.5 20t25 11.5t26.5 -3.5t16 -24
q2 -11 0.5 -27t-3.5 -36q-3 -46 -6 -105.5t-2 -116.5q0 -59 2.5 -90.5t10.5 -36t22.5 19.5t38.5 77q12 26 22 51.5t18 45.5q9 24 16 45q7 18 26 13zM-8 575q1 1 6 11t13 22q26 39 46 40t50 -36q10 -11 16 -20.5t7 -10.5q6 -9 3 -16.5t-9.5 -12t-15 -5t-14.5 5.5
q-3 3 -9.5 11t-14 16.5t-14 16.5t-9.5 11q-3 -3 -7.5 -9.5l-9 -13l-9 -13t-7.5 -9.5q-4 -4 -9.5 -6t-10 -1t-6 5.5t3.5 13.5z" />
    <glyph glyph-name="Idieresis" unicode="&#xcf;" horiz-adv-x="207" 
d="M234 325q8 -3 11.5 -10t0.5 -15q0 -1 -4.5 -14t-12.5 -33.5t-18.5 -46.5t-22.5 -53q-14 -32 -28 -57.5t-27 -44.5q-37 -52 -70 -52h-2q-6 0 -14 3t-16 12q-5 6 -11 16.5t-10.5 31t-8 53t-3.5 81.5q-1 59 2 120t6 109q2 19 3 32t1 24t11.5 20t25 11.5t26.5 -3.5t16 -24
q2 -11 0.5 -27t-3.5 -36q-3 -46 -6 -105.5t-2 -116.5q0 -59 2.5 -90.5t10.5 -36t22.5 19.5t38.5 77q12 26 22 51.5t18 45.5q9 24 16 45q7 18 26 13zM133 539q-13 0 -23 14q-10 9 -19 23q-4 6 -14 23.5t-11 32.5q-3 13 2.5 19.5t12.5 8.5q12 3 22.5 -5.5t19.5 -18.5
q0 -2 1 -3t1 -2q18 17 34 11l7.5 -5t6.5 -13q1 -9 0 -17q-2 -9 -4 -19.5t-6 -19.5t-10.5 -18.5t-17.5 -10.5h-2zM-7 539q-13 0 -23 14q-10 9 -19 23q-4 6 -14 23.5t-11 32.5q-3 13 2.5 19.5t12.5 8.5q12 3 22.5 -5.5t19.5 -18.5q0 -2 1 -3t1 -2q18 17 34 11l7.5 -5t6.5 -13
q1 -9 0 -17q-2 -9 -4 -19.5t-6 -19.5t-10.5 -18.5t-17.5 -10.5h-2z" />
    <glyph glyph-name="Lcaron" unicode="&#x13d;" horiz-adv-x="538" 
d="M564 325q8 -2 12 -9.5t1 -15.5q0 -1 -4.5 -13.5t-11.5 -33t-17.5 -46t-22.5 -52.5q-73 -154 -141 -154q-32 0 -59.5 6t-52.5 15.5t-46.5 21t-40.5 22.5l-7 3q-6 -11 -15 -21q-17 -20 -40.5 -34t-53.5 -14h-8q-19 0 -32.5 8t-20.5 21q-11 22 -2.5 51t43.5 49q22 13 48 13
q20 1 38 0l4 20q10 48 16.5 106t13.5 118q6 60 12.5 115.5t15.5 99.5q12 49 25 75q19 36 50 36q23 0 36 -9t18 -19q21 -34 6 -104q-11 -53 -39 -124q-12 -30 -24 -57.5t-23 -48.5q-5 -54 -12.5 -104.5t-21.5 -95.5q-2 -7 -4 -13.5t-4 -13.5q28 -8 57.5 -28t59 -35t58.5 -15
t55 33q13 17 26.5 40.5t27.5 53.5q12 26 22.5 51t17.5 44.5t11 32l4 12.5q3 8 10 11.5t15 1.5zM418 477q-4 0 -6 1q-8 2 -10.5 9.5t-2.5 15.5q1 22 1 51.5t-2.5 55.5t-8.5 42.5t-16 13.5q-8 -2 -14.5 4t-7.5 14q-2 8 3.5 14t13.5 8q41 7 64 -14t30 -55t0 -74t-25 -72
q-8 -14 -19 -14zM39 48q5 -8 17.5 -8t29.5 8q7 3 15 14t17 35q-7 2 -12.5 3.5t-11.5 1.5q-2 0 -5 -0.5t-5 -0.5q-2 -1 -5 -1q-4 -1 -7 -2t-7 -3q-20 -12 -25 -25.5t-1 -21.5zM255 479q15 36 24 70.5t13 60.5t3.5 42t-3.5 16t-9.5 -19.5t-13.5 -63.5q-4 -23 -7.5 -50
t-6.5 -56z" />
    <glyph glyph-name="lcaron" unicode="&#x13e;" horiz-adv-x="369" 
d="M243 325q8 -3 11.5 -10t0.5 -15q0 -1 -4.5 -14t-12.5 -33.5t-18.5 -46.5t-22.5 -53q-7 -15 -19 -41t-27.5 -51t-35.5 -43.5t-43 -18.5h-2q-13 0 -22 8t-15.5 20.5t-10.5 27t-7 28.5q-6 32 -9.5 74t-5.5 93q-2 78 3 155.5t15 140.5q12 70 30 111q23 53 58 55q23 1 35 -7.5
t17 -17.5q20 -30 3 -103q-14 -53 -45 -126q-17 -39 -34 -74q0 -7 -0.5 -14t-0.5 -14q-2 -54 -1 -106t5 -95q5 -48 10.5 -67t14 -14.5t20.5 30t31 65.5q12 26 22 52t18 46q9 24 16 45q7 18 26 13zM293 411q-4 0 -6 1q-8 2 -10.5 9.5t-2.5 15.5q1 22 1 51.5t-2.5 55.5
t-8.5 42.5t-16 13.5q-8 -2 -14.5 4t-7.5 14q-2 8 3.5 14t13.5 8q41 7 64 -14t30 -55t0 -74t-25 -72q-8 -14 -19 -14zM93 507q25 59 32.5 101t5 55t-12 -10.5t-17.5 -95.5l-4 -24t-4 -26z" />
    <glyph glyph-name="dcaron" unicode="&#x10f;" horiz-adv-x="523" 
d="M397 325q8 -3 11.5 -10t0.5 -15q0 -1 -4.5 -14t-12.5 -33.5t-18.5 -46.5t-22.5 -53q-14 -32 -28 -57.5t-27 -44.5q-12 -17 -28.5 -34.5t-41.5 -17.5h-2q-13 0 -22 8t-15.5 20.5t-10.5 27t-7 28.5l-3 16q-6 -14 -16 -31t-23 -32.5t-29 -26t-34 -10.5q-8 0 -16.5 2.5
t-17 9.5t-17 20t-15.5 33q-9 25 -13.5 55.5t-5.5 64.5q-1 30 2.5 57.5t10.5 49.5q12 36 28.5 47.5t30.5 11.5q16 1 39 -10t44 -48q13 -21 20 -41q-2 77 3 155t15 140q12 70 30 111q23 53 58 55q23 1 35 -7.5t17 -17.5q20 -30 3 -103q-14 -53 -45 -126q-17 -39 -34 -74
q0 -7 -0.5 -14t-0.5 -14q-2 -54 -1 -106t5 -95t9.5 -61t14.5 -14t21.5 27t30.5 62q12 26 22 52t18 46q9 24 16 45q7 18 26 13zM447 411q-4 0 -6 1q-8 2 -10.5 9.5t-2.5 15.5q1 22 1 51.5t-2.5 55.5t-8.5 42.5t-16 13.5q-8 -2 -14.5 4t-7.5 14q-2 8 3.5 14t13.5 8
q41 7 64 -14t30 -55t0 -74t-25 -72q-8 -14 -19 -14zM140 140q0 6 -3.5 25t-10.5 43q-5 17 -13.5 40t-18 35.5t-18 6.5t-13.5 -45q-4 -22 -4 -47t2 -50q2 -18 5 -36t7 -31.5t10 -19t14 2.5q23 28 42 70q0 1 1 2v4zM247 507q19 54 28 93.5t9 52t-7.5 -8.5t-21.5 -87z" />
    <glyph glyph-name="uni0162" unicode="&#x162;" horiz-adv-x="200" 
d="M225 325q8 -3 11.5 -10t0.5 -15q0 -1 -4.5 -14t-12.5 -33.5t-18.5 -46.5t-22.5 -53q-14 -32 -28 -57.5t-27 -44.5q-37 -52 -70 -52h-2q-13 1 -22 9t-15 21t-9.5 28.5t-5.5 30.5q-5 31 -7.5 74t-3.5 98q-1 49 0 100.5t2.5 99.5t3.5 90.5t4 73.5v3q-32 1 -64 1t-58 -3
q-59 -7 -73 -32q-5 -11 -17 -11q-4 0 -10 2q-8 5 -10 12.5t2 14.5q12 22 35.5 34t55 17.5t67.5 5.5t74 -1v6q-2 10 7.5 18.5t23 11t27.5 -4t22 -27.5q1 -2 -1 -6q11 -1 20.5 -0.5t18.5 1.5q28 2 40.5 6t16.5 9q5 4 5 12t6 14t14 6t14 -6t6 -14q0 -24 -17 -41
q-18 -17 -50.5 -22.5t-74.5 -4.5q0 -2 -1 -3q-1 -28 -2.5 -64.5t-3 -78.5t-2.5 -86.5t-1 -89.5q0 -71 -1 -126.5t5 -80.5t21.5 -10.5t48.5 83.5q12 26 22 52t18 46q9 24 16 45q3 8 10.5 12t15.5 1zM76 -279q-4 0 -6 1q-8 2 -10.5 9.5t-2.5 15.5q1 22 1 51.5t-2.5 55.5
t-8.5 42.5t-16 13.5q-8 -2 -14.5 4t-7.5 14q-2 8 3.5 14t13.5 8q41 7 64 -14t30 -55t0 -74t-25 -72q-8 -14 -19 -14z" />
    <glyph glyph-name="uni0163" unicode="&#x163;" horiz-adv-x="210" 
d="M236 325q8 -3 11.5 -10t0.5 -15q0 -1 -4.5 -14t-12.5 -33.5t-18.5 -46.5t-22.5 -53q-14 -32 -28 -57.5t-27 -44.5q-37 -52 -70 -52h-2q-13 1 -22 9t-15 21t-9.5 28.5t-5.5 30.5q-5 31 -7.5 74t-3.5 98q-1 63 0.5 130t4.5 125l-18 -3q-17 -4 -24 -8t-9 -8q-6 -10 -18 -10
q-6 0 -9 2q-8 4 -10.5 11.5t2.5 15.5q11 20 34.5 28.5t52.5 12.5q1 26 2 51.5t3 51.5q1 18 14 30.5t28 15.5t27 -5t12 -29q0 -23 -2.5 -52.5t-2.5 -56.5q22 2 35 6q8 2 11 3.5l5 2.5q1 1 1 2q0 8 6 14t14 6t14 -6t6 -14q0 -12 -9 -25.5t-38 -21.5q-10 -3 -22 -4.5t-25 -2.5
q-2 -51 -3.5 -109t-1.5 -116q0 -101 4 -163.5t12 -67.5q3 -2 8.5 6.5t13.5 23.5t17.5 34t18.5 39q12 26 22 52t18 46q9 24 16 45q7 18 26 13zM106 -279q-4 0 -6 1q-8 2 -10.5 9.5t-2.5 15.5q1 22 1 51.5t-2.5 55.5t-8.5 42.5t-16 13.5q-8 -2 -14.5 4t-7.5 14q-2 8 3.5 14
t13.5 8q41 7 64 -14t30 -55t0 -74t-25 -72q-8 -14 -19 -14z" />
    <glyph glyph-name="Scedilla" unicode="&#x15e;" horiz-adv-x="445" 
d="M167 -279q-4 0 -6 1q-8 2 -10.5 9.5t-2.5 15.5q1 22 1 51.5t-2.5 55.5t-8.5 42.5t-16 13.5q-8 -2 -14.5 4t-7.5 14q-2 8 3.5 14t13.5 8q41 7 64 -14t30 -55t0 -74t-25 -72q-8 -14 -19 -14zM470 325q8 -2 12 -9.5t2 -15.5q0 -1 -4.5 -14t-13.5 -34t-23.5 -47t-33.5 -54
q-45 -66 -103 -104q-37 -24 -84 -35.5t-94 -11.5q-34 0 -63 14.5t-49 34.5q-19 19 -30.5 52t-14.5 70.5t4 75t24 65.5q6 11 15 13.5t15.5 0.5t10 -8t-0.5 -12q-15 -21 -21.5 -53t-5.5 -66t9.5 -64t24.5 -47q16 -18 37 -23.5t42.5 -1t42 17t35.5 30.5q18 20 26 43t6 46
t-14.5 44t-31 39.5t-40.5 36t-44 33.5q-26 19 -48.5 37t-36.5 38q-29 40 -31 98q-1 26 5.5 51.5t19.5 47.5q22 40 56 61q16 9 37 15t42.5 5.5t40.5 -9t30 -28.5q15 -23 17 -53t-1 -54q-4 -30 -11 -54t-13 -38q-4 -8 -11.5 -11t-15.5 1t-10.5 11.5t0.5 15.5q6 13 12 34.5
t9 45t1 45t-11 35.5q-10 17 -34 17q-15 0 -26.5 -5t-20 -12.5t-14.5 -16t-9 -15.5q-9 -17 -13.5 -37.5t-3.5 -42.5t7 -43.5t20 -40.5q11 -16 32 -32.5t45 -33.5q24 -18 48 -36.5t44 -39.5q48 -51 54 -105q3 -29 -6 -58.5t-29 -55.5q52 32 97 96q18 25 30.5 50t21 44.5
t12.5 31.5l4 12q2 8 9.5 11.5t15.5 1.5z" />
    <glyph glyph-name="scedilla" unicode="&#x15f;" horiz-adv-x="237" 
d="M261 325q8 -2 12 -9.5t1 -15.5q0 -1 -4 -14t-11.5 -33.5t-18.5 -46.5t-25 -53q-80 -154 -174 -154q-17 0 -34 8t-29 22q-19 20 -27.5 51.5t-4.5 64.5q2 8 8.5 13.5t14.5 3.5q8 -1 13 -7.5t4 -14.5q-2 -13 -1 -28.5t5 -29t12.5 -23t22.5 -10.5q12 -1 22.5 5t18.5 16
t11.5 22.5t2.5 26.5q-2 19 -9.5 38.5t-18 37.5t-23.5 35.5t-25 32.5q-8 11 -15 20t-12 18q-11 16 -14 37.5t-0.5 43.5t10.5 43t20 37q8 10 22 19.5t29.5 12.5t29 -2t20.5 -23q12 -24 0.5 -59.5t-30.5 -75.5q-5 -13 -9 -20l25 -32q23 -31 47 -68t32 -79l10 18l10 18
q13 26 24 51t18 45t11 32.5l4 12.5q2 8 9.5 11.5t15.5 1.5zM96 -279q-4 0 -6 1q-8 2 -10.5 9.5t-2.5 15.5q1 22 1 51.5t-2.5 55.5t-8.5 42.5t-16 13.5q-8 -2 -14.5 4t-7.5 14q-2 8 3.5 14t13.5 8q41 7 64 -14t30 -55t0 -74t-25 -72q-8 -14 -19 -14zM54 411q7 21 6.5 30
t-2.5 11q0 3 -5 3q-1 0 -4 -3t-6 -11q-6 -14 -8 -34t1 -40q5 11 9.5 22t8.5 22z" />
    <glyph glyph-name="dcroat" unicode="&#x111;" horiz-adv-x="371" 
d="M131 546q-13 0 -24 12t-15.5 26.5t-0.5 27t21 13.5q19 1 38.5 0.5t38.5 -2.5q6 21 13 34q23 53 58 55q23 1 35 -7.5t17 -17.5q9 -14 10.5 -34t-3.5 -48q20 -8 18 -22t-30 -26q-7 -22 -16 -46.5t-21 -52.5q-17 -39 -34 -74q0 -7 -0.5 -14t-0.5 -14q-2 -54 -1 -106t5 -95
t9.5 -61t14.5 -14t21.5 27t30.5 62q12 26 22 52t18 46q9 24 16 45q7 18 26 13q8 -3 11.5 -10t0.5 -15q0 -1 -4.5 -14t-12.5 -33.5t-18.5 -46.5t-22.5 -53q-14 -32 -28 -57.5t-27 -44.5q-12 -17 -28.5 -34.5t-41.5 -17.5h-2q-13 0 -22 8t-15.5 20.5t-10.5 27t-7 28.5l-3 16
q-6 -14 -16 -31t-23 -32.5t-29 -26t-34 -10.5q-8 0 -16.5 2.5t-17 9.5t-17 20t-15.5 33q-9 25 -13.5 55.5t-5.5 64.5q-1 30 2.5 57.5t10.5 49.5q12 36 28.5 47.5t30.5 11.5q16 1 39 -10t44 -48q13 -21 20 -41q-2 75 3 152.5t14 139.5q-19 0 -40 3zM140 140q0 6 -3.5 25
t-10.5 43q-5 17 -13.5 40t-18 35.5t-18 6.5t-13.5 -45q-4 -22 -4 -47t2 -50q2 -18 5 -36t7 -31.5t10 -19t14 2.5q23 28 42 70q0 1 1 2v4zM278 612q8 39 5 44t-15 -42zM247 507q4 10 7 19.5t6 18.5q-5 0 -8 -1z" />
    <glyph glyph-name="lslash" unicode="&#x142;" horiz-adv-x="217" 
d="M243 325q8 -3 11.5 -10t0.5 -15q0 -1 -4.5 -14t-12.5 -33.5t-18.5 -46.5t-22.5 -53q-7 -15 -19 -41t-27.5 -51t-35.5 -43.5t-43 -18.5h-2q-13 0 -22 8t-15.5 20.5t-10.5 27t-7 28.5t-5 29.5t-4 33.5l-15 -5q-12 -6 -27.5 0t-26 17.5t-12 24.5t13.5 21q17 9 32 16t29 12
v18q-2 78 3 155.5t15 140.5q12 70 30 111q23 53 58 55q23 1 35 -7.5t17 -17.5q20 -30 3 -103q-14 -53 -45 -126q-17 -39 -34 -74q0 -7 -0.5 -14t-0.5 -14q-2 -26 -2 -51.5t1 -50.5q21 8 37.5 5.5t20 -13t-8.5 -27.5t-46 -37q0 -7 0.5 -13.5t1.5 -13.5q5 -48 10.5 -67
t14 -14.5t20.5 30t31 65.5q12 26 22 52t18 46q9 24 16 45q7 18 26 13zM93 507q25 59 32.5 101t5 55t-12 -10.5t-17.5 -95.5l-4 -24t-4 -26z" />
    <glyph glyph-name="Lslash" unicode="&#x141;" horiz-adv-x="538" 
d="M564 325q8 -2 12 -9.5t1 -15.5q0 -1 -4.5 -13.5t-11.5 -33t-17.5 -46t-22.5 -52.5q-73 -154 -141 -154q-32 0 -59.5 6t-52.5 15.5t-46.5 21t-40.5 22.5l-7 3q-6 -11 -15 -21q-17 -20 -40.5 -34t-53.5 -14h-8q-19 0 -32.5 8t-20.5 21q-11 22 -2.5 51t43.5 49q22 13 48 13
q20 1 38 0l4 20q2 11 4 22.5t4 24.5q-12 -2 -26 5t-22.5 17.5t-9 22.5t13.5 20t28.5 14.5t27.5 11.5q3 21 5 42.5t5 43.5q6 60 12.5 115.5t15.5 99.5q12 49 25 75q19 36 50 36q23 0 36 -9t18 -19q21 -34 6 -104q-11 -53 -39 -124q-12 -30 -24 -57.5t-23 -48.5l-3 -26
q22 9 39 5.5t19.5 -15t-12.5 -29.5t-56 -40q-5 -26 -9.5 -49.5t-11.5 -45.5q-2 -7 -4 -13.5t-4 -13.5q28 -8 57.5 -28t59 -35t58.5 -15t55 33q13 17 26.5 40.5t27.5 53.5q12 26 22.5 51t17.5 44.5t11 32l4 12.5q3 8 10 11.5t15 1.5zM39 48q5 -8 17.5 -8t29.5 8q7 3 15 14
t17 35q-7 2 -12.5 3.5t-11.5 1.5q-2 0 -5 -0.5t-5 -0.5q-2 -1 -5 -1q-4 -1 -7 -2t-7 -3q-20 -12 -25 -25.5t-1 -21.5zM255 479q15 36 24 70.5t13 60.5t3.5 42t-3.5 16t-9.5 -19.5t-13.5 -63.5q-4 -23 -7.5 -50t-6.5 -56z" />
    <glyph glyph-name="Thorn" unicode="&#xde;" horiz-adv-x="591" 
d="M615 325q8 -2 12 -9.5t2 -15.5q0 -1 -4.5 -14t-13.5 -34t-23.5 -47t-33.5 -54q-48 -68 -103 -104q-74 -48 -159 -48q-17 0 -39.5 11t-37.5 24q-36 30 -65 79q-25 43 -41.5 90.5t-27.5 87.5q0 -5 -1.5 -25.5t-4 -47.5t-4.5 -58.5t-4.5 -58.5t-4 -47.5t-1.5 -25.5
q-1 -21 -12.5 -30.5t-25.5 -9t-26 9t-13 23.5q-2 27 -0.5 52t4.5 52t6 58t5 71q3 54 4 109.5t1.5 108t0 99t-1.5 81.5t-1.5 55t-0.5 21q-2 11 10 20t27 11.5t28.5 -4t14.5 -25.5l0.5 -21.5t1 -54.5t1.5 -73.5t1 -79.5q17 36 33.5 65t33.5 52q54 75 106 75q13 0 29 -5.5
t32.5 -20t33 -40.5t31.5 -68q19 -54 29.5 -122t12.5 -139q1 -57 -5.5 -108t-18.5 -89q-8 -25 -20 -45q80 32 139 118q18 25 31 50t21.5 44.5t12.5 31.5l4 12q2 8 9.5 11.5t15.5 1.5zM223 81q28 -30 48.5 -30.5t34.5 19t22.5 55t13.5 78.5q7 64 2.5 136t-18.5 138
q-20 90 -42.5 130t-50 33.5t-60 -57.5t-72.5 -142q-1 -2 -2 -3.5t-2 -3.5v-6q0 -4 -1 -5q1 -11 7.5 -50.5t21.5 -93.5q7 -24 16.5 -50.5t21.5 -53t27 -51t33 -43.5z" />
    <glyph glyph-name="thorn" unicode="&#xfe;" 
d="M422 325q8 -2 12 -9.5t2 -15.5q0 -1 -4.5 -14t-12 -33.5t-18.5 -46.5t-25 -53q-80 -154 -174 -154q-49 0 -88 65q-14 24 -23 49t-14 44v-54.5v-75v-82v-75v-55v-21.5q1 -17 -12 -28.5t-28.5 -15t-28 0.5t-11.5 18v30.5t-0.5 78.5t0 109l1 122t1.5 116.5t3 94.5
q6 138 21 226q10 60 22 96.5t29 53.5q10 10 19 13t16 3q23 0 36 -9.5t18 -19.5q20 -33 2 -104q-7 -26 -18 -57t-28 -68q-8 -20 -17 -38l-17 -34l-4 -58q-1 -19 -1.5 -37.5t-0.5 -37.5q17 38 40 62q34 40 63 40q15 0 34.5 -14t35.5 -58q9 -26 14.5 -59.5t5.5 -68.5
q1 -17 -1 -40t-7 -45q23 20 42.5 48.5t33.5 56.5q13 26 24 51t18 45t11 32.5l4 12.5q2 8 9.5 11.5t15.5 1.5zM134 114q15 -36 26.5 -47.5t19 -3t10.5 34t2 64.5q-1 18 -4 43t-8.5 46t-13.5 32.5t-17 2.5q-11 -14 -22.5 -32.5t-19.5 -38.5q-1 -1 -1 -2q0 -2 -1 -2
q2 -9 8.5 -37t20.5 -60zM103 546q-2 -11 -3.5 -21.5t-3.5 -22.5q24 62 33 104.5t7.5 53.5t-11 -14.5t-22.5 -99.5z" />
    <glyph glyph-name="ae" unicode="&#xe6;" horiz-adv-x="364" 
d="M389 325q8 -3 12 -10t1 -15q0 -1 -4.5 -14t-12.5 -33t-18.5 -46t-22.5 -53q-15 -32 -28.5 -57.5t-26.5 -44.5q-38 -53 -71 -53q-17 0 -37.5 15t-37.5 64q-16 -31 -37 -55t-46 -24q-12 0 -26.5 9t-27 30.5t-21.5 57t-10 88.5q0 48 7.5 80t19 51t24.5 27t25 8
q19 0 39.5 -13t38.5 -46q1 3 1.5 6.5t2.5 6.5q11 31 26.5 38.5t25.5 7.5q43 0 59 -44q14 -42 -6 -98q-10 -31 -32 -59q10 -50 19.5 -68.5t21.5 -12.5t26.5 33t34.5 70q12 26 22 51.5t18 45.5q9 23 16 44q3 8 10 11.5t15 1.5zM126 137q0 3 1 4v1q0 1 -0.5 1.5t-0.5 2.5
q-2 18 -3.5 36.5t-1.5 36.5q0 15 1.5 34t6.5 38q15 -31 27 -77l30 -34l-9 -25q-5 -12 -13.5 -33t-20.5 -44v1q-11 32 -17 67q-2 10 -6.5 35.5t-11.5 51t-16 45.5t-20 20q-7 0 -12 -27t-5 -79q0 -49 8 -84t18 -52q8 10 19.5 29t25.5 52zM201 222q13 39 11 59.5t-7.5 21
t-9.5 -20.5t4 -64z" />
    <glyph glyph-name="Oslash" unicode="&#xd8;" horiz-adv-x="528" 
d="M350 674q6 12 21.5 17t30.5 3t24.5 -11t3.5 -25l-39 -91q0 -2 2 -4q21 -50 31 -111.5t8 -128.5q-3 -95 -31 -171q46 23 78.5 63.5t48.5 95.5q2 8 9.5 12t15.5 2t11.5 -9t1.5 -15q-14 -50 -39 -89q-24 -38 -59 -65q-42 -32 -90 -47q-55 -98 -143 -100h-4q-53 0 -90 34
q-2 -4 -3 -7.5t-3 -6.5l-3 -6q-5 -9 -13.5 -12t-16 0.5t-11 13t1.5 25.5l15 33q-21 35 -34 86l-4 18q-30 32 -48 70q-16 32 -21.5 76.5t-0.5 94.5q5 53 21.5 100t41.5 83q32 45 77 70q46 25 107 20q49 -6 88 -42l3 -3zM147 197q1 -6 2 -11.5t3 -11.5q43 103 85.5 214.5
t84.5 216.5q-15 18 -34.5 31t-44.5 16q-89 9 -147 -73q-24 -35 -38 -78t-18.5 -86t0 -82.5t17.5 -66.5q-6 76 3 157q3 31 7 57.5t12 48.5q13 37 33.5 53t37.5 16.5t26 -12t0 -30.5q-1 0 -6 -7t-12 -30q-11 -38 -17 -90q-8 -60 -6.5 -120.5t12.5 -111.5zM392 324q2 51 -4 100
t-20 91q-23 -51 -46 -101.5t-45.5 -98.5t-43.5 -91.5t-39 -80.5q58 -22 119 -16q9 2 18.5 3.5t18.5 3.5q19 38 29.5 87t12.5 103zM316 88q-35 -4 -70.5 1t-68.5 18v-1q29 -54 63 -60.5t82 42.5h-6z" />
    <glyph glyph-name="oslash" unicode="&#xf8;" horiz-adv-x="243" 
d="M269 324q8 -3 11 -10.5t0 -15.5q-15 -37 -42.5 -66.5t-63.5 -49.5v-12t-1 -12q-3 -62 -25 -104q-28 -53 -78 -53q-1 -1 -2 -1q-22 0 -41 11q-17 -26 -17 -27q-5 -9 -13.5 -12t-16 0.5t-11 13t1.5 25.5q6 12 10.5 22.5t9.5 20.5q-6 13 -13 36q-5 20 -8 44.5t-2 50.5
q-23 18 -26 52q-2 29 11 60q18 38 47 59q36 25 78 19q27 -3 48 -27q0 -1 1 -1l10 24q6 12 18.5 17t23.5 3t17.5 -11t0.5 -25l-35 -82q6 -20 9 -46q50 32 72 86q3 8 10.5 11t15.5 0zM74 310q3 -14 -9 -21q-3 -5 -8 -22.5t-8 -49.5q0 -5 -0.5 -11t-0.5 -11q4 -1 12 -1l48 107
q-17 30 -35 35q-14 2 -25.5 -1.5t-21.5 -9.5h28q15 0 20 -15zM134 165l-14 -4l-12 -3q-12 -25 -23 -45t-20 -37q8 -20 19.5 -26t28.5 23q8 16 13.5 38.5t7.5 48.5v5zM133 210q-2 -2 -2 -4l2 1v3z" />
    <glyph glyph-name="AE" unicode="&#xc6;" horiz-adv-x="706" 
d="M742 299l-4 -12t-5 -14q-12 -37 -30 -82.5t-46 -87.5q-70 -103 -174 -103q-41 0 -76 12.5t-63 38.5q-25 23 -40 52.5t-17 62.5q-2 11 -1.5 21t2.5 20q-26 -60 -50 -103q-9 -15 -20.5 -33.5t-26 -34t-32.5 -26.5t-39 -11q-11 0 -23.5 4t-25 15.5t-24.5 31t-22 50.5
q-13 39 -19.5 92t-6.5 113q0 71 9 138t25 121q8 29 19 52t23 40q30 41 69 41q34 0 62 -22q24 -19 42 -52q13 -24 23 -52t17 -57t11.5 -57.5t7.5 -52.5q1 -5 1.5 -10t0.5 -10l31 101q-1 4 -0.5 8t0.5 8q0 38 9.5 72t27.5 60q43 64 118 64q38 0 65 -27q38 -41 32 -132
q-2 -19 -21 -19q-8 1 -14 7.5t-5 14.5q2 35 -3 61.5t-19 40.5q-11 11 -21 11q-27 0 -45 -17.5t-28.5 -44.5t-13.5 -59t0 -60q3 -25 11 -46t19 -37q24 -31 61 -31q8 0 13.5 -5.5t6.5 -13.5q0 -8 -4.5 -13.5t-12.5 -7.5q-44 -7 -73.5 -23t-47 -36.5t-24.5 -43.5t-5 -44
q2 -24 13.5 -46.5t31.5 -40t48 -26.5t63 -4q39 5 67 30t48.5 59.5t34 72.5t24.5 69l9 27q2 8 9.5 11.5t15.5 0.5q19 -7 12 -26zM274 281q1 17 -1 57t-9 89q-10 70 -27 121.5t-40 79.5q-5 5 -15.5 14t-15.5 9q-16 0 -29.5 -19.5t-24 -52t-18 -76t-11.5 -91.5t-4 -98t4 -95
q4 -36 10 -67t15 -54q7 -19 14 -32.5t18 -14.5q14 -1 29 18.5t35 54.5q17 30 34.5 69t35.5 88zM314 271q2 4 5 8t7 8q30 34 80 54q-10 8 -18.5 17t-15.5 21q-8 10 -14 26l-29 -89l-15 -43v-2z" />
    <glyph glyph-name="oe" unicode="&#x153;" horiz-adv-x="374" 
d="M399 325q8 -3 12 -10t1 -15q0 -1 -4.5 -14t-12.5 -33t-18.5 -46t-22.5 -53q-15 -32 -28.5 -57.5t-26.5 -44.5q-38 -53 -71 -53q-16 0 -35.5 13.5t-36.5 57.5l-8 -16q-28 -53 -78 -53q-1 -1 -2 -1q-35 0 -60 28q-19 22 -30 62q-5 20 -8 44.5t-2 50.5q-23 18 -26 52
q-2 29 11 60q18 38 47 59q36 25 78 19q27 -3 48 -27q5 -8 10.5 -16t10.5 -18q11 24 25 30t23 6q43 0 59 -44q14 -42 -6 -98q-10 -31 -32 -59q10 -50 19.5 -68.5t21.5 -12.5t26.5 33t34.5 70q12 26 22 51.5t18 45.5q9 23 16 44q3 8 10 11.5t15 1.5zM74 310q3 -14 -9 -21
q-3 -5 -8 -22.5t-8 -49.5q0 -5 -0.5 -11t-0.5 -11q14 -2 29.5 -1t32.5 6q5 2 10.5 3t10.5 3v13v8q-5 29 -14 54q-8 25 -20 39t-24 16q-14 2 -25.5 -1.5t-21.5 -9.5h28q15 0 20 -15zM134 165l-14 -4q-36 -9 -71 -7q1 -28 8 -54q4 -13 9 -26t12 -19.5t15.5 -3.5t19.5 22
q8 16 13.5 38.5t7.5 48.5v5zM211 222q13 39 11 59.5t-7.5 21t-9.5 -20.5t4 -64z" />
    <glyph glyph-name="OE" unicode="&#x152;" horiz-adv-x="792" 
d="M830 299l-4 -12t-5 -14q-12 -37 -30 -82.5t-46 -87.5q-70 -103 -174 -103q-41 0 -76 12.5t-63 38.5q-31 27 -47 66l-7 -17q-55 -98 -143 -100h-4q-61 0 -102 47q-35 39 -55 113l-4 18q-30 32 -48 70q-16 32 -21.5 76.5t-0.5 94.5q5 53 21.5 100t41.5 83q32 45 77 70
q46 25 107 20q49 -6 88 -42q17 -16 31.5 -38t26.5 -49q21 -50 31 -111.5t8 -128.5q0 -5 -0.5 -9.5t-0.5 -9.5q24 22 63 37q-10 8 -18.5 17t-15.5 21q-16 24 -24 55.5t-8 66.5q0 38 9.5 72t27.5 60q43 64 118 64q38 0 65 -27q38 -41 32 -132q-2 -19 -21 -19q-8 1 -14 7.5
t-5 14.5q2 35 -3 61.5t-19 40.5q-11 11 -21 11q-27 0 -45 -17.5t-28.5 -44.5t-13.5 -59t0 -60q3 -25 11 -46t19 -37q24 -31 61 -31q8 0 13.5 -5.5t6.5 -13.5q0 -8 -4.5 -13.5t-12.5 -7.5q-44 -7 -73.5 -23t-47 -36.5t-24.5 -43.5t-5 -44q2 -24 13.5 -46.5t31.5 -40t48 -26.5
t63 -4q39 5 67 30t48.5 59.5t34 72.5t24.5 69l9 27q2 8 9.5 11.5t15.5 0.5q19 -7 12 -26zM392 324q2 62 -7 120t-29 103q-7 17 -17.5 34.5t-24 32.5t-31.5 25.5t-40 12.5q-89 9 -147 -73q-24 -35 -38 -78t-18.5 -86t0 -82.5t17.5 -66.5q-6 76 3 157q3 31 7 57.5t12 48.5
q13 37 33.5 53t37.5 16.5t26 -12t0 -30.5q-1 0 -6 -7t-12 -30q-11 -38 -17 -90q-8 -60 -6.5 -120.5t12.5 -111.5q2 -8 4 -17l4 -18q35 -20 75 -29.5t83 -5.5q9 2 18.5 3.5t18.5 3.5q17 34 26 74l4 17q5 23 7.5 48t4.5 51zM176 108q29 -56 63.5 -62.5t82.5 42.5h-6
q-72 -8 -140 20z" />
    <glyph glyph-name="cedilla" unicode="&#xb8;" horiz-adv-x="152" 
d="M76 38q11 0 19 -14q18 -32 25 -72t0 -74t-30 -55t-64 -14q-8 2 -13.5 8t-3.5 14q1 8 7.5 14t14.5 4q10 -3 16 13.5t8.5 42.5t2.5 55t-1 52q0 8 2.5 15.5t10.5 9.5q2 1 6 1z" />
    <glyph glyph-name="ccedilla" unicode="&#xe7;" horiz-adv-x="229" 
d="M254 325q8 -3 11.5 -10t1.5 -15q0 -1 -4.5 -14t-12.5 -33t-18.5 -46t-22.5 -53q-15 -32 -29 -57.5t-27 -44.5q-10 -15 -20 -26q0 -1 1 -2q18 -32 25 -72t0 -74t-30 -55t-64 -14q-8 2 -13.5 8t-3.5 14q1 8 7.5 14t14.5 4q10 -3 15.5 12t8 38.5t3 51t-0.5 50.5
q-4 -1 -7 -1.5t-7 -0.5q-8 0 -17.5 3t-19.5 12t-19.5 24.5t-18.5 40.5q-11 30 -16.5 67t-5.5 73q0 18 2 41.5t10 43.5q6 15 13 24.5t14 14t14 6t12 1.5q27 0 45 -20q24 -26 21 -67q0 -8 -6.5 -13.5t-14.5 -4.5q-19 2 -19 21q1 6 -1 17.5t-4 16.5q-6 -17 -7 -50.5t3 -68.5
q12 -111 36 -111.5t69 101.5q12 26 22.5 51.5t18 45.5l12 32l4.5 12q2 8 9.5 11.5t15.5 1.5z" />
    <glyph glyph-name="Ccedilla" unicode="&#xc7;" horiz-adv-x="369" 
d="M395 325q8 -3 11 -10.5t0 -15.5l-11 -31q-13 -35 -30.5 -80.5t-42.5 -86.5q-29 -46 -60 -71q-33 -26 -67 -30q13 -32 16.5 -68.5t-5.5 -65.5t-31.5 -46t-59.5 -11q-8 2 -13.5 8t-3.5 14q1 8 7.5 14t14.5 4q10 -3 15.5 12.5t8 39t3 51.5t-0.5 51q-14 5 -27 12.5t-24 20.5
q-30 30 -53 87q-20 49 -30.5 113.5t-10.5 133.5q0 63 9.5 120t26.5 101q13 33 28.5 54t32 33t32 16.5t29.5 4.5q40 0 64 -27q39 -42 33 -134q-2 -19 -21 -19q-8 1 -14 7.5t-5 14.5q2 35 -3.5 62.5t-18.5 41.5q-4 3 -7.5 6.5t-7.5 3.5q-14 0 -26 -10t-22.5 -28t-18.5 -42.5
t-15 -51.5q-13 -55 -15.5 -120.5t6.5 -130.5q7 -51 19 -92t29 -71t36 -48t42 -14q21 4 38.5 25t35.5 50q23 38 40 81.5t29 77.5q4 9 6.5 17t5.5 15q3 8 10.5 11.5t15.5 0.5z" />
    <glyph glyph-name="ogonek" unicode="&#x2db;" horiz-adv-x="152" 
d="M76 38q4 0 6 -1q8 -2 10.5 -9.5t2.5 -15.5q-1 -23 -1 -52t2.5 -55t8 -42.5t16.5 -13.5q8 2 14.5 -4t7.5 -14q2 -8 -3.5 -14t-13.5 -8q-41 -7 -64 14t-30 55t0 74t25 72q8 14 19 14z" />
    <glyph glyph-name="Aogonek" unicode="&#x104;" horiz-adv-x="576" 
d="M602 325q8 -3 11.5 -10t0.5 -15q0 -1 -4.5 -14t-12.5 -33.5t-18.5 -46.5t-22.5 -53q-14 -32 -28 -57.5t-27 -44.5q-35 -48 -64 -51q0 -23 0.5 -50.5t3 -50t8 -37t15.5 -11.5q8 2 14.5 -4t7.5 -14q2 -8 -3.5 -14t-13.5 -8q-41 -6 -63.5 13.5t-30 52.5t-2 72t22.5 71
q-15 24 -23 90q-4 29 -5.5 67.5t-1.5 85.5q-1 45 0 90.5t3 88.5q-9 -30 -19 -62t-21 -64l-15 -43q-1 -8 -2 -11.5t-3 -5.5l-3 -4q-35 -90 -68 -148q-9 -15 -20.5 -33.5t-26 -34t-32.5 -26.5t-39 -11q-11 0 -23.5 4t-25 15.5t-24.5 31t-22 50.5q-13 39 -19.5 92t-6.5 113
q0 71 9 138t25 121q8 29 19 52t23 40q30 41 69 41q34 0 62 -22q24 -19 42 -52q13 -24 23 -52t17 -57t11.5 -57.5t7.5 -52.5q1 -5 1.5 -10t0.5 -10q16 48 28.5 92.5t21.5 78.5t14 54.5l5 20.5q2 7 14.5 13t26.5 7.5t26 -4t12 -21.5q0 -9 -0.5 -22.5t-1.5 -30.5
q-2 -27 -3.5 -62t-3 -75t-2 -82t-0.5 -83q0 -88 5 -135.5t10 -69.5q11 14 25.5 38.5t33.5 65.5q12 26 22 52t18 46q9 24 16 45q7 18 26 13zM274 281q1 17 -1 57t-9 89q-10 70 -27 121.5t-40 79.5q-5 5 -15.5 14t-15.5 9q-16 0 -29.5 -19.5t-24 -52t-18 -76t-11.5 -91.5
t-4 -98t4 -95q4 -36 10 -67t15 -54q7 -19 14 -32.5t18 -14.5q14 -1 29 18.5t35 54.5q17 30 34.5 69t35.5 88z" />
    <glyph glyph-name="aogonek" unicode="&#x105;" 
d="M421 325q7 -2 11.5 -6.5t2.5 -12.5q-1 -3 -2.5 -9.5t-7.5 -22.5t-17 -44t-32 -76q-64 -146 -120 -154q0 -23 0.5 -50.5t3 -51t8 -38t15.5 -11.5q8 2 14.5 -4t7.5 -14q2 -8 -3.5 -14t-13.5 -8q-41 -6 -63.5 14t-30 53t-1.5 72t23 71q-5 6 -8.5 17t-7.5 29t-7.5 46t-6.5 69
l-9 -25q-6 -14 -16.5 -40.5t-25.5 -52t-34 -44.5t-41 -19q-12 0 -26.5 9t-27 30.5t-21.5 57t-10 88.5q0 48 7.5 80t19 51t24.5 27t25 8q13 0 28 -6.5t29 -22t26.5 -42t21.5 -65.5q12 37 17 51.5t6.5 19t1 4.5t1.5 7q3 14 20.5 24.5t34.5 10.5q11 0 19.5 -5t8.5 -18
q0 -12 -1 -24.5t-1 -26.5q0 -30 1 -64t3 -62.5t4.5 -47t5.5 -18.5q5 0 15.5 17.5t23.5 44t26.5 58t25 59t19.5 46.5t9 22q2 7 7.5 10.5t11.5 3.5q2 0 3 -0.5t3 -0.5zM126 137q0 3 1 4q0 1 -2 13t-5.5 29.5t-8 37.5t-11 37t-13.5 28.5t-15 11.5q-7 0 -12 -27t-5 -79
q0 -49 8 -84t18 -52q8 10 19.5 29t25.5 52z" />
    <glyph glyph-name="Eogonek" unicode="&#x118;" horiz-adv-x="419" 
d="M456 299l-4 -12t-5 -14q-12 -37 -30 -82.5t-46 -87.5q-30 -44 -64 -68v-50.5t3 -51.5t8.5 -39t15.5 -12q8 2 14.5 -4t7.5 -14q2 -8 -3.5 -14t-13.5 -8q-34 -6 -55.5 7.5t-32 38.5t-10.5 56.5t9 62.5q-24 -7 -53 -7q-41 0 -76 12.5t-63 38.5q-25 23 -40 52.5t-17 62.5
q-6 68 39 121q30 34 80 54q-10 8 -18.5 17t-15.5 21q-16 24 -24 55.5t-8 66.5q0 38 9.5 72t27.5 60q43 64 118 64q38 0 65 -27q38 -41 32 -132q-2 -19 -21 -19q-8 1 -14 7.5t-5 14.5q2 35 -3 61.5t-19 40.5q-11 11 -21 11q-27 0 -45 -17.5t-28.5 -44.5t-13.5 -59t0 -60
q3 -25 11 -46t19 -37q24 -31 61 -31q8 0 13.5 -5.5t6.5 -13.5q0 -8 -4.5 -13.5t-12.5 -7.5q-44 -7 -73.5 -23t-47 -36.5t-24.5 -43.5t-5 -44q2 -24 13.5 -46.5t31.5 -40t48 -26.5t63 -4q39 5 67 30t48.5 59.5t34 72.5t24.5 69l9 27q2 8 9.5 11.5t15.5 0.5q19 -7 12 -26z" />
    <glyph glyph-name="eogonek" unicode="&#x119;" horiz-adv-x="228" 
d="M253 325q8 -3 12 -10t1 -15q0 -1 -4.5 -14t-12.5 -33t-18.5 -46t-22.5 -53q-15 -32 -28.5 -57.5t-26.5 -44.5q-5 -7 -9.5 -12.5t-9.5 -10.5q-1 -23 -0.5 -51.5t3 -52.5t8.5 -40t16 -13q8 2 14.5 -4t7.5 -14q2 -8 -3.5 -14t-13.5 -8q-34 -6 -55.5 8t-32 39t-10.5 57t9 63
q-16 2 -35.5 17.5t-34.5 62.5q-11 30 -16.5 67t-5.5 73q0 18 2 41.5t10 43.5q11 31 26.5 38.5t25.5 7.5q43 0 59 -44q14 -42 -6 -98q-10 -31 -32 -59q10 -50 19.5 -68.5t21.5 -12.5t26.5 33t34.5 70q12 26 22 51.5t18 45.5q9 23 16 44q3 8 10 11.5t15 1.5zM65 222
q13 39 11 59.5t-7.5 21t-9.5 -20.5t4 -64z" />
    <glyph glyph-name="eth" unicode="&#xf0;" horiz-adv-x="303" 
d="M73 478q-10 -8 -25.5 -7t-27 8.5t-15.5 18.5t9 23t27.5 23t29.5 22q-26 17 -56 21t-66 -10q-7 -2 -13.5 1t-8.5 10q-3 8 0 14.5t11 8.5q101 37 185 -12l45 26q15 14 25.5 16t12.5 -6.5t-6.5 -26.5t-31.5 -44q22 -23 39.5 -52.5t29.5 -67.5q10 -33 17 -83.5t8 -104
t-6.5 -102t-25.5 -78.5q-21 -35 -48 -54t-65 -19q-34 0 -65 14.5t-52 43.5q-17 23 -28 53t-10 62q2 42 10.5 76.5t26 59t45 38t66.5 13.5q23 -1 46 -12t33 -30q-1 22 -6 48t-13 52t-20 51t-28 46q-11 -9 -23 -19t-26 -21zM109 39q26 0 43.5 14t28.5 46q14 41 14 117v27
t-2 27q-6 8 -13.5 17.5t-17.5 17.5t-22.5 13.5t-27.5 5.5q-19 0 -37.5 -10t-33.5 -29t-24 -46t-9 -61q0 -23 4 -47t15 -44t30.5 -33.5t51.5 -14.5z" />
    <glyph glyph-name="germandbls" unicode="&#xdf;" horiz-adv-x="470" 
d="M412 209q5 -23 5.5 -46.5t-4.5 -47.5q-6 -32 -24.5 -56t-47.5 -39q-24 -11 -52.5 -15.5t-58.5 0.5q-51 8 -81.5 34.5t-27.5 61.5q1 8 7.5 14t14.5 5t13.5 -7.5t4.5 -14.5q-1 -15 8.5 -25t23.5 -16t29.5 -9t26.5 -3q10 0 23 4.5t25.5 13.5t22.5 24t14 36q15 80 -33 143
q-29 39 -76 63t-102 28q-16 2 -18 16q-3 15 10 22q79 39 118 84q35 42 25 79q-6 21 -18.5 37.5t-30 27t-38.5 15t-42 1.5q-9 -1 -26 -5.5t-33.5 -15t-29 -28t-12.5 -44.5q0 -14 1.5 -38.5t3.5 -56.5t4 -69.5t3.5 -77.5t2.5 -80.5t1 -79.5q-1 -43 -2.5 -78.5t-5.5 -62.5
q-10 -69 -32 -92q-8 -9 -16.5 -11.5t-14.5 -2.5q-8 0 -14 6t-6 14t6 14t14 6l2 2q3 3 8 13t9.5 33t8 61t3.5 98q0 78 -3.5 159t-7.5 145q-2 33 -3.5 58.5t-1.5 39.5q0 57 42 93q36 31 93 39q32 4 64.5 0.5t64.5 -17.5q68 -31 85 -93q15 -58 -34 -115q-14 -17 -34 -33.5
t-45 -32.5q45 -12 84 -37t65 -60q28 -38 39 -81z" />
    <glyph glyph-name="backslash" unicode="\" horiz-adv-x="1103" 
d="M1132 320q8 -5 9.5 -13t-3.5 -15q-85 -125 -177 -189q-86 -59 -181 -69q-11 -1 -20.5 -1.5t-20.5 -0.5q-70 0 -132 25l-20 9q-63 -30 -138 -30h-12t-12 1q-53 3 -107 18t-104 40q-131 68 -213 197q-5 8 -3 15.5t9 12.5q8 5 15.5 3t12.5 -9q49 -77 108 -123.5t114.5 -71
t101.5 -33t68 -9.5q61 -4 116 14q-55 35 -105 88q-26 27 -41 57.5t-21.5 59.5t-4.5 56t11 47q19 45 59 45q45 0 78 -42q13 -17 23 -35.5t18 -35.5l8 -17q5 12 11 27t14 30q19 40 43 62q20 20 38 22.5t31 -0.5q20 -6 36.5 -24t27.5 -46q14 -37 11 -78q-4 -48 -31 -89
q-46 -71 -101 -114q75 -31 139.5 -26t121 36.5t105 83.5t91.5 116q5 7 12.5 9t14.5 -3zM524 314q-9 23 -23.5 44t-27.5 28t-20 -6t-1 -58q3 -31 17.5 -60.5t37.5 -54.5q25 -26 50 -47t51 -36q60 41 108 116q14 22 19 42t5.5 37.5t-2.5 30.5t-6 21q-9 24 -18.5 28.5t-19 -3
t-19 -25t-18.5 -37.5q-5 -13 -9 -24t-7 -20q-4 -11 -6 -20q-2 -10 -16 -14t-32 0.5t-35.5 18t-27.5 39.5z" />
    <glyph glyph-name="braceleft" unicode="{" horiz-adv-x="818" 
d="M19 133q-8 0 -14 6t-6 14q0 20 15 34q23 19 71 16t124 -14q36 -5 72 -9.5t66 -5.5q38 -1 53.5 5t20.5 12q10 13 14 24l-39 12q-35 13 -53 32q-15 14 -18.5 27.5t-1.5 23.5q5 25 16 39q12 17 31 20q23 5 49 -9t43 -42q22 -34 20 -70v-2q36 -7 75 -8.5t77 1.5q63 6 112 25
q50 19 72 52q5 7 13 8.5t15 -3.5t8.5 -12.5t-3.5 -14.5q-29 -43 -90 -67q-53 -21 -123 -27q-41 -4 -83 -2t-80 8q-4 -10 -9 -20t-13 -19q-27 -34 -107 -33q-32 1 -68.5 6t-73.5 10q-31 5 -58.5 8t-50.5 5q-30 2 -41.5 -1.5t-13.5 -5.5q-1 0 -1 -3q0 -8 -6 -14t-14 -6z
M378 330q-8 -2 -11 -10t-4 -16q-2 -9 11.5 -19.5t36.5 -19.5q8 -3 15.5 -6t15.5 -5q-1 14 -5.5 25t-8.5 17q-10 17 -23 25.5t-23 8.5h-4z" />
    <glyph glyph-name="braceright" unicode="}" horiz-adv-x="853" 
d="M834 133q-8 0 -14 6t-6 14q0 3 -1 3q-2 2 -13.5 5.5t-41.5 1.5q-23 -2 -50.5 -5t-58.5 -8q-37 -5 -73.5 -10t-68.5 -6q-80 -1 -107 33q-8 9 -13 19t-9 20q-38 -6 -80 -8t-83 2q-71 6 -123 27q-61 24 -90 67q-5 7 -3.5 14.5t8.5 12.5t15 3.5t13 -8.5q22 -33 72 -52
q49 -19 112 -25q38 -3 77 -1.5t75 8.5v2q-2 36 20 70q17 28 43 42t49 9q19 -3 31 -20q11 -14 16 -39q2 -10 -1.5 -23.5t-18.5 -27.5q-19 -19 -53 -32l-39 -12q4 -11 14 -24q5 -6 20.5 -12t53.5 -5q30 1 66 5.5t72 9.5q76 11 124 14t71 -16q15 -14 15 -34q0 -8 -6 -14t-14 -6
zM471 330q-10 0 -23 -8.5t-23 -25.5q-4 -6 -8.5 -17t-5.5 -25q8 2 15.5 5t15.5 6q23 9 36.5 19.5t11.5 19.5q-1 8 -4 16t-11 10h-4z" />
    <glyph glyph-name="asterisk" unicode="*" horiz-adv-x="1169" 
d="M526 738v-11h11q8 0 9 -1t1 -9q8 0 11 -5t11 -5t9 1t1 9h10q8 -8 8 -10.5t-8 -10.5h11v-11q0 -3 -1 -5q-2 -5 -10 -5v10q0 8 -1 9.5t-9 1.5h-32q0 -8 1.5 -9.5t9.5 -1.5v-10q8 -8 9.5 -8t1.5 8v10h10q-3 -3 -4 -5q-2 -5 4 -5q0 -11 -4 -11h4q0 -3 1 -4q2 -3 9 4
q8 8 10.5 9.5t10.5 1.5v10q8 -8 16 -9t16 -1v10h-10q6 6 9 4q1 -1 1 -4h10q0 -3 1 -5q2 -5 10 -5q0 8 -1.5 9t-9.5 1q3 2 4 5q2 6 -4 6q-8 0 -9 1.5t-1 9.5h10q2 0 5 1q6 2 6 9h32l20 -21v11q0 5 -3 7t-5 3h19q0 -8 6 -9t14 -1q3 0 6 1q6 2 6 9q8 0 14 -1t6 -9v-11h11v-11
h-11q0 7 -5 10q-3 1 -5 1q-8 0 -8 -5.5t8 -5.5q0 -3 1 -5q2 -5 9 -5q2 -3 5 -4q2 -1 4 -1t2 5q2 0 5 -1q5 -3 5 -10l10 -20q3 -3 6 -7q6 -8 6 -15q0 8 5 15q2 4 5 7v10l-10 10v11h10v-11q8 0 9 -1t1 -9q-3 -3 -4 -5q-2 -5 4 -5v-11q-8 -8 -4 -10.5t4 -10.5q8 0 9.5 -1.5
t1.5 -9.5l10 11v10q-8 0 -9 7t-1 15h10q0 -3 1 -6q2 -5 9 -5q4 0 4.5 -1.5t0.5 -4t1 -4t5 -1.5v-10h11v-11q-8 0 -9.5 1.5t-1.5 9.5q-8 0 -9.5 -6.5t-1.5 -14.5h22v-10l10 -11v21h10q8 0 9.5 -1t1.5 -9h10v-11q8 -8 8 -10.5t-8 -10.5v-11q7 0 10 -5q1 -3 1 -5h21v-10
q2 0 5 -1q5 -3 5 -10h11l10 -11h11l10.5 -10.5l10.5 -10.5h10v11q-8 0 -9 1t-1 9h21v-10h10q8 0 10 -6q1 -3 1 -5h-21q0 -3 1 -5q2 -5 9 -5h42l-10 -10h-10q5 -6 7 -5t3 3v-8h10q2 0 5 1q6 2 6 9h10q8 0 9.5 -2.5t1.5 -18.5v-21q8 -8 8 -10.5t-8 -10.5h11v-10q-8 0 -11 -1.5
t-11 -9.5h-10q-8 8 -10.5 9.5t-10.5 1.5v-11l10 -11q8 0 14.5 -6.5t6.5 -14.5q8 -8 11 -14t11 -6q0 -8 -1.5 -9.5t-9.5 -1.5v-11q0 -7 -6 -9q-3 -1 -5 -1q-3 -1 -5 -2q-5 -3 -5 -7v9q-8 8 -10.5 9t-10.5 1q0 -8 -1 -9t-9 -1v-11q6 0 9 -5q1 -3 1 -5l10 -10q0 5 3.5 7t5.5 3
h2q8 0 9 -1t1 -9q8 0 5.5 -7t5.5 -15h-21v-21l-11 11v-21q6 -7 4 -9q-1 -1 -4 -1h-10q-3 0 -5 1q-5 2 -5 9q7 0 9 5q1 2 1 5h-21q0 -8 -4 -10t4 -10h-11q0 -17 -1 -19.5t-9 -2.5h-19q6 1 8.5 6t10.5 5l-11 11h-10q-8 0 -9 -1.5t-1 -9.5t-1.5 -9.5t-9.5 -1.5q-3 0 -6 1
q-5 2 -5 10q-7 0 -9 -6q-1 -3 -1 -5q8 0 9 -1t1 -9l-10 -11h-11v11q-8 0 -15.5 -4t-15.5 4v52h-11q-8 0 -9 -1t-1 -9h10q0 -7 -5 -9q-3 -1 -5 -1h-11v-11h-19q2 0 3.5 2t-4.5 9q-3 0 -4 1q-3 3 4 9h20v21h-20v-11h-11v-10q-8 0 -8 -5t8 -5v-11q-8 8 -11 2.5t-10 -13.5v-21
q-7 0 -4 -5q1 -3 4 -5h10q2 0 5 -1q4 -1 6 -8v19q0 2 1 5q2 6 10 6q7 0 9 5q1 2 1 5q2 3 5 4q5 2 5 -4h3q2 0 2.5 -1t2.5 -2l-8 -7h11v-21q0 -8 -5 -8t-6 6v-40l-10 -11h-21v-31h-11l-10 11h-10q-8 6 -10 4q-1 -1 -1 -4v-11q-8 0 -10 -1.5t-10 -9.5h-12q-3 3 -5 4
q-5 2 -5 -4h-21q-3 -3 -5 -4q-5 -2 -5 4q-7 0 -9 -5q-1 -3 -1 -5l-22 -11h-21q0 -8 -6 -4t-14 4h-32q-8 -8 -10.5 -8t-10.5 8h-84q-3 0 -7 1q-7 2 -14 10q0 -8 -6 -10q-3 -1 -5 -1h-42q-8 -8 -15.5 -10t-15.5 -10q-3 -3 -5 -4t-3.5 -1t-1.5 5h-74v-11h-11q4 4 3 6t-3.5 4
t-5.5 4t-4 5v-8q-8 0 -14.5 1t-6.5 9q-8 0 -16 5t-16 5h-20q0 2 -1 5q-2 6 -10 6q-3 -3 -5 -4t-3.5 -1t-1.5 5l-10 10v-10q-5 4 -9 4.5t-7 0.5t-4.5 0.5t-1.5 4.5q0 7 -5 10q-3 1 -5 1q-3 0 -6 1q-5 2 -5 10q0 6 -5 9q-3 1 -5 1h-10v31h-12v-10q-8 0 -9 6.5t-1 14.5l-10 11
v-11h-11v11q8 0 9.5 1t1.5 9q-9 0 -11 10h11l-11 11v-8v8q-7 0 -9 -6q-1 -3 -1 -5q0 8 -5 8t-5 -8h-12v11h-31q0 2 1 5q2 5 10 5l-11 11q0 8 5 15q3 4 6 6v10q2 0 5 1q5 2 5 10h-10q0 -3 -1 -6q-2 -5 -10 -5h-10v21h-10v-21q-9 0 -10.5 6.5t-1.5 14.5h-10q-8 -8 -9 -10.5
t-1 -10.5q-8 0 -10 5q-1 3 -1 6q0 2 1 6q2 7 10 15q0 8 5 10.5t5 10.5q8 0 10.5 6.5t11.5 14.5q0 2 1 5q2 5 9 5q0 8 5 15q2 4 5 7h116q0 2 1 5q2 5 9 5q0 -7 5 -9q3 -1 6 -1q7 0 9 5q1 2 1 5q3 2 4 5q2 5 -4 5q0 2 -1 5q-2 6 -9 6h-11v10h31q0 -4 2 -4.5t5 0.5t7 2.5t8 1.5
q0 8 5 10q2 1 5 1v-11h31v-10h32q0 -3 1 -6q2 -5 9 -5h43q6 0 9 -5q1 -3 1 -5h21q6 6 9 4q1 -1 1 -4h11v10l11 11h20q7 7 10 4q1 -1 1 -4h21v-11h11v21h63v11q8 0 10 -1.5t10 -9.5h11q0 8 6 9.5t14 1.5h43q8 8 15.5 4t16.5 -4h31v11q7 0 9 -6q1 -3 1 -5h73q9 0 10.5 1.5
t1.5 9.5h31l10 10v-10h10q8 8 16 4t16 -4q7 -8 14 -10q4 -1 7 -1h32q0 3 1 4q2 2 9 -4l10 -11q8 8 10.5 9.5t10.5 1.5v11q-8 -8 -10.5 -4t-10.5 4v10h32q0 8 -1.5 9t-9.5 1t-15.5 5.5t-15.5 5.5q0 8 -1 8t-9 -8l-11 10q-8 -8 -10.5 -4t-10.5 4t-11 -4t-10 4h-32q-3 3 -5 4
q-5 2 -5 -4q-7 0 -9 5q-1 3 -1 6q-8 0 -9.5 1.5t-1.5 9.5h-10q0 -8 -5 -8t-5 8q-9 0 -15.5 6t-6.5 14h-10q0 -8 -6.5 -9t-14.5 -1h-10q0 -8 -1.5 -8t-10.5 8h-10q0 -8 -6.5 -8t-14.5 8q-3 0 -5 -1q-5 -3 -5 -8q-2 6 -5 8q-2 1 -5 1h-12q-4 -4 -4.5 -6t-0.5 -4t-0.5 -4.5
t-4.5 -6.5h-10v11q-2 0 -5 1q-6 2 -6 7v-8q-8 0 -9 -1.5t-1 -9.5q-3 3 -5 4q-5 2 -5 -4q-3 0 -6 1q-6 2 -6 10h-16q2 -1 1 -3t5 -8h-21q-8 8 -9 8t-1 -8t-1 -8t-9 8q-8 -8 -11 -4t-11 4q-3 0 -5 -1q-5 -2 -5 -10q-8 8 -10.5 8t-10.5 -8h-10q-8 8 -11 4t-11 -4h-10
q-8 8 -9.5 8t-1.5 -8h-10q0 8 -1 9.5t-9 1.5q0 8 -1.5 9.5t-9.5 1.5h-11q0 -8 -5 -8t-5 8q-16 0 -20 1t-11 9q-8 0 -10 -5q-1 -3 -1 -5q8 -8 10.5 -15t10.5 -7h10v-10h-20q-3 0 -6 1q-5 2 -5 9q0 8 -6 10q-3 1 -5 1h-10q-8 -8 -9.5 -8t-1.5 8h-10q0 -4 -3.5 -5t-7 -1
t-7 -0.5t-3.5 -4.5h-21q0 8 -1 8t-9 -8q-8 8 -11 4t-10 -4q-4 0 -8 -1.5t-7 -3.5q-4 -3 -7 -5q0 -8 -1 -9.5t-9 -1.5q3 -3 4 -5q2 -5 -4 -5q-7 0 -9 -5q-1 -3 -1 -5q-7 0 -15 -6q-4 -3 -6 -5q-8 0 -9 -1.5t-1 -9.5h-22q-8 0 -14.5 -1t-6.5 -9q-8 0 -10 -1.5t-10 -9.5h-43
q-8 0 -10 -1t-10 -9q0 7 -6 9q-3 1 -6 1v11h-20v21q8 0 9 1.5t1 9.5q8 0 9 -1.5t1 -9.5v-11h12v-10h20q0 8 1.5 8t9.5 -8v10q8 0 8 5.5t-8 5.5v11h10l10 -11q3 -3 6 -4q2 -1 4 -1t2 5h10v11q-8 -8 -10.5 -4t-11.5 4q-3 2 -4 5q-3 5 4 5l12 10q2 0 5 -1q5 -3 5 -9h10v10h-10
v11h10q2 3 5 4q6 2 6 -4h42q0 6 -5 9q-3 1 -5 1q0 8 -1.5 5.5t-10.5 5.5q9 0 10.5 4t1.5 -4q8 0 9 1.5t1 9.5h10q0 -8 1.5 -8t9.5 8v10l10 10q6 0 9 -5q1 -3 1 -5h12q0 -8 1 -10.5t9 -10.5v11l-10 10q0 8 -7 10t-15 10h-10q0 -8 -1.5 -9t-9.5 -1q0 -8 -1 -9t-9 -1h-10
q0 7 -6 9q-3 1 -6 1h-10q0 2 1 5q2 5 9 5v11q0 7 6 9q3 1 6 1v11l10 -11q6 0 9 -5q1 -3 1 -5q5 2 9 5q3 2 4.5 3.5t-2.5 1.5q0 8 -1.5 11t-9.5 11v10q8 0 10.5 5t10.5 5h10q0 8 1.5 9.5t10.5 1.5q0 2 1 5q2 5 9 5q0 8 5 11t5 11q0 4 3 4.5t6 0.5t4.5 0.5t-2.5 4.5q7 0 9 5
q1 2 1 5h10v-10q-7 0 -9 -5q-1 -3 -1 -5q-7 0 -9 -6q-1 -3 -1 -5q0 -8 -6 -10q-3 -1 -5 -1l11 -10h10q0 8 1 9t9 1t10 5q1 3 1 6q0 8 1.5 13.5t9.5 -2.5l10 -11v21h-10q-3 0 -6 1q-5 2 -5 9v11h11q7 0 9 5q1 2 1 5v22h10l11 10q8 -8 16 -4t16 4q3 0 4 1q2 2 -4 9q-3 2 -4 5
q-1 2 -1 4t5 2v10q8 0 9 1.5t1 9.5t5 10.5t5 10.5h11l10 10q8 8 11 9.5t11 1.5q0 -8 5 -8t5 8v8q1 -6 5.5 -5.5t4.5 7.5h11v-10h21q0 -3 1 -6q2 -5 10 -5h10v-10q8 0 9 1t1 9h-10v11h10zM935 538h-10v21h-11q0 3 -1 4q-3 2 -9 -4q0 -3 -1 -5q-2 -5 -9 -5q0 7 -6 9q-3 1 -5 1
v11q-8 -8 -10.5 -8t-10.5 8v-11l10 -10q8 0 11 -1.5t11 -9.5v-10q0 -8 -1.5 -8t-9.5 8h-11q3 2 4 5q2 5 -4 5q-8 0 -9 1.5t-1 9.5t-5 8t-5 -8q4 -4 4.5 -8t0.5 -7t0.5 -4.5t4.5 -1.5v-32q8 8 10.5 9.5t10.5 1.5q0 4 1.5 4.5t4 0.5t4 1t1.5 5h10q0 -5 1.5 -5t3.5 1t5 4h11
v-11l-11 -11v-10h63v10h-31q-8 0 -13.5 7t2.5 15v20zM128 423q-7 -7 -9 -4q-1 1 -1 4q-3 0 -6 -1q-6 -2 -6 -9q-7 0 -9 -6q-1 -3 -1 -5q0 -8 -1 -9t-9 -1q-3 0 -7 -1q-7 -2 -14 -9v-11h-10q-9 0 -4.5 6.5t4.5 14.5v10h20q8 0 8 1.5t-8 9.5l11 10v11h20q0 -8 6 -8t6 8
q0 2 -1 5q-2 5 -8 6h29v10h31l-10 -10h-10v-11l-11 -11q0 -8 -5 -8t-5 8zM831 150h-10v-10q8 0 10 -5t10 -5h11q-8 8 -4 15.5t4 15.5v21l10 11q6 6 4 9q-1 1 -4 1v10q-10 -10 -10 -6q-1 -4 -11 -4q0 -8 -1 -8t-9 8v-32q-7 6 -9 4q-1 -1 -1 -4l10 -10v-11zM998 445
q-8 0 -14.5 -1.5t-6.5 -9.5h11q6 6 9 4q1 -1 1 -4h11q4 4 6.5 4.5t4.5 -0.5t4 -2.5t6 -1.5q0 -8 5 -10q2 -1 5 -1q7 -7 10 -4q1 1 1 4q8 8 9 11t1 11v10h-10q0 -4 -1.5 -4.5t-4 -0.5t-4 -0.5t-1.5 -4.5h-10q0 8 -6.5 4t-14.5 -4h-11zM935 224q2 3 5 4q6 2 6 -4h21v-11
q7 0 9 5q1 3 1 6h-10v8l-21 2h21q3 0 4 1q2 2 -4 10q-3 0 -5 1q-5 2 -5 10q-2 -1 -5 -2q-6 -2 -6 -7v9h-11v-32zM1020 256q0 2 1 5q2 5 9 5v10h-10v-10q-8 8 -9.5 10.5t-1.5 10.5v10h-11v-10q0 -8 -1 -8t-9 8q-5 0 -5 -2t1 -4q1 -3 4 -5q8 -8 9 -10t1 -10h22zM327 119
q0 2 -1 5q-2 6 -9 6v20q-3 3 -6 4q-5 2 -5 -4q0 -8 4 -16.5t-4 -25.5q0 -8 1.5 -9t9.5 -1h10v21zM380 108q0 -8 5 -15.5t5 -15.5v-10h10v31q-8 0 -9 1t-1 9q-3 0 -4 1q-2 2 4 10l-10 11v-22zM400 536q-1 -4 -6 -2q-2 1 -4 4q0 3 -1 4q-3 2 -9 -4l-11 -10h-11v-10h11l11 10
h20v8zM526 465h11v31h-11v11q-3 0 -4 -3q-1 -2 -0.5 -6t4.5 -12v-21zM695 108v32h-12v-32h12zM1135 276q0 8 1.5 9.5t9.5 1.5v-11q3 0 4 -1q2 -3 -4 -9v-10q-8 0 -10 5q-1 2 -1 5v10zM244 528h31v10q-8 0 -9.5 4t-1.5 -4h-20v-10zM23 182q0 8 5 10q2 1 5 1q0 -8 1 -11t9 -11
l-10 -10q0 2 -1 5q-3 5 -9 5v11zM1040 382q0 -3 1 -6q2 -5 10 -5h10q8 0 10 5q1 3 1 6h-32zM65 203v-21l-10 -11v32h10zM295 486h22q0 5 3 7t5 3h-35zM400 570h11v21q-8 0 -9.5 -1t-1.5 -9v-11zM547 445l-10 10h-11l11 -21zM1051 256q-8 0 -10 -6q-1 -3 -1 -5q0 -8 1.5 -9.5
t9.5 -1.5v22zM149 203q-8 0 -9.5 6.5t-1.5 14.5l-10 -11q6 -6 9 -11.5t12 -7.5v9zM232 130v20q0 8 -1 9.5t-9 1.5v-11zM1061 297q7 -7 10 -4q1 1 1 4v11q-8 -8 -10.5 -9.5t-10.5 -1.5q0 -8 1 -9t9 -1v10zM474 633q-7 0 -6 -4.5t20 -6.5q5 2 4 6.5t-8 4.5h-10zM453 445h10
q2 0 5 1q6 2 6 9h-21v-10zM506 633l-11 11v-11q0 -11 4 -11h7v11zM348 507q0 8 -6 10q-3 1 -5 1v8q-1 -5 -5 -7q-2 -1 -5 -1l10 -11h11zM169 161q-8 0 -9 -1.5t-1 -9.5h22zM935 171q-8 0 -9 1.5t-1 9.5h10q8 -8 8 -9.5t-8 -1.5zM589 612q0 5 3.5 7t5.5 3q-2 0 -5 1.5t-4 6.5
q0 -6 -1.5 -7t-8.5 -1v-10h10zM264 475q0 7 -5 10q-3 1 -5 1l-10 -11h20zM914 392q3 2 7 5q3 2 6.5 3.5t7.5 1.5v-10h-21zM453 98q0 -8 1 -14.5t9 -6.5q0 8 -4 10.5t4 10.5h-10zM443 549q0 -6 -3.5 -8.5t-5.5 -2.5h19v11h-10zM821 234q5 -5 7 -11t3 -11v1l10 11q-8 0 -10 5
t-10 5zM977 234h11v11h-11v-11zM715 738q8 0 9.5 -1.5t1.5 -9.5h-11v11zM264 496h20l-9 11zM181 119h10v11h-10v-11zM1101 182q-6 -2 -8.5 -6.5t-9.5 -4.5v11h18zM149 486q8 0 9 -1.5t1 -9.5h-10v11zM663 213q-8 0 -9.5 -1t-1.5 -9h11v10zM925 119q0 8 1 9.5t9 1.5v-11h-10z
M967 549h-10v10h10v-10zM285 392v10h10v-10h-10zM1083 413h10v10h-10v-10zM967 528q0 8 1 9t9 1v-10h-10zM1051 203h-11q0 -7 5 -9q3 -1 6 -1v10zM620 707q0 -8 -5 -10q-3 -1 -5 -1v11h10zM23 203q0 -3 -1 -5q-2 -5 -10 -5v10h11zM118 171q7 0 9 5q1 3 1 6q-8 0 -9 -1.5
t-1 -9.5zM547 633q0 7 -5 10q-3 1 -5 1q0 -8 1 -9.5t9 -1.5zM443 570v19q-1 -2 -2.5 -7t-8.5 -12h11zM222 528q-7 0 -9 -5q-1 -3 -1 -5h10v10zM799 130h10q0 6 -5 9q-3 1 -5 1v-10zM411 87q0 -3 1 -5q2 -5 9 -5v10h-10zM787 572l2 -2h10l-10 5v6q-2 -1 -3 -1l-2 -2l-6 3z
M789 213q0 -7 5 -9q2 -1 5 -1q0 8 -1 9t-9 1zM1103 434q0 -8 5.5 -8t5.5 8h-11zM547 675q0 -8 5.5 -8t5.5 8h-11zM726 696q0 -8 5 -8t5 8h-10zM317 161q8 0 8 5t-8 5v-10zM443 612q-8 -8 -8 -9.5t8 -1.5v11zM1093 360l-10 11h10v-11zM138 224h11v10zM232 119h-10v-11z
M537 434l-11 21v-10zM799 161q-8 8 -9 8t-1 -8h10zM222 130h7l-7 10v-10zM96 193q2 -3 5 -4q5 -3 5 4v3q-1 -3 -10 -3zM149 234q-3 0 -6 -1q-5 -2 -5 -9zM443 119q0 -2 1 -5q2 -6 7 -6h2zM746 130q-3 0 -4 -1q-3 -3 4 -10v11zM977 224q5 0 6 2t-6 4v-6zM818 538q-5 1 -7 4
t-2 5v-9h9zM1048 276q-5 1 -6.5 4t-1.5 5v-9h8zM149 184q1 7 8 9h-8v-9zM967 258q0 2 1.5 4.5t6.5 3.5h-8v-8zM474 709q0 2 1.5 4.5t6.5 3.5h-8v-8zM1114 203h8q-5 -1 -6.5 -3.5t-1.5 -4.5v8zM784 578l5 -3v-5l-2 2q-3 3 -3 6zM463 603q0 4 4 10l-4 -1v-9zM925 171v-9l-3 6z
M1103 270q0 -4 4 -4h-4v4zM390 549l7 -16l3 -5zM138 150v3v-3z" />
    <glyph glyph-name="bar" unicode="|" horiz-adv-x="688" 
d="M406 11q-10 10 -32 39t-49.5 70.5t-57.5 92t-55 103t-42.5 102.5t-21 91t11.5 69.5t54 37.5q28 6 50 -8t38.5 -39.5t28.5 -58t19.5 -63.5t11.5 -55.5t5 -34.5q-1 9 -1 31.5t3 49.5t11 55.5t24.5 50.5t42 33t63.5 4q42 -8 61 -42.5t20.5 -85t-12.5 -111.5t-39.5 -121.5
t-60 -116t-73.5 -93.5z" />
    <glyph glyph-name="asciitilde" unicode="~" horiz-adv-x="564" 
d="M535 589q15 -51 0 -135q-15 -73 -52 -162q-18 -43 -39.5 -84t-45 -78t-47.5 -68.5t-48 -54.5q-6 -6 -14 -6q-7 0 -11 3q-14 10 -7 25q2 5 -0.5 21.5t-20.5 54.5q-15 29 -35.5 64t-43.5 73q-30 48 -58 96.5t-48 93t-27 83.5t5 68q17 41 71 53q16 3 35 1.5t39.5 -13.5
t42 -36.5t42.5 -66.5l14 -32q17 103 66 146q42 37 106 26q58 -11 76 -72zM446 308q36 86 49.5 157t1.5 113q-5 16 -15 25t-22.5 11t-26.5 -2.5t-27 -16.5q-37 -34 -45 -123q-2 -18 -2 -33.5v-27.5q0 -14 1 -26q0 -13 -12 -19.5t-26.5 -7t-27 5t-14.5 16.5q0 2 -1 3
q-5 19 -11 39q-5 17 -12.5 38.5t-18.5 43.5q-13 24 -25.5 42.5t-26.5 30.5q-19 17 -39.5 12.5t-28.5 -25.5q-15 -34 22 -113q17 -38 41.5 -79t50.5 -83q39 -63 65 -109t34 -81q32 44 62 97.5t54 111.5z" />
    <glyph glyph-name="underscore" unicode="_" horiz-adv-x="886" 
d="M364 122h-20t-17 1q-47 4 -96 17.5t-92 33.5q-102 47 -140 119q-4 7 -1.5 14.5t10.5 12.5q7 4 14.5 1.5t12.5 -10.5q31 -58 121 -101q40 -19 85.5 -31t89.5 -16q48 -4 82 2.5t46 22.5q11 14 15 26q-11 2 -21 5.5t-20 7.5q-24 9 -39 20t-22.5 21.5t-9.5 20.5t-1 18
q5 25 16 39q12 17 31 20q23 5 49 -9t43 -42q22 -34 20 -70v-1q49 -9 105 -10t107.5 7t92.5 25.5t61 46.5q5 7 13 8.5t15 -3.5t8.5 -12.5t-3.5 -14.5q-18 -27 -46.5 -44.5t-61 -28t-64.5 -15.5t-56 -7q-45 -3 -90.5 -1t-87.5 10q-6 -20 -22 -41q-10 -13 -25 -21.5t-32 -13
t-35 -6t-35 -1.5zM416 327q-8 -2 -11 -10t-4 -16q-1 -6 9 -16t38 -21l16 -6t16 -5q-2 14 -6 24.5t-8 15.5q-10 17 -23 25.5t-23 8.5h-4z" />
    <glyph glyph-name="a" unicode="a" 
d="M421 325q7 -2 11.5 -6.5t2.5 -12.5q-1 -3 -2.5 -9.5t-7.5 -22.5t-17 -44t-32 -76q-68 -155 -127 -155q-5 0 -12 2t-14 10q-6 6 -11 15t-9.5 27.5t-8.5 48.5t-8 78l-9 -25q-6 -14 -16.5 -40.5t-25.5 -52t-34 -44.5t-41 -19q-12 0 -26.5 9t-27 30.5t-21.5 57t-10 88.5
q0 48 7.5 80t19 51t24.5 27t25 8q13 0 28 -6.5t29 -22t26.5 -42t21.5 -65.5q12 37 17 51.5t6.5 19t1 4.5t1.5 7q3 14 20.5 24.5t34.5 10.5q11 0 19.5 -5t8.5 -18q0 -12 -1 -24.5t-1 -26.5q0 -30 1 -64t3 -62.5t4.5 -47t5.5 -18.5q5 0 15.5 17.5t23.5 44t26.5 58t25 59
t19.5 46.5t9 22q2 7 7.5 10.5t11.5 3.5q2 0 3 -0.5t3 -0.5zM126 137q0 3 1 4q0 1 -2 13t-5.5 29.5t-8 37.5t-11 37t-13.5 28.5t-15 11.5q-7 0 -12 -27t-5 -79q0 -49 8 -84t18 -52q8 10 19.5 29t25.5 52z" />
    <glyph glyph-name="b" unicode="b" 
d="M422 325q8 -2 12 -9.5t2 -15.5q0 -1 -4.5 -14t-12 -33.5t-18.5 -46.5t-25 -53q-80 -154 -174 -154q-49 0 -88 65q-14 24 -23 49t-14 44q-1 -60 -0.5 -86t0.5 -27q1 -17 -12 -28.5t-28.5 -15t-28 0.5t-11.5 18l-0.5 25.5t0 67.5t1.5 96t4 112q6 138 21 226q10 60 22 96.5
t29 53.5q10 10 19 13t16 3q23 0 36 -9.5t18 -19.5q20 -33 2 -104q-7 -26 -18 -57t-28 -68q-8 -20 -17 -38l-17 -34l-4 -58q-1 -19 -1.5 -37.5t-0.5 -37.5q17 38 40 62q34 40 63 40q15 0 34.5 -14t35.5 -58q9 -26 14.5 -59.5t5.5 -68.5q1 -17 -1 -40t-7 -45q23 20 42.5 48.5
t33.5 56.5q13 26 24 51t18 45t11 32.5l4 12.5q2 8 9.5 11.5t15.5 1.5zM134 114q15 -36 26.5 -47.5t19 -3t10.5 34t2 64.5q-1 18 -4 43t-8.5 46t-13.5 32.5t-17 2.5q-11 -14 -22.5 -32.5t-19.5 -38.5q-1 -1 -1 -2q0 -2 -1 -2q2 -9 8.5 -37t20.5 -60zM103 546
q-2 -11 -3.5 -21.5t-3.5 -22.5q24 62 33 104.5t7.5 53.5t-11 -14.5t-22.5 -99.5z" />
    <glyph glyph-name="c" unicode="c" horiz-adv-x="229" 
d="M254 325q8 -3 11.5 -10t1.5 -15q0 -1 -4.5 -14t-12.5 -33t-18.5 -46t-22.5 -53q-15 -32 -29 -57.5t-27 -44.5q-37 -53 -71 -53q-8 0 -17.5 3t-19.5 12t-19.5 24.5t-18.5 40.5q-11 30 -16.5 67t-5.5 73q0 18 2 41.5t10 43.5q6 15 13 24.5t14 14t14 6t12 1.5q27 0 45 -20
q24 -26 21 -67q0 -8 -6.5 -13.5t-14.5 -4.5q-19 2 -19 21q1 6 -1 17.5t-4 16.5q-6 -17 -7 -50.5t3 -68.5q12 -111 36 -111.5t69 101.5q12 26 22.5 51.5t18 45.5l12 32l4.5 12q2 8 9.5 11.5t15.5 1.5z" />
  </font>
</defs>
</svg>
